<?xml version="1.0" encoding="utf-8"?>
<!-- Generator: Adobe Illustrator 16.0.0, SVG Export Plug-In . SVG Version: 6.00 Build 0)  -->
<!DOCTYPE svg PUBLIC "-//W3C//DTD SVG 1.1//EN" "http://www.w3.org/Graphics/SVG/1.1/DTD/svg11.dtd">
<svg version="1.1" xmlns="http://www.w3.org/2000/svg" xmlns:xlink="http://www.w3.org/1999/xlink" x="0px" y="0px"
	 width="41.471px" height="41.471px" viewBox="0 0 41.471 41.471" enable-background="new 0 0 41.471 41.471" xml:space="preserve">
<g id="Layer_2">
</g>
<g id="Layer_1">
	<line fill="none" x1="947" y1="452" x2="-353" y2="452"/>
	<line fill="none" x1="947" y1="452" x2="-353" y2="452"/>
	<line fill="none" x1="947" y1="452" x2="-353" y2="452"/>
	<line fill="none" x1="947" y1="452" x2="-353" y2="452"/>
	<circle fill="none" stroke="#FFFFFF" stroke-width="1.5" cx="20.736" cy="20.735" r="18.704"/>
	<path fill="#FFFFFF" d="M14.76,19.304c-0.403,0-0.73,0.325-0.73,0.728c0,0.406,0.326,0.731,0.73,0.731
		c0.403,0,0.731-0.326,0.731-0.731C15.49,19.629,15.163,19.304,14.76,19.304"/>
	<path fill="#FFFFFF" d="M21.974,19.229c-0.436,0-0.789,0.35-0.789,0.787c0,0.433,0.354,0.785,0.789,0.785
		c0.434,0,0.787-0.352,0.787-0.785C22.761,19.578,22.407,19.229,21.974,19.229"/>
	<path fill="#FFFFFF" d="M28.503,12.044H12.969c-1.568,0-2.839,1.27-2.839,2.838V24.1c0,1.569,1.271,2.836,2.839,2.836h5.485
		l1.867,4.399c0,0,0.127,0.381,0.439,0.381c0.311,0,0.438-0.381,0.438-0.381l1.864-4.399h5.438c1.568,0,2.836-1.267,2.836-2.836
		v-9.218C31.339,13.313,30.072,12.044,28.503,12.044 M16.795,20.194c-0.007,1.687-1.752,1.734-1.752,1.734
		c-0.672,0-1.055-0.449-1.055-0.449v0.306h-1.27v-5.235c-0.004,0-0.004,0,0-0.001v0.001c0.079,0.013,1.27-0.001,1.27-0.001v2.002
		c0.298-0.509,1.164-0.5,1.164-0.5C17.028,18.226,16.795,20.194,16.795,20.194 M19.027,18.211v3.583h-1.242v-3.546
		c0-0.484-0.597-0.618-0.597-0.618V16.38C19.171,16.46,19.027,18.211,19.027,18.211 M21.974,21.931
		c-1.152,0-2.083-0.858-2.083-1.918c0-1.057,0.931-1.915,2.083-1.915c1.149,0,2.081,0.857,2.081,1.915
		C24.055,21.072,23.123,21.931,21.974,21.931 M28.779,21.931c0,0,0.018,1.821-1.832,1.821h-0.564v-1.18h0.343
		c0,0,0.776,0.069,0.767-1.126c0,0-0.15,0.484-1.24,0.484c0,0-1.547-0.11-1.547-1.62v-0.572c0,0,0.036-1.563,1.732-1.688
		c0,0,0.67-0.074,1.082,0.481V18.15h1.26V21.931L28.779,21.931z"/>
	<path fill="#FFFFFF" d="M26.803,19.245c-0.427,0-0.767,0.345-0.767,0.768c0,0.424,0.34,0.77,0.767,0.77
		c0.424,0,0.766-0.345,0.766-0.77C27.569,19.59,27.227,19.245,26.803,19.245"/>
	<line fill="none" x1="947" y1="452" x2="-353" y2="452"/>
</g>
</svg>
