<?xml version="1.0" encoding="utf-8"?>
<!-- Generator: Adobe Illustrator 16.0.0, SVG Export Plug-In . SVG Version: 6.00 Build 0)  -->
<!DOCTYPE svg PUBLIC "-//W3C//DTD SVG 1.1//EN" "http://www.w3.org/Graphics/SVG/1.1/DTD/svg11.dtd">
<svg version="1.1" id="Layer_1" xmlns="http://www.w3.org/2000/svg" xmlns:xlink="http://www.w3.org/1999/xlink" x="0px" y="0px"
	 width="277.422px" height="239.553px" viewBox="0 0 277.422 239.553" enable-background="new 0 0 277.422 239.553"
	 xml:space="preserve">
<rect x="0" fill="none" width="277.422" height="239.553"/>
<g>
	<g>
		<defs>
			<rect id="SVGID_1_" x="0" width="277.422" height="239.553"/>
		</defs>
		<defs>
			<rect id="SVGID_2_" x="0" width="277.422" height="239.553"/>
		</defs>
		<defs>
			<rect id="SVGID_3_" x="0" width="277.422" height="239.553"/>
		</defs>
		<defs>
			<rect id="SVGID_4_" x="0" width="277.422" height="239.553"/>
		</defs>
		<defs>
			<rect id="SVGID_5_" x="0" width="277.422" height="239.553"/>
		</defs>
		<defs>
			<rect id="SVGID_6_" x="0" width="277.422" height="239.553"/>
		</defs>
		<defs>
			<rect id="SVGID_7_" x="0" width="277.422" height="239.553"/>
		</defs>
		<defs>
			<rect id="SVGID_8_" x="0" width="277.422" height="239.553"/>
		</defs>
		<clipPath id="SVGID_9_">
			<use xlink:href="#SVGID_1_"  overflow="visible"/>
		</clipPath>
		<clipPath id="SVGID_10_" clip-path="url(#SVGID_9_)">
			<use xlink:href="#SVGID_2_"  overflow="visible"/>
		</clipPath>
		<clipPath id="SVGID_11_" clip-path="url(#SVGID_10_)">
			<use xlink:href="#SVGID_3_"  overflow="visible"/>
		</clipPath>
		<clipPath id="SVGID_12_" clip-path="url(#SVGID_11_)">
			<use xlink:href="#SVGID_4_"  overflow="visible"/>
		</clipPath>
		<clipPath id="SVGID_13_" clip-path="url(#SVGID_12_)">
			<use xlink:href="#SVGID_5_"  overflow="visible"/>
		</clipPath>
		<clipPath id="SVGID_14_" clip-path="url(#SVGID_13_)">
			<use xlink:href="#SVGID_6_"  overflow="visible"/>
		</clipPath>
		<clipPath id="SVGID_15_" clip-path="url(#SVGID_14_)">
			<use xlink:href="#SVGID_7_"  overflow="visible"/>
		</clipPath>
		<clipPath id="SVGID_16_" clip-path="url(#SVGID_15_)">
			<use xlink:href="#SVGID_8_"  overflow="visible"/>
		</clipPath>
		<path clip-path="url(#SVGID_16_)" fill="#C7C6C6" d="M52.579,169.301l86.132,49.529l86.133-49.529V70.25l-86.133-49.526
			L52.579,70.25V169.301z M138.711,220.032l-0.262-0.15l-86.916-49.979V69.65l0.261-0.151l86.916-49.976l0.261,0.15l86.916,49.977
			v100.253l-0.26,0.15L138.711,220.032z"/>
		<path clip-path="url(#SVGID_16_)" fill="#C7C6C6" d="M70.458,237.514h136.505l68.252-117.736L206.963,2.041H70.458L2.205,119.778
			L70.458,237.514z M207.567,238.553H69.856l-0.151-0.26L0.999,119.777l0.151-0.261L69.856,1h137.711l0.15,0.26l68.703,118.517
			l-0.15,0.261L207.567,238.553z"/>
		<rect x="138.189" y="1.52" clip-path="url(#SVGID_16_)" fill="#C7C6C6" width="1.045" height="236.514"/>
		<polygon clip-path="url(#SVGID_16_)" fill="#C7C6C6" points="241.281,179.356 35.618,61.1 36.141,60.198 241.803,178.456 		"/>
		<polygon clip-path="url(#SVGID_16_)" fill="#C7C6C6" points="36.141,179.356 35.618,178.456 241.281,60.198 241.803,61.1 		"/>
		<polygon clip-path="url(#SVGID_16_)" fill="#C7C6C6" points="206.813,238.295 69.704,1.78 70.611,1.26 207.717,237.776 		"/>
		<rect x="1.604" y="119.256" clip-path="url(#SVGID_16_)" fill="#C7C6C6" width="274.218" height="1.042"/>
		<polygon clip-path="url(#SVGID_16_)" fill="#C7C6C6" points="70.61,238.295 69.704,237.776 206.813,1.26 207.717,1.78 		"/>
	</g>
</g>
</svg>
