<?xml version="1.0" encoding="utf-8"?>
<!-- Generator: Adobe Illustrator 16.0.0, SVG Export Plug-In . SVG Version: 6.00 Build 0)  -->
<!DOCTYPE svg PUBLIC "-//W3C//DTD SVG 1.1//EN" "http://www.w3.org/Graphics/SVG/1.1/DTD/svg11.dtd">
<svg version="1.1" id="Layer_1" xmlns="http://www.w3.org/2000/svg" xmlns:xlink="http://www.w3.org/1999/xlink" x="0px" y="0px"
	 width="1300px" height="800px" viewBox="0 0 1300 800" enable-background="new 0 0 1300 800" xml:space="preserve">
<g>
	<defs>
		<rect id="SVGID_1_" width="1300" height="800"/>
	</defs>
	<clipPath id="SVGID_2_">
		<use xlink:href="#SVGID_1_"  overflow="visible"/>
	</clipPath>
	<g clip-path="url(#SVGID_2_)">
		<defs>
			<rect id="SVGID_3_" width="1299.582" height="800"/>
		</defs>
		<clipPath id="SVGID_4_">
			<use xlink:href="#SVGID_3_"  overflow="visible"/>
		</clipPath>
		<g clip-path="url(#SVGID_4_)">
			<defs>
				<rect id="SVGID_5_" x="-1.955" width="1303.075" height="800"/>
			</defs>
			<clipPath id="SVGID_6_">
				<use xlink:href="#SVGID_5_"  overflow="visible"/>
			</clipPath>
			<g transform="matrix(1 0 0 1 0 0)" clip-path="url(#SVGID_6_)">
				
					<image overflow="visible" width="1536" height="943" xlink:href="33608BDD.jpg"  transform="matrix(0.8484 0 0 0.8484 -1.9551 0)">
				</image>
			</g>
		</g>
	</g>
	<g clip-path="url(#SVGID_2_)">
		<defs>
			<rect id="SVGID_7_" width="1300" height="800"/>
		</defs>
		<clipPath id="SVGID_8_">
			<use xlink:href="#SVGID_7_"  overflow="visible"/>
		</clipPath>
		<g opacity="0.87" clip-path="url(#SVGID_8_)">
			<g>
				<defs>
					<rect id="SVGID_9_" x="-1.417" y="-1" width="1301.998" height="802"/>
				</defs>
				<clipPath id="SVGID_10_">
					<use xlink:href="#SVGID_9_"  overflow="visible"/>
				</clipPath>
				<rect x="-0.417" clip-path="url(#SVGID_10_)" fill="#3F26EC" width="1300" height="800"/>
			</g>
		</g>
		<path clip-path="url(#SVGID_8_)" fill="#FFFFFF" d="M969.806,755.569c0.319,0,0.544,0.225,0.544,0.536
			c0,0.313-0.225,0.536-0.544,0.536c-0.32,0-0.544-0.224-0.544-0.536C969.262,755.794,969.485,755.569,969.806,755.569
			 M965.102,756.521h-1.424v-6.056h1.487c2.185,0,3.28,1.008,3.28,3C968.438,755.577,966.941,756.529,965.102,756.521
			 M965.149,751.058h-0.776v4.864h0.736c1.616,0,2.568-0.824,2.568-2.44S966.838,751.058,965.149,751.058 M962.653,756.521h-3.744
			v-6.056h3.744v0.6h-3.048v1.856h2.832v0.592h-2.832v2.399h3.048V756.521z M955.678,755.85l0.144-0.561l1.584-4.823h0.752
			l-2.048,6.056h-0.855l-2.049-6.056h0.752l1.584,4.823L955.678,755.85z M952.205,752.201c0-0.815-0.592-1.144-1.312-1.144h-1.096
			v2.448h0.84C951.678,753.506,952.205,753.201,952.205,752.201 M951.638,753.938v0.008l1.496,2.576h-0.896l-1.256-2.456h-1.176
			v2.456h-0.704v-6.056h1.72c1.368,0,2.104,0.68,2.104,1.72C952.926,753.146,952.461,753.705,951.638,753.938 M948.077,756.521
			h-3.744v-6.056h3.744v0.6h-3.048v1.856h2.832v0.592h-2.832v2.399h3.048V756.521z M939.382,756.065v-0.776
			c0-0.063,0.04-0.079,0.088-0.031c0.487,0.512,0.976,0.704,1.624,0.704c0.872,0,1.312-0.32,1.312-1.049
			c0-0.527-0.432-0.855-1.063-1.151l-0.568-0.248c-0.808-0.353-1.344-0.769-1.344-1.648c0-1,0.863-1.487,1.92-1.487
			c0.504,0,1.096,0.119,1.527,0.432v0.592c0,0.08-0.048,0.104-0.096,0.048c-0.432-0.312-0.84-0.456-1.399-0.456
			c-0.753,0-1.208,0.265-1.208,0.849c0,0.536,0.416,0.832,0.951,1.031l0.576,0.257c0.977,0.432,1.48,0.943,1.48,1.735
			c0,1.192-0.849,1.729-2.104,1.729C940.373,756.594,939.813,756.449,939.382,756.065 M938.573,756.521h-3.744v-6.056h3.744v0.6
			h-3.048v1.856h2.832v0.592h-2.832v2.399h3.048V756.521z M933.055,752.201c0-0.815-0.592-1.144-1.313-1.144h-1.097v2.448h0.841
			C932.525,753.506,933.055,753.201,933.055,752.201 M932.486,753.938v0.008l1.496,2.576h-0.896l-1.256-2.456h-1.176v2.456h-0.704
			v-6.056h1.72c1.368,0,2.104,0.68,2.104,1.72C933.774,753.146,933.311,753.705,932.486,753.938 M923.206,756.065v-0.776
			c0-0.063,0.04-0.079,0.089-0.031c0.487,0.512,0.976,0.704,1.623,0.704c0.872,0,1.313-0.32,1.313-1.049
			c0-0.527-0.432-0.855-1.064-1.151l-0.567-0.248c-0.809-0.353-1.345-0.769-1.345-1.648c0-1,0.864-1.487,1.921-1.487
			c0.504,0,1.096,0.119,1.527,0.432v0.592c0,0.08-0.048,0.104-0.096,0.048c-0.432-0.312-0.84-0.456-1.4-0.456
			c-0.752,0-1.208,0.265-1.208,0.849c0,0.536,0.416,0.832,0.952,1.031l0.576,0.257c0.976,0.432,1.48,0.943,1.48,1.735
			c0,1.192-0.849,1.729-2.104,1.729C924.198,756.594,923.639,756.449,923.206,756.065 M920.759,756.521h-0.704v-5.456h-2.072v-0.6
			h4.832v0.6h-2.056V756.521z M917.223,750.466v6.056h-0.704v-3.032h-2.952v3.032h-0.704v-6.056h0.704v2.424h2.952v-2.424H917.223z
			 M911.559,751.674c-0.408-0.448-1.008-0.696-1.672-0.696c-1.305,0-2.305,0.912-2.305,2.479c0,1.593,0.769,2.561,2.328,2.561
			c0.521,0,0.904-0.168,1.072-0.376v-1.608h-1.392v-0.6h2.111v2.632c-0.655,0.36-1.296,0.528-1.912,0.528
			c-1.928,0-2.943-1.265-2.943-3.12c0-1.912,1.248-3.08,2.983-3.08c0.729,0,1.32,0.136,1.832,0.512v0.736
			C911.662,751.714,911.614,751.729,911.559,751.674 M905.91,756.521h-0.704v-6.056h0.704V756.521z M903.431,752.201
			c0-0.815-0.593-1.144-1.313-1.144h-1.096v2.448h0.84C902.902,753.506,903.431,753.201,903.431,752.201 M902.862,753.938v0.008
			l1.496,2.576h-0.896l-1.257-2.456h-1.176v2.456h-0.704v-6.056h1.721c1.367,0,2.104,0.68,2.104,1.72
			C904.15,753.146,903.687,753.705,902.862,753.938 M897.767,755.913v0.608h-3.464v-6.056h0.704v5.447H897.767z M893.534,755.913
			v0.608h-3.464v-6.056h0.704v5.447H893.534z M886.799,750.97l-0.16,0.56l-0.864,2.688h2.048l-0.864-2.688L886.799,750.97z
			 M887.238,750.466l2.072,6.056h-0.729l-0.544-1.728h-2.472l-0.552,1.728h-0.729l2.064-6.056H887.238z M881.11,755.569
			c0.32,0,0.544,0.225,0.544,0.536c0,0.313-0.224,0.536-0.544,0.536s-0.544-0.224-0.544-0.536
			C880.566,755.794,880.79,755.569,881.11,755.569 M879.559,753.938v2.584h-0.688v-2.6c0-0.889-0.216-1.328-0.903-1.328
			c-0.688,0-1.353,0.647-1.353,1.52v2.408h-0.68v-4.368h0.688l0.032,0.632h0.008c0.265-0.456,0.849-0.735,1.385-0.735
			C879.158,752.05,879.559,752.714,879.559,753.938 M873.022,756.041c0.848,0,1.304-0.584,1.304-1.72
			c0-1.168-0.456-1.728-1.304-1.728s-1.304,0.56-1.304,1.728C871.719,755.457,872.175,756.041,873.022,756.041 M873.022,756.594
			c-1.4,0-2.032-1.032-2.032-2.272c0-1.312,0.688-2.271,2.032-2.271s2.032,0.96,2.032,2.271
			C875.055,755.562,874.423,756.594,873.022,756.594 M867.431,753.033h0.008c0.328-0.647,0.84-0.976,1.416-0.976
			c1.048,0,1.384,0.664,1.384,1.888v2.576h-0.68v-2.6c0-0.889-0.192-1.328-0.8-1.328c-0.616,0-1.208,0.647-1.208,1.52l-0.009,2.408
			h-0.663v-2.6c0-0.889-0.209-1.328-0.809-1.328c-0.616,0-1.224,0.647-1.224,1.52v2.408h-0.664v-4.368h0.672l0.024,0.656h0.008
			c0.248-0.464,0.775-0.752,1.279-0.752C866.902,752.058,867.246,752.378,867.431,753.033 M860.223,753.09
			c-0.057,0.056-0.104,0.031-0.104-0.049v-0.584c0.448-0.296,1.024-0.479,1.608-0.479c1.04,0,1.512,0.448,1.512,1.544v3h-0.664
			l-0.032-0.632h-0.008c-0.28,0.472-0.864,0.728-1.399,0.728c-0.856,0-1.448-0.439-1.448-1.264c0-0.808,0.512-1.376,1.496-1.528
			l1.376-0.199v-0.072c0-0.776-0.296-0.977-0.912-0.977C861.143,752.577,860.702,752.745,860.223,753.09 M862.582,754.745v-0.575
			l-1.159,0.144c-0.593,0.088-1.009,0.392-1.009,0.984c0,0.479,0.36,0.743,0.872,0.743
			C861.975,756.041,862.582,755.401,862.582,754.745 M858.942,753.938v2.584h-0.688v-2.6c0-0.889-0.216-1.328-0.903-1.328
			c-0.688,0-1.353,0.647-1.353,1.52v2.408h-0.68v-4.368h0.688l0.031,0.632h0.009c0.264-0.456,0.848-0.735,1.384-0.735
			C858.542,752.05,858.942,752.714,858.942,753.938 M853.246,750.762c0-0.288,0.208-0.504,0.496-0.504
			c0.272,0,0.496,0.216,0.496,0.504c0,0.271-0.224,0.487-0.496,0.487C853.454,751.249,853.246,751.033,853.246,750.762
			 M854.086,756.521h-0.695v-4.368h0.695V756.521z M852.566,755.626c0.056-0.057,0.088-0.049,0.088,0.031v0.536
			c-0.336,0.32-0.8,0.44-1.28,0.44c-1.336,0-2.231-0.761-2.231-2.265c0-1.399,0.848-2.319,2.216-2.319
			c0.464,0,0.928,0.12,1.264,0.399v0.553c0,0.079-0.031,0.096-0.088,0.031c-0.344-0.304-0.728-0.407-1.16-0.407
			c-0.991,0-1.495,0.792-1.495,1.735c0,1,0.512,1.704,1.552,1.704C851.87,756.065,852.23,755.938,852.566,755.626 M843.119,751.617
			c-0.057,0.057-0.088,0.04-0.088-0.031v-0.601c0.44-0.352,0.984-0.632,1.671-0.632c1.152,0,1.776,0.528,1.776,1.608
			c0,0.728-0.488,1.287-1.192,2.136l-1.632,1.855v0.009h2.912v0.56h-3.736v-0.6l1.865-2.097c0.84-1.063,1.079-1.344,1.079-1.88
			c0-0.647-0.319-1.032-1.056-1.032C844.206,750.913,843.672,751.161,843.119,751.617 M838.455,751.617
			c-0.056,0.057-0.088,0.04-0.088-0.031v-0.601c0.44-0.352,0.984-0.632,1.672-0.632c1.152,0,1.776,0.528,1.776,1.608
			c0,0.728-0.488,1.287-1.192,2.136l-1.632,1.855v0.009h2.912v0.56h-3.737v-0.6l1.865-2.097c0.84-1.063,1.08-1.344,1.08-1.88
			c0-0.647-0.32-1.032-1.057-1.032C839.543,750.913,839.008,751.161,838.455,751.617 M835.399,750.913
			c-0.848,0-1.272,0.889-1.272,2.648s0.425,2.504,1.272,2.504s1.272-0.744,1.272-2.504S836.247,750.913,835.399,750.913
			 M835.399,750.354c1.264,0,1.968,1.064,1.968,3.192s-0.704,3.071-1.968,3.071s-1.968-0.943-1.968-3.071
			S834.136,750.354,835.399,750.354 M829.127,751.617c-0.056,0.057-0.088,0.04-0.088-0.031v-0.601
			c0.44-0.352,0.984-0.632,1.672-0.632c1.152,0,1.776,0.528,1.776,1.608c0,0.728-0.488,1.287-1.192,2.136l-1.632,1.855v0.009h2.912
			v0.56h-3.735v-0.6l1.863-2.097c0.84-1.063,1.08-1.344,1.08-1.88c0-0.647-0.32-1.032-1.056-1.032
			C830.216,750.913,829.68,751.161,829.127,751.617 M824.184,754.857c0.048-0.056,0.128-0.056,0.128,0.016v0.44
			c-0.272,0.256-0.664,0.36-1.04,0.36c-1.048,0-1.776-0.608-1.776-1.784c0-1.096,0.696-1.832,1.761-1.832
			c0.367,0,0.743,0.12,1.016,0.328v0.448c0,0.063-0.072,0.104-0.128,0.031c-0.256-0.231-0.544-0.304-0.872-0.304
			c-0.744,0-1.12,0.6-1.12,1.32c0,0.768,0.384,1.304,1.16,1.304C823.647,755.186,823.919,755.098,824.184,754.857 M823.047,750.554
			c-1.791,0-3.136,1.408-3.136,3.271c0,1.809,1.4,3.28,3.136,3.28c1.729,0,3.129-1.472,3.129-3.28
			C826.176,752.025,824.775,750.554,823.047,750.554 M823.047,750.249c1.904,0,3.465,1.608,3.465,3.576
			c0,1.977-1.561,3.584-3.465,3.584c-1.911,0-3.472-1.607-3.472-3.584C819.575,751.745,821.079,750.249,823.047,750.249
			 M815.543,756.521h-0.703v-5.456h-2.072v-0.6h4.832v0.6h-2.057V756.521z M812.008,750.466v6.056h-0.704v-3.032h-2.952v3.032
			h-0.704v-6.056h0.704v2.424h2.952v-2.424H812.008z M806.344,751.674c-0.408-0.448-1.009-0.696-1.672-0.696
			c-1.305,0-2.305,0.912-2.305,2.479c0,1.593,0.769,2.561,2.328,2.561c0.521,0,0.904-0.168,1.072-0.376v-1.608h-1.393v-0.6h2.112
			v2.632c-0.656,0.36-1.296,0.528-1.912,0.528c-1.928,0-2.943-1.265-2.943-3.12c0-1.912,1.247-3.08,2.983-3.08
			c0.729,0,1.32,0.136,1.832,0.512v0.736C806.447,751.714,806.399,751.729,806.344,751.674 M800.695,756.521h-0.704v-6.056h0.704
			V756.521z M798.216,752.201c0-0.815-0.593-1.144-1.313-1.144h-1.096v2.448h0.84C797.688,753.506,798.216,753.201,798.216,752.201
			 M797.647,753.938v0.008l1.496,2.576h-0.896l-1.256-2.456h-1.176v2.456h-0.704v-6.056h1.72c1.368,0,2.104,0.68,2.104,1.72
			C798.936,753.146,798.472,753.705,797.647,753.938 M793.615,750.466h0.752l-2.008,3.359v2.696h-0.728v-2.608l-2.017-3.447h0.752
			l1.632,2.808h0.017L793.615,750.466z M788.575,752.289c0-1.008-0.775-1.231-1.6-1.231h-0.744v2.592h0.624
			C787.823,753.649,788.575,753.338,788.575,752.289 M789.312,752.273c0,1.264-0.92,1.952-2.32,1.952h-0.752v2.296h-0.704v-6.056
			h1.488C788.304,750.466,789.312,751.01,789.312,752.273 M781.831,755.985c1.257,0,1.904-1.063,1.904-2.488
			c0-1.432-0.647-2.495-1.904-2.495c-1.256,0-1.903,1.063-1.903,2.495C779.928,754.922,780.575,755.985,781.831,755.985
			 M781.831,756.594c-1.68,0-2.655-1.32-2.655-3.088c0-1.769,0.976-3.112,2.655-3.112c1.681,0,2.656,1.344,2.656,3.112
			C784.487,755.273,783.512,756.594,781.831,756.594 M778.768,755.233c0.063-0.048,0.104-0.032,0.104,0.032v0.704
			c-0.496,0.424-1.136,0.624-1.888,0.624c-1.728,0-2.744-1.248-2.744-3.097c0-1.928,1.2-3.104,2.84-3.104
			c0.696,0,1.256,0.136,1.744,0.52v0.736c0,0.072-0.048,0.088-0.104,0.032c-0.416-0.456-0.944-0.688-1.593-0.688
			c-1.199,0-2.144,0.872-2.144,2.464c0,1.656,0.76,2.521,2.12,2.521C777.743,755.978,778.304,755.722,778.768,755.233
			 M757.295,755.537c0.505,0.353,1.024,0.504,1.641,0.504c0.84-0.023,1.439-0.6,1.439-1.399c0-0.937-0.752-1.28-1.735-1.28
			c-0.368,0-0.824,0.064-1.208,0.145l0.168-3.017h3.136v0.552h-2.56l-0.12,1.856h0.016c0.304-0.032,0.576-0.056,0.856-0.056
			c1.256,0,2.136,0.632,2.136,1.728c0,1.136-0.824,2.024-2.152,2.024c-0.68,0-1.248-0.152-1.704-0.464v-0.553
			C757.207,755.514,757.256,755.497,757.295,755.537 M752.815,751.617c-0.056,0.057-0.088,0.04-0.088-0.031v-0.601
			c0.439-0.352,0.983-0.632,1.672-0.632c1.152,0,1.776,0.528,1.776,1.608c0,0.728-0.488,1.287-1.192,2.136l-1.632,1.855v0.009h2.912
			v0.56h-3.736v-0.6l1.864-2.097c0.84-1.063,1.08-1.344,1.08-1.88c0-0.647-0.32-1.032-1.057-1.032
			C753.903,750.913,753.367,751.161,752.815,751.617 M749.751,756.594c-1.359,0-2.031-0.704-2.031-1.648
			c0-0.775,0.392-1.392,1.248-1.616v-0.016c-0.664-0.208-1.112-0.696-1.112-1.36c0-0.872,0.624-1.6,1.896-1.6
			c1.272,0,1.896,0.728,1.896,1.6c0,0.664-0.448,1.152-1.112,1.36v0.016c0.856,0.225,1.248,0.841,1.248,1.616
			C751.783,755.89,751.111,756.594,749.751,756.594 M749.751,753.018c0.601,0,1.2-0.392,1.2-1.072c0-0.656-0.544-1.088-1.2-1.088
			c-0.655,0-1.199,0.432-1.199,1.088C748.552,752.626,749.151,753.018,749.751,753.018 M749.751,756.033
			c0.736,0,1.337-0.456,1.337-1.191c0-0.729-0.601-1.248-1.337-1.248c-0.735,0-1.336,0.52-1.336,1.248
			C748.415,755.577,749.016,756.033,749.751,756.033 M743.735,751.802v-0.496c0.432-0.192,0.832-0.48,1.16-0.849h0.72v6.064h-0.688
			v-5.312h-0.009c-0.359,0.287-0.735,0.495-1.104,0.632C743.761,751.865,743.735,751.842,743.735,751.802 M740.433,750.913
			c-0.849,0-1.272,0.889-1.272,2.648s0.424,2.504,1.272,2.504c0.848,0,1.271-0.744,1.271-2.504S741.28,750.913,740.433,750.913
			 M740.433,750.354c1.264,0,1.968,1.064,1.968,3.192s-0.704,3.071-1.968,3.071c-1.265,0-1.968-0.943-1.968-3.071
			S739.168,750.354,740.433,750.354 M737.448,753.609h-3.368v-0.6h3.368V753.609z M729.912,754.569c0,0.784,0.473,1.464,1.248,1.464
			c0.856,0,1.24-0.76,1.24-1.487c0-0.792-0.368-1.448-1.184-1.448C730.36,753.098,729.969,753.77,729.912,754.569 M732.752,751.201
			c-0.296-0.176-0.655-0.296-1.056-0.296c-1.136,0-1.808,1.168-1.848,2.528h0.016c0.208-0.472,0.752-0.896,1.448-0.896
			c1.152,0,1.792,0.832,1.792,1.969c0,1.256-0.792,2.08-1.944,2.08c-1.647,0-1.968-1.528-1.968-2.824
			c0-1.641,0.72-3.416,2.488-3.416c0.448,0,0.815,0.08,1.144,0.231v0.593C732.824,751.226,732.792,751.233,732.752,751.201
			 M726.433,756.594c-1.36,0-2.032-0.704-2.032-1.648c0-0.775,0.392-1.392,1.248-1.616v-0.016c-0.664-0.208-1.112-0.696-1.112-1.36
			c0-0.872,0.624-1.6,1.896-1.6c1.271,0,1.896,0.728,1.896,1.6c0,0.664-0.447,1.152-1.111,1.36v0.016
			c0.855,0.225,1.248,0.841,1.248,1.616C728.465,755.89,727.792,756.594,726.433,756.594 M726.433,753.018
			c0.6,0,1.2-0.392,1.2-1.072c0-0.656-0.545-1.088-1.2-1.088c-0.656,0-1.2,0.432-1.2,1.088
			C725.232,752.626,725.832,753.018,726.433,753.018 M726.433,756.033c0.735,0,1.336-0.456,1.336-1.191
			c0-0.729-0.601-1.248-1.336-1.248c-0.736,0-1.336,0.52-1.336,1.248C725.097,755.577,725.696,756.033,726.433,756.033
			 M723.456,753.609h-3.368v-0.6h3.368V753.609z M715.752,751.802v-0.496c0.433-0.192,0.832-0.48,1.16-0.849h0.721v6.064h-0.688
			v-5.312h-0.008c-0.36,0.287-0.736,0.495-1.104,0.632C715.776,751.865,715.752,751.842,715.752,751.802 M712.448,750.913
			c-0.848,0-1.271,0.889-1.271,2.648s0.424,2.504,1.271,2.504c0.849,0,1.272-0.744,1.272-2.504S713.297,750.913,712.448,750.913
			 M712.448,750.354c1.265,0,1.968,1.064,1.968,3.192s-0.703,3.071-1.968,3.071c-1.264,0-1.968-0.943-1.968-3.071
			S711.185,750.354,712.448,750.354 M706.593,754.569c0,0.784,0.472,1.464,1.248,1.464c0.855,0,1.239-0.76,1.239-1.487
			c0-0.792-0.367-1.448-1.184-1.448C707.04,753.098,706.648,753.77,706.593,754.569 M709.433,751.201
			c-0.296-0.176-0.656-0.296-1.057-0.296c-1.136,0-1.808,1.168-1.848,2.528h0.016c0.208-0.472,0.753-0.896,1.448-0.896
			c1.152,0,1.792,0.832,1.792,1.969c0,1.256-0.792,2.08-1.943,2.08c-1.648,0-1.969-1.528-1.969-2.824
			c0-1.641,0.721-3.416,2.488-3.416c0.448,0,0.816,0.08,1.144,0.231v0.593C709.504,751.226,709.473,751.233,709.433,751.201
			 M701.473,753.617c0-0.376-0.353-0.752-1.393-0.752c-1.023,0-1.376,0.376-1.376,0.752c0,0.353,0.353,0.744,1.376,0.744
			C701.12,754.361,701.473,753.97,701.473,753.617 M702.177,753.609c0,0.616-0.561,1.185-1.729,1.28v0.808h3.04v0.584h-6.8v-0.584
			h3.048v-0.808c-1.184-0.088-1.728-0.656-1.728-1.28c0-0.696,0.647-1.296,2.079-1.296
			C701.513,752.313,702.177,752.913,702.177,753.609 M702.769,751.89H697.4v-0.576h5.368V751.89z M701.465,750.802h-2.752v-0.584
			h2.752V750.802z M695.792,757.153h-4.72v-2.24h0.696v1.641h4.023V757.153z M692.729,752.073h-2.057v1.328h2.057V752.073z
			 M689.977,753.993v-3.775h0.695v1.271h2.057v-1.271h0.688v1.752h1.528v-1.977h0.688v5.28h-0.688v-2.696h-1.528v1.416H689.977z
			 M685.28,753.138c0.456,0.704,1.08,1.408,1.792,1.92l-0.512,0.496c-0.641-0.488-1.176-1.128-1.641-1.824
			c-0.584,0.856-1.344,1.592-2.168,2.064l-0.487-0.465c1.704-0.92,2.808-2.863,2.943-4.136c-0.6,0.024-1.184,0.024-1.775,0.024
			h-0.752v-0.584h1.208c0.68,0,1.384,0,2.136-0.017C685.992,751.474,685.721,752.346,685.28,753.138 M689.368,753.418h-1.256v3.88
			h-0.688v-7.305h0.688v2.816h1.256V753.418z M677.465,750.729c-0.688,0-1.16,0.48-1.16,1.176c0,0.704,0.472,1.168,1.16,1.168
			c0.695,0,1.168-0.464,1.168-1.168C678.633,751.21,678.16,750.729,677.465,750.729 M680.681,755.634h-3.216v0.952h3.216V755.634z
			 M681.36,757.186h-4.576v-2.992h0.681v0.872h3.216v-0.912h0.68V757.186z M679.288,751.546h1.384v-1.553h0.688v3.744h-0.688v-1.584
			h-1.367c-0.12,0.912-0.856,1.504-1.832,1.504c-1.072,0-1.856-0.704-1.856-1.76c0-1.048,0.784-1.752,1.856-1.752
			C678.408,750.146,679.137,750.697,679.288,751.546 M668.376,755.697l-0.495-0.439c1.304-0.937,2.279-2.4,2.111-4.816h0.729
			c0.016,0.696-0.049,1.328-0.168,1.904c0.384,1.096,1.104,2.032,2.071,2.68l-0.447,0.512c-0.801-0.56-1.448-1.344-1.889-2.312
			C669.881,754.266,669.225,755.081,668.376,755.697 M675.097,753.481h-1.256v3.816h-0.688v-7.305h0.688v2.88h1.256V753.481z
			 M660.584,752.785c-0.151-0.088-0.296-0.12-0.512-0.12c-0.56,0-1.12,0.561-1.12,1.393v2.464h-0.688v-4.368h0.695l0.024,0.632
			h0.008c0.225-0.464,0.696-0.735,1.152-0.735c0.224,0,0.376,0.016,0.536,0.104v0.592
			C660.681,752.817,660.648,752.834,660.584,752.785 M655.528,753.953l2.112,2.568h-0.889l-1.695-2.184h-0.008l-0.416,0.359v1.824
			h-0.688v-6.504h0.688v3.984h0.008l1.896-1.849h0.849l-1.856,1.792V753.953z M651.929,755.569c0.319,0,0.544,0.225,0.544,0.536
			c0,0.313-0.225,0.536-0.544,0.536c-0.32,0-0.544-0.224-0.544-0.536C651.385,755.794,651.608,755.569,651.929,755.569
			 M648.497,756.041c0.848,0,1.304-0.584,1.304-1.72c0-1.168-0.456-1.728-1.304-1.728c-0.848,0-1.304,0.56-1.304,1.728
			C647.192,755.457,647.648,756.041,648.497,756.041 M648.497,756.594c-1.4,0-2.032-1.032-2.032-2.272
			c0-1.312,0.688-2.271,2.032-2.271c1.344,0,2.032,0.96,2.032,2.271C650.528,755.562,649.896,756.594,648.497,756.594
			 M646.048,755.626c0.056-0.057,0.088-0.049,0.088,0.031v0.536c-0.336,0.32-0.8,0.44-1.28,0.44c-1.336,0-2.232-0.761-2.232-2.265
			c0-1.399,0.848-2.319,2.216-2.319c0.464,0,0.928,0.12,1.264,0.399v0.553c0,0.079-0.032,0.096-0.088,0.031
			c-0.344-0.304-0.728-0.407-1.16-0.407c-0.992,0-1.496,0.792-1.496,1.735c0,1,0.512,1.704,1.552,1.704
			C645.353,756.065,645.712,755.938,646.048,755.626 M640.913,755.569c0.32,0,0.544,0.225,0.544,0.536
			c0,0.313-0.224,0.536-0.544,0.536c-0.32,0-0.544-0.224-0.544-0.536C640.368,755.794,640.592,755.569,640.913,755.569
			 M639.28,753.938v2.584h-0.688v-2.6c0-0.889-0.216-1.328-0.904-1.328s-1.352,0.647-1.352,1.52v2.408h-0.68v-4.368h0.688
			l0.032,0.632h0.008c0.264-0.456,0.848-0.735,1.384-0.735C638.88,752.05,639.28,752.714,639.28,753.938 M632.665,756.041
			c0.848,0,1.304-0.584,1.304-1.72c0-1.168-0.456-1.728-1.304-1.728c-0.848,0-1.304,0.56-1.304,1.728
			C631.36,755.457,631.816,756.041,632.665,756.041 M632.665,756.594c-1.4,0-2.032-1.032-2.032-2.272
			c0-1.312,0.688-2.271,2.032-2.271c1.344,0,2.032,0.96,2.032,2.271C634.696,755.562,634.064,756.594,632.665,756.594
			 M626.992,753.033H627c0.328-0.647,0.84-0.976,1.416-0.976c1.048,0,1.384,0.664,1.384,1.888v2.576h-0.68v-2.6
			c0-0.889-0.192-1.328-0.8-1.328c-0.616,0-1.208,0.647-1.208,1.52l-0.008,2.408h-0.664v-2.6c0-0.889-0.208-1.328-0.808-1.328
			c-0.616,0-1.224,0.647-1.224,1.52v2.408h-0.664v-4.368h0.672l0.024,0.656h0.008c0.248-0.464,0.776-0.752,1.28-0.752
			C626.464,752.058,626.809,752.378,626.992,753.033 M619.705,753.09c-0.056,0.056-0.104,0.031-0.104-0.049v-0.584
			c0.448-0.296,1.024-0.479,1.608-0.479c1.04,0,1.512,0.448,1.512,1.544v3h-0.664l-0.032-0.632h-0.008
			c-0.28,0.472-0.864,0.728-1.4,0.728c-0.856,0-1.448-0.439-1.448-1.264c0-0.808,0.512-1.376,1.496-1.528l1.376-0.199v-0.072
			c0-0.776-0.296-0.977-0.912-0.977C620.625,752.577,620.185,752.745,619.705,753.09 M622.064,754.745v-0.575l-1.16,0.144
			c-0.592,0.088-1.008,0.392-1.008,0.984c0,0.479,0.36,0.743,0.872,0.743C621.457,756.041,622.064,755.401,622.064,754.745
			 M618.344,753.938v2.584h-0.688v-2.6c0-0.889-0.216-1.328-0.904-1.328s-1.352,0.647-1.352,1.52v2.408h-0.68v-4.368h0.688
			l0.032,0.632h0.008c0.264-0.456,0.848-0.735,1.384-0.735C617.944,752.05,618.344,752.714,618.344,753.938 M612.568,750.762
			c0-0.288,0.208-0.504,0.496-0.504c0.272,0,0.496,0.216,0.496,0.504c0,0.271-0.224,0.487-0.496,0.487
			C612.776,751.249,612.568,751.033,612.568,750.762 M613.408,756.521h-0.696v-4.368h0.696V756.521z M611.81,755.626
			c0.055-0.057,0.088-0.049,0.088,0.031v0.536c-0.336,0.32-0.8,0.44-1.28,0.44c-1.336,0-2.232-0.761-2.232-2.265
			c0-1.399,0.848-2.319,2.216-2.319c0.464,0,0.928,0.12,1.263,0.399v0.553c0,0.079-0.031,0.096-0.087,0.031
			c-0.345-0.304-0.728-0.407-1.16-0.407c-0.992,0-1.496,0.792-1.496,1.735c0,1,0.512,1.704,1.552,1.704
			C611.113,756.065,611.474,755.938,611.81,755.626 M603.969,757.434c-2.736,0-3.744-1.456-3.744-3.521
			c0-2.199,1.536-3.808,3.696-3.808c2.264,0,3.624,1.352,3.624,3.264c0,1.601-0.96,2.44-1.872,2.44c-0.768,0-0.992-0.424-0.992-0.88
			h-0.008c-0.272,0.56-0.64,0.872-1.312,0.872c-0.88,0-1.352-0.641-1.352-1.641c0-1.487,0.984-2.392,1.896-2.392
			c0.416,0,0.68,0.168,0.888,0.52h0.008l0.064-0.447h0.592l-0.248,2.903c-0.008,0.328,0.064,0.561,0.52,0.561
			c0.56,0,1.112-0.776,1.112-1.84c0-1.832-1.136-2.832-2.888-2.832c-1.768,0-3.024,1.359-3.024,3.264
			c0,1.976,1.056,3.016,3.056,3.016c1.024,0,1.776-0.336,2.336-0.768c0.056-0.032,0.088-0.016,0.088,0.048v0.616
			C605.833,757.218,604.905,757.434,603.969,757.434 M603.914,752.313c-0.704,0-1.192,0.904-1.192,1.872
			c0,0.696,0.28,1.072,0.768,1.072c0.704,0,1.208-0.761,1.208-1.952C604.697,752.594,604.489,752.313,603.914,752.313
			 M599.001,753.938v2.584h-0.688v-2.6c0-0.889-0.216-1.328-0.904-1.328c-0.688,0-1.352,0.647-1.352,1.52v2.408h-0.68v-4.368h0.688
			l0.032,0.632h0.008c0.264-0.456,0.848-0.735,1.384-0.735C598.602,752.05,599.001,752.714,599.001,753.938 M592.385,756.041
			c0.848,0,1.304-0.584,1.304-1.72c0-1.168-0.456-1.728-1.304-1.728c-0.848,0-1.304,0.56-1.304,1.728
			C591.082,755.457,591.538,756.041,592.385,756.041 M592.385,756.594c-1.4,0-2.032-1.032-2.032-2.272
			c0-1.312,0.688-2.271,2.032-2.271c1.344,0,2.032,0.96,2.032,2.271C594.417,755.562,593.785,756.594,592.385,756.594
			 M586.713,753.033h0.008c0.328-0.647,0.84-0.976,1.416-0.976c1.048,0,1.384,0.664,1.384,1.888v2.576h-0.68v-2.6
			c0-0.889-0.192-1.328-0.8-1.328c-0.616,0-1.208,0.647-1.208,1.52l-0.008,2.408h-0.664v-2.6c0-0.889-0.208-1.328-0.808-1.328
			c-0.616,0-1.224,0.647-1.224,1.52v2.408h-0.664v-4.368h0.672l0.024,0.656h0.008c0.248-0.464,0.776-0.752,1.28-0.752
			C586.186,752.058,586.529,752.378,586.713,753.033 M579.425,753.09c-0.056,0.056-0.104,0.031-0.104-0.049v-0.584
			c0.448-0.296,1.024-0.479,1.608-0.479c1.04,0,1.512,0.448,1.512,1.544v3h-0.664l-0.032-0.632h-0.008
			c-0.28,0.472-0.864,0.728-1.4,0.728c-0.856,0-1.448-0.439-1.448-1.264c0-0.808,0.512-1.376,1.496-1.528l1.376-0.199v-0.072
			c0-0.776-0.296-0.977-0.912-0.977C580.345,752.577,579.905,752.745,579.425,753.09 M581.785,754.745v-0.575l-1.16,0.144
			c-0.592,0.088-1.008,0.392-1.008,0.984c0,0.479,0.36,0.743,0.872,0.743C581.177,756.041,581.785,755.401,581.785,754.745
			 M578.065,753.938v2.584h-0.688v-2.6c0-0.889-0.216-1.328-0.904-1.328c-0.688,0-1.352,0.647-1.352,1.52v2.408h-0.68v-4.368h0.688
			l0.032,0.632h0.008c0.264-0.456,0.848-0.735,1.384-0.735C577.666,752.05,578.065,752.714,578.065,753.938 M572.29,750.762
			c0-0.288,0.208-0.504,0.496-0.504c0.272,0,0.496,0.216,0.496,0.504c0,0.271-0.224,0.487-0.496,0.487
			C572.498,751.249,572.29,751.033,572.29,750.762 M573.129,756.521h-0.696v-4.368h0.696V756.521z M571.529,755.626
			c0.056-0.057,0.088-0.049,0.088,0.031v0.536c-0.336,0.32-0.8,0.44-1.28,0.44c-1.336,0-2.232-0.761-2.232-2.265
			c0-1.399,0.848-2.319,2.216-2.319c0.464,0,0.928,0.12,1.264,0.399v0.553c0,0.079-0.032,0.096-0.088,0.031
			c-0.344-0.304-0.728-0.407-1.16-0.407c-0.992,0-1.496,0.792-1.496,1.735c0,1,0.512,1.704,1.552,1.704
			C570.833,756.065,571.193,755.938,571.529,755.626 M558.458,753.617c0-0.376-0.352-0.752-1.392-0.752
			c-1.024,0-1.376,0.376-1.376,0.752c0,0.353,0.352,0.744,1.376,0.744C558.105,754.361,558.458,753.97,558.458,753.617
			 M559.161,753.609c0,0.616-0.56,1.185-1.728,1.28v0.808h3.04v0.584h-6.8v-0.584h3.048v-0.808c-1.184-0.088-1.728-0.656-1.728-1.28
			c0-0.696,0.648-1.296,2.08-1.296C558.498,752.313,559.161,752.913,559.161,753.609 M559.753,751.89h-5.368v-0.576h5.368V751.89z
			 M558.449,750.802h-2.752v-0.584h2.752V750.802z M549.817,751.802v-0.496c0.432-0.192,0.832-0.48,1.16-0.849h0.72v6.064h-0.688
			v-5.312h-0.008c-0.36,0.287-0.736,0.495-1.104,0.632C549.841,751.865,549.817,751.842,549.817,751.802 M546.513,750.913
			c-0.848,0-1.272,0.889-1.272,2.648s0.424,2.504,1.272,2.504c0.848,0,1.272-0.744,1.272-2.504S547.361,750.913,546.513,750.913
			 M546.513,750.354c1.264,0,1.968,1.064,1.968,3.192s-0.704,3.071-1.968,3.071c-1.264,0-1.968-0.943-1.968-3.071
			S545.25,750.354,546.513,750.354 M541.361,756.521h-0.712l2.416-5.472h-3.224v-0.561h3.864v0.664L541.361,756.521z
			 M535.881,756.073c0-0.359-0.416-0.712-1.728-0.712c-1.32,0-1.736,0.353-1.736,0.712c0,0.36,0.416,0.712,1.736,0.712
			C535.465,756.785,535.881,756.434,535.881,756.073 M536.625,756.065c0,0.76-0.84,1.296-2.472,1.296
			c-1.64,0-2.488-0.536-2.488-1.296c0-0.768,0.848-1.28,2.488-1.28C535.785,754.785,536.625,755.298,536.625,756.065
			 M537.633,754.258h-6.96v-0.593h6.96V754.258z M531.761,750.882h2.224c0.664,0,1.328,0,2.056-0.017
			c0.12,0.008,0.168,0.137,0.12,0.225c-0.216,0.392-0.664,0.768-1.232,1.096c0.624,0.216,1.344,0.4,2.104,0.512l-0.328,0.521
			c-0.824-0.137-1.664-0.4-2.392-0.721c-0.872,0.393-1.888,0.673-2.752,0.744l-0.288-0.512c1.6-0.152,3.104-0.736,3.84-1.32
			c-0.592,0.017-1.184,0.032-1.768,0.032h-1.584V750.882z M532.706,749.897h2.592v0.584h-2.592V749.897z M527.77,756.521h-0.712
			l2.416-5.472h-3.224v-0.561h3.864v0.664L527.77,756.521z M524.098,755.993c0-0.392-0.432-0.775-1.744-0.775
			c-1.32,0-1.752,0.384-1.752,0.775c0,0.4,0.432,0.792,1.752,0.792C523.666,756.785,524.098,756.394,524.098,755.993
			 M524.841,756.002c0,0.8-0.856,1.376-2.488,1.376c-1.64,0-2.504-0.576-2.504-1.376c0-0.801,0.864-1.345,2.504-1.345
			C523.985,754.657,524.841,755.201,524.841,756.002 M525.833,754.178h-6.976v-0.592h3.136v-0.937h-1.976v-2.456h4.68v0.601h-3.968
			v1.279h4.072v0.576h-2.104v0.937h3.136V754.178z M516.498,756.521h-2.048v-6.056h2.024c1.128,0,1.744,0.607,1.744,1.359
			c0,0.672-0.408,1.185-1.08,1.376v0.017c0.824,0.104,1.376,0.695,1.376,1.527C518.513,755.626,517.874,756.521,516.498,756.521
			 M516.257,753.537h-1.112v2.385h1.256c0.856,0,1.328-0.465,1.328-1.185C517.729,753.978,517.257,753.537,516.257,753.537
			 M516.281,751.058h-1.136v1.896h1.056c0.776,0,1.264-0.264,1.264-1C517.465,751.321,517.065,751.058,516.281,751.058
			 M510.113,756.002c0-0.288,0.216-0.505,0.56-0.505c0.344,0,0.584,0.288,0.584,0.664c0,0.673-0.472,1.208-1.04,1.408l-0.144-0.304
			c0.312-0.112,0.536-0.344,0.616-0.624c0.032-0.128,0.016-0.176-0.096-0.176C510.321,756.466,510.113,756.249,510.113,756.002
			 M507.266,756.594c-1.36,0-2.032-0.704-2.032-1.648c0-0.775,0.392-1.392,1.248-1.616v-0.016c-0.664-0.208-1.112-0.696-1.112-1.36
			c0-0.872,0.624-1.6,1.896-1.6c1.272,0,1.896,0.728,1.896,1.6c0,0.664-0.448,1.152-1.112,1.36v0.016
			c0.856,0.225,1.248,0.841,1.248,1.616C509.297,755.89,508.625,756.594,507.266,756.594 M507.266,753.018
			c0.6,0,1.2-0.392,1.2-1.072c0-0.656-0.544-1.088-1.2-1.088c-0.656,0-1.2,0.432-1.2,1.088
			C506.065,752.626,506.666,753.018,507.266,753.018 M507.266,756.033c0.736,0,1.336-0.456,1.336-1.191
			c0-0.729-0.6-1.248-1.336-1.248c-0.736,0-1.336,0.52-1.336,1.248C505.929,755.577,506.529,756.033,507.266,756.033
			 M501.001,751.617c-0.056,0.057-0.088,0.04-0.088-0.031v-0.601c0.44-0.352,0.984-0.632,1.672-0.632
			c1.152,0,1.776,0.528,1.776,1.608c0,0.728-0.488,1.287-1.192,2.136l-1.632,1.855v0.009h2.912v0.56h-3.736v-0.6l1.864-2.097
			c0.84-1.063,1.08-1.344,1.08-1.88c0-0.647-0.32-1.032-1.056-1.032C502.089,750.913,501.553,751.161,501.001,751.617
			 M496.585,751.802v-0.496c0.432-0.192,0.832-0.48,1.16-0.849h0.72v6.064h-0.688v-5.312h-0.008
			c-0.36,0.287-0.736,0.495-1.104,0.632C496.609,751.865,496.585,751.842,496.585,751.802 M487.969,754.378v-2.208h3.88v-1.057
			h-3.888v-0.6h4.576v2.224h-3.88v1.057h4.12v0.584h-2.168v1.304h3.04v0.584h-6.8v-0.584h3.04v-1.304H487.969z M483.538,751.514
			c0-0.393-0.296-0.872-1.152-0.872s-1.152,0.479-1.152,0.872c0,0.384,0.296,0.872,1.152,0.872S483.538,751.897,483.538,751.514
			 M484.25,751.521c0,0.832-0.72,1.44-1.864,1.44s-1.864-0.608-1.864-1.44s0.72-1.44,1.864-1.44S484.25,750.689,484.25,751.521
			 M486.105,757.153h-5.08v-1.88h0.68v1.288h4.4V757.153z M479.881,753.426h1.32c1.072,0,2.64-0.064,3.664-0.2v0.56
			c-0.6,0.08-1.352,0.145-2.104,0.185v1.624h-0.696v-1.601c-0.296,0.017-0.584,0.017-0.856,0.017h-1.328V753.426z M485.297,755.873
			v-0.888h-1.672v-0.584h1.672v-4.408h0.688v5.88H485.297z M477.978,755.657h-3.216v0.929h3.216V755.657z M478.657,757.186h-4.576
			v-2.832h0.68v0.736h3.216v-0.776h0.68V757.186z M475.753,751.857h-2.032v1.16h2.032V751.857z M473.025,753.609v-3.399h0.696v1.071
			h2.032v-1.071h0.688v1.359h1.528v-1.576h0.688v3.904h-0.688v-1.72h-1.528v1.432H473.025z M468.505,753.546
			c0.136-0.832,0.248-1.872,0.248-2.641h-4.064v-0.592h4.76c0,1.08-0.152,2.408-0.28,3.232h1.28v0.584h-2.976v3.128h-0.704v-3.128
			h-3.12v-0.584H468.505z M463.465,753.241h-1.256v4.057h-0.688v-7.305h0.688v2.641h1.256V753.241z M457.313,754.705l-0.064-3.216
			h0.664l0.064,3.216h0.808c0.192,0,0.392,0,0.592-0.008l0.048-3.208h0.664l-0.048,3.168c0.408-0.04,0.8-0.096,1.152-0.176v0.576
			c-0.648,0.176-1.544,0.24-2.4,0.24h-2.36v-0.593H457.313z M456.553,750.617h4.112v0.576h-4.112V750.617z M454.513,756.01
			c0-0.368-0.416-0.769-1.727-0.769c-1.32,0-1.737,0.4-1.737,0.769c0,0.376,0.417,0.784,1.737,0.784
			C454.097,756.794,454.513,756.386,454.513,756.01 M455.257,756.01c0,0.76-0.839,1.352-2.471,1.352
			c-1.641,0-2.489-0.592-2.489-1.352c0-0.761,0.848-1.305,2.489-1.305C454.418,754.705,455.257,755.249,455.257,756.01
			 M453.153,752.489v1.04h3.104v0.592h-6.96v-0.592h3.144v-1.04H453.153z M453.058,750.842c0.448,0.664,1.633,1.216,2.616,1.359
			l-0.367,0.553c-1.049-0.2-2-0.744-2.601-1.385c-0.608,0.721-1.632,1.28-2.536,1.448l-0.359-0.536
			c1.519-0.279,2.72-1.231,2.703-2.296h0.737C453.266,750.273,453.194,750.562,453.058,750.842 M440.787,755.697l-0.496-0.439
			c1.303-0.937,2.28-2.4,2.112-4.816h0.728c0.015,0.696-0.048,1.328-0.168,1.904c0.384,1.096,1.104,2.032,2.071,2.68l-0.447,0.512
			c-0.8-0.56-1.448-1.344-1.888-2.312C442.291,754.266,441.634,755.081,440.787,755.697 M445.842,749.993h0.688v7.305h-0.688
			V749.993z M439.554,757.218h-4.752v-1.832h3.912v-0.664h-3.912v-0.576h4.592v1.8h-3.912v0.681h4.072V757.218z M436.426,751.825
			h-2.008v1.064h2.008V751.825z M437.099,752.273h1.616v-0.752h-1.616V752.273z M433.738,753.481v-3.271h0.68v1.039h2.008v-1.039
			h0.672v0.76h1.608v-0.977h0.688v3.736h-0.688v-0.896h-1.608v0.647H433.738z M431.187,757.321v-1.672h-4.056v-0.592h4.744v2.264
			H431.187z M433.059,754.418h-6.96v-0.593h6.96V754.418z M427.258,753.249v-3.056h4.584v0.592h-3.896v0.672h3.832v0.553h-3.832
			v0.68h4.008v0.56H427.258z M422.074,754.306v-0.776h-3.112v-0.567h6.96v0.567h-3.136v0.776h2.016v1.76h-4.04v0.664h4.232v0.568
			h-4.912v-1.776h4.04v-0.648h-4.04v-0.567H422.074z M424.123,751.289c0-0.416-0.512-0.8-1.672-0.8c-1.176,0-1.68,0.384-1.68,0.8
			c0,0.376,0.504,0.713,1.68,0.713C423.61,752.002,424.123,751.665,424.123,751.289 M424.875,751.258
			c0,0.768-0.816,1.296-2.424,1.296c-1.608,0-2.424-0.528-2.424-1.296c0-0.752,0.816-1.328,2.424-1.328
			C424.059,749.93,424.875,750.497,424.875,751.258 M412.218,755.697l-0.496-0.439c1.304-0.937,2.28-2.4,2.112-4.816h0.728
			c0.016,0.696-0.048,1.328-0.168,1.904c0.384,1.096,1.104,2.032,2.072,2.68l-0.448,0.512c-0.8-0.56-1.448-1.344-1.888-2.312
			C413.722,754.266,413.066,755.081,412.218,755.697 M415.667,753.098v-0.601h1.632v-2.504h0.688v7.305h-0.688v-4.2H415.667z
			 M405.291,757.186h-4.84v-2.176h0.688v1.576h4.152V757.186z M400.475,752.81v-2.616h4.632v2.616h-1.968v1.072h3.136v0.592h-6.96
			v-0.592h3.112v-1.072H400.475z M404.402,750.802h-3.224v1.424h3.224V750.802z M399.21,753.321h-1.256v3.977h-0.688v-7.305h0.688
			v2.721h1.256V753.321z M394.202,755.233h-1.584v-4.712h0.712v4.096h0.968c1.072,0,2.016-0.176,2.576-0.304v0.6
			C396.267,755.073,395.154,755.233,394.202,755.233 M388.882,752.481c0.224,0.824,0.696,1.688,1.352,2.384l-0.496,0.408
			c-0.472-0.552-0.816-1.112-1.08-1.776c-0.272,0.929-0.696,1.752-1.304,2.433l-0.536-0.336c1.16-1.36,1.64-3.08,1.52-5.137h0.68
			C389.034,751.153,388.986,751.834,388.882,752.481 M385.45,755.306l-0.52-0.368c1.112-1.176,1.472-2.544,1.352-4.48h0.656
			c0.016,0.761-0.024,1.416-0.12,2.009c0.184,0.496,0.52,1.016,0.856,1.368c-0.112,0.224-0.232,0.447-0.36,0.663
			c-0.28-0.376-0.52-0.775-0.696-1.176C386.378,754.073,386.002,754.714,385.45,755.306 M390.674,749.993h0.688v7.305h-0.688
			V749.993z M383.811,753.697c0,1.36-0.688,2.8-1.576,3.736h-0.528c0.904-1.256,1.36-2.544,1.36-3.736
			c0-1.191-0.456-2.479-1.36-3.735h0.528C383.123,750.897,383.811,752.338,383.811,753.697 M379.858,750.466
			c-0.264,0.592-0.728,1.104-1.344,1.544c0.664,0.328,1.456,0.6,2.32,0.784l-0.344,0.584c-0.928-0.232-1.792-0.561-2.552-1.009
			c-0.784,0.448-1.736,0.792-2.76,1.049l-0.336-0.576c2.024-0.433,3.432-1.24,3.992-2c-0.608,0.031-1.192,0.031-1.784,0.031h-1.504
			v-0.592h2.064c0.688,0,1.384,0,2.136-0.016C379.866,750.258,379.915,750.378,379.858,750.466 M374.418,754.05h6.8v0.6h-2.992
			v2.608h-0.704v-2.608h-3.104V754.05z M371.898,753.697c0-1.359,0.688-2.8,1.576-3.735h0.528c-0.904,1.256-1.36,2.544-1.36,3.735
			c0,1.192,0.456,2.48,1.36,3.736h-0.528C372.586,756.497,371.898,755.058,371.898,753.697 M362.65,752.283h0.01
			c0.35-0.46,0.92-0.83,1.61-0.83c1.25,0,1.91,0.74,1.91,2.271v3.51h-1.23v-3.57c0-0.93-0.37-1.25-0.99-1.25
			c-0.73,0-1.32,0.65-1.32,1.75v3.07h-1.23v-5.66h1.18L362.65,752.283z M357.851,756.334c0.9,0,1.36-0.601,1.36-1.95
			c0-1.38-0.45-1.96-1.36-1.96c-0.9,0-1.36,0.58-1.36,1.96C356.49,755.733,356.96,756.334,357.851,756.334 M357.851,757.323
			c-1.82,0-2.64-1.38-2.64-2.939c0-1.65,0.9-2.94,2.64-2.94c1.73,0,2.64,1.29,2.64,2.94
			C360.49,755.943,359.66,757.323,357.851,757.323 M350.851,752.464c0.41-0.66,1.02-1.011,1.75-1.011c1.34,0,1.81,0.9,1.81,2.471
			v3.31h-1.23v-3.439c0-1-0.25-1.37-0.85-1.37c-0.61,0-1.18,0.6-1.18,1.609v3.2h-1.18v-3.27c0-1.13-0.21-1.54-0.82-1.54
			c-0.73,0-1.2,0.64-1.2,1.739v3.07h-1.23v-5.66h1.15l0.06,0.71h0.01c0.34-0.529,0.92-0.83,1.44-0.83c0.77,0,1.24,0.391,1.46,1.011
			H350.851z M341.72,753.184c-0.06,0.05-0.14,0.01-0.14-0.07v-1.08c0.63-0.43,1.33-0.68,2.22-0.68c1.34,0,1.94,0.64,1.94,2.05v3.83
			h-1.1l-0.06-0.689h-0.01c-0.35,0.479-0.97,0.81-1.65,0.81c-1.21,0-1.86-0.62-1.86-1.69c0-1.06,0.7-1.779,1.94-1.97l1.51-0.25
			v-0.05c0-0.7-0.22-1-0.91-1C342.99,752.394,342.42,752.594,341.72,753.184 M344.541,754.974v-0.63l-1.2,0.17
			c-0.66,0.09-1.05,0.47-1.05,1.05c0,0.521,0.32,0.771,0.85,0.771C343.851,756.334,344.541,755.653,344.541,754.974 M336.88,752.283
			h0.01c0.35-0.46,0.92-0.83,1.61-0.83c1.25,0,1.91,0.74,1.91,2.271v3.51h-1.23v-3.57c0-0.93-0.37-1.25-0.99-1.25
			c-0.73,0-1.32,0.65-1.32,1.75v3.07h-1.23v-5.66h1.18L336.88,752.283z M332.95,750.023c0-0.41,0.33-0.77,0.78-0.77
			c0.43,0,0.8,0.359,0.8,0.77c0,0.4-0.37,0.76-0.8,0.76C333.28,750.783,332.95,750.413,332.95,750.023 M334.36,757.233h-1.25v-5.66
			h1.25V757.233z M332.291,753.163c-0.42-0.47-0.91-0.699-1.57-0.699c-1.07,0-1.59,0.85-1.59,1.97c0,1.18,0.52,1.93,1.64,1.93
			c0.65,0,1.14-0.26,1.56-0.76c0.05-0.06,0.14-0.03,0.14,0.05v1.09c-0.49,0.471-1.04,0.63-1.76,0.63c-1.69,0-2.87-0.989-2.87-2.93
			c0-1.84,1.11-3,2.85-3c0.67,0,1.24,0.18,1.74,0.59v1.08C332.43,753.193,332.34,753.224,332.291,753.163"/>
		<circle clip-path="url(#SVGID_8_)" fill="none" stroke="#FFFFFF" cx="1188.975" cy="753.146" r="16.429"/>
		<circle clip-path="url(#SVGID_8_)" fill="none" stroke="#FFFFFF" cx="1230.743" cy="753.146" r="16.429"/>
		<circle clip-path="url(#SVGID_8_)" fill="none" stroke="#FFFFFF" cx="1272.512" cy="753.146" r="16.429"/>
		<path clip-path="url(#SVGID_8_)" fill="#FFFFFF" d="M1231.638,758.063v-5.271h1.769l0.265-2.053h-2.033v-1.312
			c0-0.595,0.165-1,1.018-1l1.088-0.001v-1.836c-0.188-0.024-0.835-0.081-1.586-0.081c-1.566,0-2.641,0.957-2.641,2.716v1.514
			h-1.773v2.053h1.773v5.271H1231.638z"/>
		<path clip-path="url(#SVGID_8_)" fill="#FFFFFF" d="M1191.83,749.217c-1.035,0-1.848,0.476-2.338,1.162l-0.084-0.952h-2.058v8.498
			h2.198v-5.194c0-0.979,0.798-1.526,1.638-1.526s1.638,0.351,1.638,1.708v5.013h2.198v-5.097
			C1195.022,750.561,1193.511,749.217,1191.83,749.217 M1185.265,749.427h-2.198v8.498h2.198V749.427z M1184.158,748.181
			c0.687,0,1.232-0.546,1.232-1.232c0-0.686-0.546-1.231-1.232-1.231c-0.686,0-1.231,0.546-1.231,1.231
			C1182.927,747.635,1183.473,748.181,1184.158,748.181"/>
		<path clip-path="url(#SVGID_8_)" fill="#FFFFFF" d="M1269.909,757.055v-6.392l5.858,3.121L1269.909,757.055z M1280.633,750.007
			c-0.32-1.307-0.919-1.808-2.021-1.988c-0.634-0.097-3.682-0.219-6.101-0.219c-2.42,0-5.467,0.122-6.1,0.219
			c-1.103,0.181-1.703,0.685-2.021,1.988c-0.107,0.436-0.256,2.837-0.256,3.751v0.202c0,0.916,0.148,3.315,0.256,3.753
			c0.317,1.303,0.918,1.807,2.021,1.986c0.633,0.097,3.684,0.218,6.105,0.218l-0.011,0.001c2.422,0,5.47-0.122,6.105-0.219
			c1.102-0.18,1.7-0.684,2.021-1.986c0.107-0.438,0.254-2.837,0.254-3.753v-0.202
			C1280.887,752.844,1280.74,750.442,1280.633,750.007"/>
		<path clip-path="url(#SVGID_8_)" fill="#FFFFFF" d="M58.799,36.652l-2.304,1.33c-0.543,0.313-0.877,0.893-0.878,1.52v2.661
			c0,0.627,0.335,1.207,0.878,1.52l2.304,1.33c0.543,0.314,1.212,0.314,1.756,0l2.303-1.331c0.272-0.156,0.491-0.379,0.643-0.642
			c0.152-0.262,0.235-0.564,0.235-0.877v-2.661c0-0.627-0.334-1.207-0.878-1.52l-2.303-1.33
			C60.011,36.339,59.342,36.339,58.799,36.652"/>
		<path clip-path="url(#SVGID_8_)" fill="#FFFFFF" d="M103.775,115.619l-1.382,0.798c-0.326,0.188-0.527,0.536-0.527,0.913v1.595
			c0,0.376,0.201,0.724,0.527,0.913l1.382,0.798c0.326,0.188,0.727,0.188,1.053,0l1.382-0.798c0.164-0.095,0.295-0.228,0.386-0.386
			c0.091-0.157,0.141-0.338,0.141-0.527v-1.595c0-0.377-0.2-0.725-0.527-0.913l-1.382-0.798
			C104.502,115.431,104.102,115.431,103.775,115.619"/>
		<path clip-path="url(#SVGID_8_)" fill="#FFFFFF" d="M34.928,78.682v1.596c0,0.377,0.201,0.724,0.527,0.912l1.382,0.798
			c0.326,0.189,0.728,0.189,1.053,0l1.383-0.798c0.325-0.188,0.527-0.535,0.527-0.912v-1.596c0-0.188-0.051-0.37-0.142-0.527
			c-0.091-0.157-0.223-0.291-0.385-0.385l-1.383-0.798c-0.325-0.188-0.727-0.188-1.053,0l-1.382,0.798
			C35.129,77.958,34.928,78.306,34.928,78.682"/>
		<path clip-path="url(#SVGID_8_)" fill="#FFFFFF" d="M56.495,120.978l2.304,1.33c0.543,0.313,1.212,0.313,1.755,0l2.304-1.33
			c0.543-0.314,0.878-0.893,0.878-1.521v-2.66c0-0.626-0.335-1.206-0.878-1.52l-2.304-1.33c-0.271-0.157-0.575-0.235-0.878-0.235
			c-0.302,0-0.606,0.078-0.877,0.235l-2.304,1.33c-0.543,0.314-0.878,0.894-0.878,1.52v2.66
			C55.617,120.084,55.952,120.663,56.495,120.978"/>
		<path clip-path="url(#SVGID_8_)" fill="#FFFFFF" d="M102.393,42.543l1.382,0.798c0.326,0.188,0.728,0.188,1.053,0l1.383-0.798
			c0.326-0.188,0.527-0.536,0.527-0.912v-1.596c0-0.377-0.201-0.724-0.527-0.912l-1.383-0.798c-0.163-0.095-0.345-0.142-0.526-0.142
			c-0.182,0-0.364,0.047-0.527,0.142l-1.382,0.798c-0.326,0.188-0.527,0.535-0.527,0.912v1.596
			C101.866,42.007,102.067,42.355,102.393,42.543"/>
		<path clip-path="url(#SVGID_8_)" fill="#FFFFFF" d="M56.214,87.57c-0.764-1.294-1.341-4.415-1.341-8.085
			c0-3.67,0.577-6.791,1.341-8.085c0.795-1.346,2.711-2.512,3.442-2.967l-5.959,0.022v-0.022h-5.622
			c0.73,0.455,2.647,1.621,3.442,2.967c0.764,1.294,1.34,4.415,1.34,8.085c0,3.67-0.576,6.791-1.34,8.085
			c-0.795,1.346-2.712,2.512-3.442,2.967h6.329h0.176h5.076C58.925,90.082,57.009,88.916,56.214,87.57"/>
		<path clip-path="url(#SVGID_8_)" fill="#FFFFFF" d="M59.656,58.06l-4.192-2.42c-0.99-0.571-2.207-0.571-3.196,0l-4.192,2.42
			c-0.988,0.571-1.597,1.626-1.598,2.767v4.842c0.001,1.141,0.61,2.196,1.598,2.767l4.192,2.42c0.989,0.571,2.206,0.571,3.196,0
			l4.192-2.42c0.988-0.571,1.597-1.626,1.597-2.767v-4.842C61.253,59.686,60.644,58.63,59.656,58.06"/>
		<path clip-path="url(#SVGID_8_)" fill="#FFFFFF" d="M59.656,90.534l-4.192-2.42c-0.99-0.571-2.207-0.571-3.196,0l-4.192,2.42
			c-0.988,0.571-1.597,1.626-1.598,2.767v4.842c0.001,1.141,0.61,2.196,1.598,2.767l4.192,2.42c0.989,0.571,2.206,0.571,3.196,0
			l4.192-2.42c0.988-0.571,1.597-1.626,1.597-2.767v-4.842C61.253,92.16,60.644,91.105,59.656,90.534"/>
		<path clip-path="url(#SVGID_8_)" fill="#FFFFFF" d="M115.903,58.06l-4.192-2.42c-0.99-0.571-2.207-0.571-3.196,0l-4.192,2.42
			c-0.988,0.571-1.597,1.626-1.598,2.767v4.842c0.001,1.141,0.61,2.196,1.598,2.767l4.192,2.42c0.989,0.571,2.206,0.571,3.196,0
			l4.192-2.42c0.988-0.571,1.597-1.626,1.597-2.767v-4.842C117.5,59.686,116.891,58.63,115.903,58.06"/>
		<path clip-path="url(#SVGID_8_)" fill="#FFFFFF" d="M115.903,90.534l-4.192-2.42c-0.99-0.571-2.207-0.571-3.196,0l-4.192,2.42
			c-0.988,0.571-1.597,1.626-1.598,2.767v4.842c0.001,1.141,0.61,2.196,1.598,2.767l4.192,2.42c0.989,0.571,2.206,0.571,3.196,0
			l4.192-2.42c0.988-0.571,1.597-1.626,1.597-2.767v-4.842C117.5,92.16,116.891,91.105,115.903,90.534"/>
		<path clip-path="url(#SVGID_8_)" fill="#FFFFFF" d="M104.228,57.138c-1.503,0.014-4.494-1.047-7.672-2.881
			c-3.178-1.835-5.593-3.895-6.332-5.204c-0.768-1.362-0.819-3.604-0.848-4.464l-2.961,5.171l-0.018-0.011l-2.812,4.869
			c0.76-0.405,2.727-1.482,4.291-1.497c1.503-0.015,4.494,1.047,7.672,2.881c3.178,1.835,5.592,3.895,6.331,5.204
			c0.769,1.362,0.82,3.604,0.849,4.464l3.164-5.481l0.088-0.153l2.538-4.395C107.758,56.046,105.791,57.123,104.228,57.138"/>
		<path clip-path="url(#SVGID_8_)" fill="#FFFFFF" d="M80.391,39.402l-4.192,2.42c-0.989,0.572-1.598,1.627-1.598,2.768v4.84
			c0,1.142,0.609,2.196,1.597,2.768l4.193,2.421c0.99,0.57,2.207,0.57,3.196-0.001l4.192-2.42c0.988-0.571,1.597-1.625,1.598-2.768
			v-4.84c0-1.141-0.609-2.196-1.598-2.767l-4.193-2.421C82.597,38.832,81.379,38.831,80.391,39.402"/>
		<path clip-path="url(#SVGID_8_)" fill="#FFFFFF" d="M73.755,49.053c-0.739,1.309-3.154,3.369-6.331,5.204
			c-3.178,1.834-6.17,2.895-7.673,2.881c-1.563-0.015-3.531-1.092-4.29-1.497l2.998,5.149l-0.018,0.011l2.811,4.869
			c0.028-0.86,0.079-3.102,0.848-4.464c0.739-1.309,3.154-3.369,6.331-5.204c3.178-1.834,6.17-2.896,7.673-2.881
			c1.563,0.015,3.531,1.092,4.29,1.497l-3.164-5.481l-0.089-0.152l-2.538-4.396C74.576,45.449,74.524,47.69,73.755,49.053"/>
		<path clip-path="url(#SVGID_8_)" fill="#FFFFFF" d="M104.228,101.822c-1.503-0.015-4.494,1.047-7.672,2.881
			c-3.178,1.835-5.593,3.895-6.332,5.204c-0.768,1.362-0.819,3.604-0.848,4.464l-2.961-5.171l-0.018,0.011l-2.812-4.869
			c0.76,0.405,2.727,1.482,4.291,1.497c1.503,0.014,4.494-1.047,7.672-2.881c3.178-1.835,5.592-3.895,6.331-5.204
			c0.769-1.362,0.82-3.604,0.849-4.464l3.164,5.481l0.088,0.153l2.538,4.395C107.758,102.914,105.791,101.837,104.228,101.822"/>
		<path clip-path="url(#SVGID_8_)" fill="#FFFFFF" d="M80.391,119.558l-4.192-2.42c-0.989-0.572-1.598-1.627-1.598-2.768v-4.84
			c0-1.142,0.609-2.196,1.597-2.768l4.193-2.421c0.99-0.57,2.207-0.57,3.196,0.001l4.192,2.42c0.988,0.571,1.597,1.625,1.598,2.767
			v4.841c0,1.141-0.609,2.196-1.598,2.767l-4.193,2.421C82.597,120.128,81.379,120.129,80.391,119.558"/>
		<path clip-path="url(#SVGID_8_)" fill="#FFFFFF" d="M73.755,109.907c-0.739-1.309-3.154-3.369-6.331-5.204
			c-3.178-1.834-6.17-2.895-7.673-2.881c-1.563,0.015-3.531,1.092-4.29,1.497l2.998-5.149l-0.018-0.011l2.811-4.869
			c0.028,0.86,0.079,3.102,0.848,4.464c0.739,1.309,3.154,3.369,6.331,5.204c3.178,1.834,6.17,2.896,7.673,2.881
			c1.563-0.015,3.531-1.092,4.29-1.497l-3.164,5.481l-0.089,0.152l-2.538,4.396C74.576,113.511,74.524,111.27,73.755,109.907"/>
		<polygon clip-path="url(#SVGID_8_)" fill="#FFFFFF" points="103.903,81.869 101.706,73.698 97.833,73.698 97.833,85.262 
			100.292,85.262 100.292,76.258 102.805,85.262 105.002,85.262 107.514,76.502 107.514,85.262 109.972,85.262 109.972,73.698 
			106.101,73.698 		"/>
		<polygon clip-path="url(#SVGID_8_)" fill="#FFFFFF" points="82.164,81.746 77.192,73.698 74.367,73.698 74.367,85.262 
			76.826,85.262 76.826,77.025 81.954,85.262 84.623,85.262 84.623,73.698 82.164,73.698 		"/>
		<rect x="70.525" y="73.698" clip-path="url(#SVGID_8_)" fill="#FFFFFF" width="2.669" height="11.564"/>
		<polygon clip-path="url(#SVGID_8_)" fill="#FFFFFF" points="133.304,73.698 133.304,81.746 128.332,73.698 125.507,73.698 
			125.507,85.262 127.966,85.262 127.966,77.026 133.094,85.262 135.763,85.262 135.763,73.698 		"/>
		<path clip-path="url(#SVGID_8_)" fill="#FFFFFF" d="M62.542,76.623c0.457-0.504,1.116-0.821,1.85-0.821
			c1.198,0,2.199,0.845,2.44,1.971l2.541-0.585c-0.713-2.12-2.717-3.647-5.078-3.647c-2.09,0-3.896,1.201-4.779,2.947
			c-0.045,0.085-0.087,0.174-0.128,0.266c-0.013,0.03-0.027,0.06-0.04,0.09c-0.052,0.127-0.101,0.261-0.146,0.401
			c-0.019,0.057-0.035,0.115-0.052,0.173c-0.03,0.106-0.057,0.214-0.083,0.325c-0.007,0.032-0.016,0.064-0.023,0.097
			c-0.107,0.502-0.168,1.056-0.168,1.64c0,1.324,0.308,2.496,0.784,3.24c0.926,1.601,2.653,2.68,4.635,2.68
			c2.361,0,4.365-1.526,5.078-3.646l-2.541-0.585c-0.241,1.126-1.242,1.971-2.44,1.971c-0.671,0-1.279-0.265-1.728-0.695
			c-0.002-0.002-0.004-0.004-0.005-0.006c-0.633-0.6-1.057-1.705-1.057-2.968c0-1.175,0.367-2.212,0.927-2.835
			C62.534,76.631,62.539,76.626,62.542,76.623"/>
		<path clip-path="url(#SVGID_8_)" fill="#FFFFFF" d="M121.805,80.81c0,0.628-0.335,1.208-0.878,1.522l-2.305,1.331
			c-0.272,0.157-0.575,0.235-0.878,0.235c-0.304,0-0.607-0.078-0.879-0.235l-2.306-1.331c-0.543-0.314-0.878-0.894-0.878-1.522
			v-2.661c0-0.628,0.335-1.208,0.878-1.522l2.306-1.331c0.272-0.157,0.575-0.236,0.879-0.236c0.303,0,0.606,0.079,0.878,0.236
			l2.305,1.331c0.272,0.157,0.491,0.381,0.643,0.643c0.152,0.263,0.235,0.565,0.235,0.879V80.81z M122.18,74.458l-2.306-1.331
			c-0.646-0.374-1.383-0.571-2.13-0.571s-1.485,0.198-2.132,0.571l-2.304,1.331c-1.315,0.759-2.132,2.173-2.132,3.691v2.661
			c0,1.518,0.817,2.932,2.131,3.691l2.305,1.331c0.647,0.374,1.385,0.571,2.132,0.571s1.484-0.197,2.13-0.571l2.306-1.331
			c1.314-0.758,2.131-2.173,2.131-3.691v-2.662c0-0.747-0.199-1.483-0.571-2.13C123.366,75.371,122.826,74.832,122.18,74.458"/>
	</g>
	<g clip-path="url(#SVGID_2_)">
		<defs>
			<path id="SVGID_11_" d="M116.865,83.663l-2.306-1.331c-0.543-0.314-0.878-0.894-0.878-1.521v-2.662
				c0-0.628,0.335-1.208,0.878-1.521l2.306-1.332c0.271-0.157,0.575-0.235,0.878-0.235c0.304,0,0.606,0.079,0.878,0.235l2.306,1.332
				c0.272,0.156,0.491,0.38,0.643,0.642c0.152,0.263,0.235,0.565,0.235,0.879v2.662c0,0.627-0.335,1.207-0.878,1.521l-2.306,1.331
				c-0.272,0.157-0.574,0.235-0.878,0.235C117.44,83.898,117.136,83.82,116.865,83.663 M115.612,73.127l-2.304,1.331
				c-1.315,0.759-2.132,2.173-2.132,3.691v2.662c0,1.517,0.817,2.931,2.131,3.691l2.305,1.33c0.647,0.374,1.384,0.571,2.131,0.571
				s1.485-0.197,2.131-0.571l2.306-1.33c1.314-0.759,2.13-2.174,2.13-3.691v-2.663c0-0.747-0.198-1.483-0.571-2.13
				c-0.373-0.647-0.913-1.186-1.559-1.56l-2.306-1.331c-0.646-0.374-1.384-0.571-2.131-0.571S116.259,72.754,115.612,73.127"/>
		</defs>
		<clipPath id="SVGID_12_">
			<use xlink:href="#SVGID_11_"  overflow="visible"/>
		</clipPath>
		<g clip-path="url(#SVGID_12_)">
			<defs>
				<rect id="SVGID_13_" x="96.947" y="63.985" width="13.478" height="14.21"/>
			</defs>
			<clipPath id="SVGID_14_">
				<use xlink:href="#SVGID_13_"  overflow="visible"/>
			</clipPath>
			<g clip-path="url(#SVGID_14_)">
				<defs>
					<rect id="SVGID_15_" x="96.947" y="63.985" width="13.478" height="14.21"/>
				</defs>
				<clipPath id="SVGID_16_">
					<use xlink:href="#SVGID_15_"  overflow="visible"/>
				</clipPath>
				
					<radialGradient id="SVGID_17_" cx="4.882813e-004" cy="800" r="0.9997" gradientTransform="matrix(6.9247 0 0 7.3005 103.6875 -5769.2871)" gradientUnits="userSpaceOnUse">
					<stop  offset="0" style="stop-color:#00AB9F"/>
					<stop  offset="0.538" style="stop-color:#00AB9F"/>
					<stop  offset="0.8165" style="stop-color:#084B97"/>
					<stop  offset="0.866" style="stop-color:#074F9A"/>
					<stop  offset="0.9175" style="stop-color:#055CA4"/>
					<stop  offset="0.9697" style="stop-color:#0270B5"/>
					<stop  offset="1" style="stop-color:#0080C1"/>
				</radialGradient>
				<rect x="96.947" y="63.985" clip-path="url(#SVGID_16_)" fill="url(#SVGID_17_)" width="13.478" height="14.21"/>
			</g>
		</g>
	</g>
	<g clip-path="url(#SVGID_2_)">
		<defs>
			<rect id="SVGID_18_" width="1300" height="800"/>
		</defs>
		<clipPath id="SVGID_19_">
			<use xlink:href="#SVGID_18_"  overflow="visible"/>
		</clipPath>
		<rect x="70.525" y="73.698" clip-path="url(#SVGID_19_)" fill="#FFFFFF" width="2.669" height="11.564"/>
		<path clip-path="url(#SVGID_19_)" fill="#FFFFFF" d="M89.58,80.762l1.591-4.773l1.758,4.773H89.58z M92.772,73.698h-3.14
			l-4.291,11.564h2.826l0.837-2.512H93.4l0.837,2.512h2.878L92.772,73.698z"/>
		<polygon clip-path="url(#SVGID_19_)" fill="#FFFFFF" points="103.903,81.869 101.706,73.698 97.833,73.698 97.833,85.262 
			100.292,85.262 100.292,76.258 102.805,85.262 105.002,85.262 107.514,76.502 107.514,85.262 109.972,85.262 109.972,73.698 
			106.101,73.698 		"/>
		<polygon clip-path="url(#SVGID_19_)" fill="#FFFFFF" points="133.304,81.746 128.332,73.698 125.507,73.698 125.507,85.262 
			127.966,85.262 127.966,77.025 133.094,85.262 135.763,85.262 135.763,73.698 133.304,73.698 		"/>
		<polygon clip-path="url(#SVGID_19_)" fill="#FFFFFF" points="82.164,81.746 77.192,73.698 74.367,73.698 74.367,85.262 
			76.826,85.262 76.826,77.025 81.954,85.262 84.623,85.262 84.623,73.698 82.164,73.698 		"/>
		<path clip-path="url(#SVGID_19_)" fill="#FFFFFF" d="M62.542,76.623c0.457-0.504,1.116-0.821,1.85-0.821
			c1.198,0,2.199,0.845,2.44,1.971l2.541-0.585c-0.713-2.12-2.717-3.647-5.078-3.647c-2.09,0-3.896,1.201-4.779,2.947
			c-0.045,0.085-0.087,0.174-0.128,0.266c-0.013,0.03-0.027,0.06-0.04,0.09c-0.052,0.127-0.101,0.261-0.146,0.401
			c-0.019,0.057-0.035,0.115-0.052,0.173c-0.03,0.106-0.057,0.214-0.083,0.325c-0.007,0.032-0.016,0.064-0.023,0.097
			c-0.107,0.502-0.168,1.056-0.168,1.64c0,1.324,0.308,2.496,0.784,3.24c0.926,1.601,2.653,2.68,4.635,2.68
			c2.361,0,4.365-1.526,5.078-3.646l-2.541-0.585c-0.241,1.126-1.242,1.971-2.44,1.971c-0.671,0-1.279-0.265-1.728-0.695
			c-0.002-0.002-0.004-0.004-0.005-0.006c-0.633-0.6-1.057-1.705-1.057-2.968c0-1.175,0.367-2.212,0.927-2.835
			C62.534,76.631,62.539,76.626,62.542,76.623"/>
		<path clip-path="url(#SVGID_19_)" fill="none" stroke="#FFFFFF" d="M1192.419,18.941c-13.556,0-24.545,10.988-24.545,24.543
			c0,13.559,10.989,24.547,24.545,24.547h73.146c13.557,0,24.545-10.988,24.545-24.547c0-13.555-10.988-24.543-24.545-24.543
			H1192.419z"/>
		<path clip-path="url(#SVGID_19_)" fill="#FFFFFF" d="M1243.648,39.312c-0.229,0.156-0.343,0.396-0.343,0.72v5.202
			c0,1.212,0.313,2.127,0.937,2.745c0.624,0.618,1.458,0.927,2.502,0.927c0.264,0,0.537-0.027,0.818-0.081
			c0.282-0.054,0.553-0.135,0.811-0.243c0.258-0.108,0.495-0.246,0.711-0.414s0.396-0.372,0.54-0.612h0.036v0.378
			c0,0.312,0.111,0.543,0.333,0.693c0.222,0.15,0.471,0.225,0.747,0.225c0.275,0,0.524-0.075,0.747-0.225
			c0.222-0.15,0.333-0.381,0.333-0.693v-7.902c0-0.324-0.117-0.564-0.352-0.72c-0.233-0.156-0.495-0.234-0.783-0.234
			c-0.3,0-0.563,0.078-0.792,0.234c-0.228,0.156-0.342,0.396-0.342,0.72v4.572c0,0.444-0.069,0.816-0.207,1.116
			c-0.138,0.3-0.309,0.54-0.513,0.72c-0.204,0.18-0.429,0.306-0.675,0.378c-0.246,0.072-0.483,0.108-0.711,0.108
			c-0.265,0-0.511-0.033-0.738-0.099s-0.426-0.18-0.594-0.342s-0.3-0.384-0.396-0.666c-0.096-0.282-0.144-0.639-0.144-1.071v-4.716
			c0-0.324-0.117-0.564-0.352-0.72c-0.233-0.156-0.495-0.234-0.783-0.234C1244.14,39.078,1243.876,39.156,1243.648,39.312
			 M1236.485,39.051c-0.288,0.054-0.563,0.135-0.819,0.243c-0.259,0.108-0.495,0.249-0.711,0.423s-0.396,0.375-0.54,0.603h-0.036
			v-0.324c0-0.312-0.112-0.543-0.333-0.693c-0.223-0.15-0.472-0.225-0.747-0.225c-0.277,0-0.525,0.075-0.747,0.225
			c-0.223,0.15-0.334,0.381-0.334,0.693v7.902c0,0.324,0.118,0.564,0.353,0.72c0.233,0.156,0.494,0.234,0.782,0.234
			c0.3,0,0.563-0.078,0.792-0.234c0.228-0.156,0.343-0.396,0.343-0.72v-4.626c0-0.444,0.067-0.816,0.207-1.116
			c0.137-0.3,0.311-0.54,0.521-0.72c0.209-0.18,0.441-0.306,0.693-0.378c0.252-0.072,0.492-0.108,0.72-0.108
			c0.263,0,0.513,0.033,0.747,0.099s0.434,0.18,0.603,0.342c0.168,0.162,0.3,0.384,0.396,0.666c0.095,0.282,0.144,0.639,0.144,1.071
			v4.77c0,0.324,0.117,0.564,0.352,0.72c0.233,0.156,0.494,0.234,0.783,0.234c0.299,0,0.563-0.078,0.792-0.234
			c0.227-0.156,0.342-0.396,0.342-0.72v-5.256c0-1.212-0.313-2.127-0.937-2.745c-0.625-0.618-1.465-0.927-2.52-0.927
			C1237.054,38.97,1236.773,38.997,1236.485,39.051 M1222.427,40.167c-0.804,0.798-1.206,1.977-1.206,3.537v0.468
			c0,1.572,0.396,2.751,1.188,3.537c0.792,0.786,1.907,1.179,3.348,1.179c0.732,0,1.368-0.057,1.908-0.171
			c0.54-0.114,1.038-0.285,1.494-0.513c0.239-0.12,0.39-0.297,0.45-0.531c0.06-0.234,0.035-0.477-0.072-0.729
			c-0.108-0.252-0.276-0.417-0.504-0.495c-0.229-0.078-0.462-0.063-0.702,0.045c-0.396,0.18-0.783,0.309-1.161,0.387
			s-0.819,0.117-1.323,0.117c-0.804,0-1.407-0.204-1.809-0.612c-0.402-0.408-0.604-0.936-0.604-1.584v-0.036h5.112
			c0.576,0,0.975-0.108,1.197-0.324c0.222-0.216,0.333-0.606,0.333-1.17v-0.036c0-0.684-0.105-1.29-0.315-1.818
			c-0.21-0.528-0.507-0.972-0.891-1.332c-0.384-0.36-0.84-0.636-1.368-0.828s-1.116-0.288-1.764-0.288
			C1224.335,38.97,1223.23,39.369,1222.427,40.167 M1227.395,41.427c0.336,0.39,0.504,0.879,0.504,1.467v0.18h-4.464v-0.126
			c0-0.612,0.189-1.116,0.567-1.512c0.378-0.396,0.945-0.594,1.701-0.594C1226.495,40.842,1227.059,41.037,1227.395,41.427
			 M1208.333,39.366c-0.468,0.264-0.834,0.642-1.098,1.134v-0.504c0-0.312-0.111-0.543-0.333-0.693
			c-0.223-0.15-0.472-0.225-0.747-0.225c-0.276,0-0.522,0.075-0.738,0.225s-0.324,0.381-0.324,0.693v7.902
			c0,0.324,0.117,0.564,0.352,0.72c0.233,0.156,0.495,0.234,0.782,0.234c0.301,0,0.564-0.078,0.792-0.234
			c0.229-0.156,0.343-0.396,0.343-0.72V43.02c0-0.684,0.168-1.194,0.504-1.53s0.773-0.504,1.313-0.504
			c0.252,0,0.486,0.033,0.702,0.099c0.216,0.066,0.405,0.183,0.567,0.351c0.162,0.168,0.291,0.39,0.387,0.666
			c0.096,0.276,0.144,0.624,0.144,1.044v4.752c0,0.324,0.117,0.564,0.352,0.72c0.234,0.156,0.495,0.234,0.783,0.234
			c0.3,0,0.563-0.078,0.792-0.234c0.228-0.156,0.342-0.396,0.342-0.72V43.11c0-0.408,0.054-0.75,0.162-1.026
			c0.107-0.276,0.246-0.495,0.414-0.657s0.362-0.276,0.585-0.342c0.222-0.066,0.44-0.099,0.656-0.099c0.24,0,0.469,0.03,0.685,0.09
			s0.408,0.171,0.576,0.333c0.168,0.162,0.3,0.387,0.396,0.675s0.145,0.654,0.145,1.098v4.716c0,0.324,0.117,0.564,0.351,0.72
			c0.234,0.156,0.495,0.234,0.783,0.234c0.3,0,0.563-0.078,0.792-0.234c0.228-0.156,0.342-0.396,0.342-0.72v-5.184
			c0-0.624-0.093-1.17-0.279-1.638c-0.186-0.468-0.435-0.858-0.746-1.17c-0.313-0.312-0.676-0.546-1.09-0.702
			c-0.414-0.156-0.849-0.234-1.305-0.234c-0.756,0-1.371,0.126-1.845,0.378c-0.475,0.252-0.886,0.63-1.233,1.134
			c-0.18-0.456-0.513-0.822-0.999-1.098c-0.485-0.276-1.035-0.414-1.646-0.414C1209.353,38.97,1208.801,39.102,1208.333,39.366"/>
		<g opacity="0.25" clip-path="url(#SVGID_19_)">
			<g>
				<defs>
					<rect id="SVGID_20_" x="500.783" y="193.444" width="277.422" height="239.553"/>
				</defs>
				<clipPath id="SVGID_21_">
					<use xlink:href="#SVGID_20_"  overflow="visible"/>
				</clipPath>
				<g clip-path="url(#SVGID_21_)">
					<defs>
						<rect id="SVGID_22_" x="500.783" y="193.444" width="277.422" height="239.553"/>
					</defs>
					<clipPath id="SVGID_23_">
						<use xlink:href="#SVGID_22_"  overflow="visible"/>
					</clipPath>
					<path clip-path="url(#SVGID_23_)" fill="#C6C6C6" d="M553.362,362.747l86.132,49.527l86.133-49.527v-99.053l-86.133-49.526
						l-86.132,49.526V362.747z M639.494,413.475l-0.261-0.15l-86.916-49.977V263.094l0.261-0.151l86.916-49.976l0.261,0.15
						l86.916,49.977v100.254l-0.261,0.15L639.494,413.475z"/>
					<path clip-path="url(#SVGID_23_)" fill="#C6C6C6" d="M571.241,430.957h136.505l68.252-117.736l-68.252-117.737H571.241
						l-68.253,117.737L571.241,430.957z M708.351,431.997H570.638l-0.151-0.26l-68.705-118.516l0.151-0.261l68.705-118.516h137.712
						l0.149,0.26l68.704,118.517l-0.15,0.26L708.351,431.997z"/>
					<rect x="638.971" y="194.964" clip-path="url(#SVGID_23_)" fill="#C6C6C6" width="1.045" height="236.514"/>
					<polygon clip-path="url(#SVGID_23_)" fill="#C6C6C6" points="742.063,372.8 536.401,254.544 536.924,253.642 742.586,371.9 
											"/>
					<polygon clip-path="url(#SVGID_23_)" fill="#C6C6C6" points="536.924,372.8 536.401,371.9 742.063,253.642 742.587,254.544 
											"/>
					<polygon clip-path="url(#SVGID_23_)" fill="#C6C6C6" points="707.597,431.738 570.487,195.224 571.393,194.704 708.5,431.219 
											"/>
					<rect x="502.386" y="312.7" clip-path="url(#SVGID_23_)" fill="#C6C6C6" width="274.217" height="1.041"/>
					<polygon clip-path="url(#SVGID_23_)" fill="#C6C6C6" points="571.392,431.738 570.487,431.219 707.596,194.704 708.5,195.224 
											"/>
				</g>
			</g>
		</g>
		<path clip-path="url(#SVGID_19_)" fill="#FFFFFF" d="M830.023,429.577l0.56,1.399l-0.021-1.399v-12.18h1.7v15.14h-2.68
			l-5.84-12.18l-0.561-1.4l0.021,1.4v12.18h-1.7v-15.14h2.68L830.023,429.577z M812.043,431.197c3.14,0,4.76-2.66,4.76-6.221
			c0-3.579-1.62-6.239-4.76-6.239s-4.76,2.66-4.76,6.239C807.283,428.537,808.903,431.197,812.043,431.197 M812.043,432.717
			c-4.2,0-6.64-3.3-6.64-7.72s2.439-7.78,6.64-7.78s6.64,3.36,6.64,7.78S816.243,432.717,812.043,432.717 M800.624,420.417
			l-4.4,12.12h-1.46l-4.38-12.12l-0.399-1.479l0.04,1.479v12.12h-1.641v-15.14h2.58l4.22,11.579l0.32,1.2l0.34-1.2l4.221-11.579
			h2.56v15.14h-1.64v-12.12l0.04-1.479L800.624,420.417z M780.004,418.657l-0.4,1.399l-2.159,6.721h5.12l-2.16-6.721
			L780.004,418.657z M781.104,417.397l5.181,15.14h-1.82l-1.36-4.32h-6.18l-1.38,4.32h-1.82l5.16-15.14H781.104z M769.424,429.577
			l0.561,1.399l-0.021-1.399v-12.18h1.7v15.14h-2.68l-5.841-12.18l-0.56-1.4l0.02,1.4v12.18h-1.699v-15.14h2.68L769.424,429.577z
			 M757.524,432.537h-1.761v-15.141h1.761V432.537z M753.104,429.317c0.16-0.12,0.261-0.08,0.261,0.08v1.76
			c-1.24,1.06-2.84,1.56-4.721,1.56c-4.319,0-6.859-3.12-6.859-7.74c0-4.819,3-7.76,7.1-7.76c1.74,0,3.141,0.34,4.36,1.3v1.841
			c0,0.18-0.12,0.22-0.26,0.08c-1.04-1.141-2.36-1.721-3.98-1.721c-3,0-5.36,2.181-5.36,6.16c0,4.14,1.9,6.3,5.301,6.3
			C750.544,431.177,751.944,430.537,753.104,429.317 M735.815,430.003v1.387h-16.15v-1.387h3.952v-3.211h1.634v3.211h5.111v-3.211
			h1.634v3.211H735.815z M731.825,421.985c0-1.71-1.35-3.136-4.085-3.136c-2.736,0-4.085,1.426-4.085,3.136s1.349,3.173,4.085,3.173
			C730.476,425.158,731.825,423.695,731.825,421.985 M733.497,421.985c0,2.641-2.242,4.56-5.757,4.56
			c-3.516,0-5.757-1.919-5.757-4.56c0-2.642,2.241-4.561,5.757-4.561C731.255,417.425,733.497,419.344,733.497,421.985
			 M703.344,430.345l-1.311-0.987c3.191-2.718,4.408-6.707,4.104-11.553h1.615c0.02,1.577-0.057,3.021-0.266,4.39
			c0.722,2.641,2.223,4.883,3.971,6.593l-1.349,1.007c-1.273-1.235-2.395-3.04-3.192-5.13
			C706.232,426.849,705.111,428.711,703.344,430.345 M712.104,416.912h1.614v16.72h-1.614v-9.747h-2.642v-1.425h2.642V416.912z
			 M717.252,434.069h-1.634v-17.348h1.634V434.069z M688.087,428.559h2.642c2.641,0,4.939-0.418,6.326-0.702v1.349
			c-1.501,0.38-4.218,0.741-6.555,0.741h-4.085v-6.878h5.909v-3.554h-5.947v-1.405h7.619v6.346h-5.909V428.559z M698.195,416.722
			h1.634v17.348h-1.634V416.722z M671.842,423.353h2.546v-2.508h-2.546V423.353z M670.379,417.121h1.482v2.451h2.488v-2.451h1.426
			v7.562h-5.396V417.121z M678.473,423.353h2.471v-2.508h-2.471V423.353z M677.086,417.121h1.425v2.451h2.413v-2.451h1.482v7.562
			h-5.32V417.121z M668.251,428.179v-1.405h16.15v1.405h-7.068v5.795h-1.672v-5.795H668.251z M649.061,434.069v-4.01h9.747v-1.425
			h-9.747v-1.33h11.362v4.01h-9.747v1.425h10.203v1.33H649.061z M663.007,426.089h-16.53v-1.33h16.53V426.089z M649.137,417.14
			h11.077v3.876h-9.442v1.33h9.86v1.273h-11.495V419.8h9.461v-1.311h-9.461V417.14z M636.768,424.246
			c1.064,1.653,2.546,3.306,4.218,4.503l-1.216,1.178c-1.52-1.159-2.793-2.679-3.876-4.332c-1.463,2.033-3.325,3.781-5.282,4.902
			l-1.102-1.103c4.047-2.185,6.973-6.802,7.296-9.822c-1.425,0.057-2.812,0.057-4.218,0.057h-2.052v-1.387h3.059
			c1.615,0,3.287,0,5.073-0.038C638.592,420.256,637.889,422.346,636.768,424.246 M642.335,416.722h1.634v17.348h-1.634V416.722z
			 M617.198,429.262l-3.686-0.019v-11.286h1.691v9.823l2.223,0.019c2.546,0,4.788-0.418,6.118-0.722v1.425
			C622.1,428.882,619.459,429.262,617.198,429.262 M619.991,423.581v-1.425h5.206v-5.435h1.634v17.348h-1.634v-10.488H619.991z
			 M596.052,430.269l-1.179-1.045c3.098-2.223,5.416-5.699,5.017-11.438h1.728c0.038,1.653-0.113,3.154-0.399,4.521
			c0.912,2.604,2.622,4.826,4.922,6.365l-1.065,1.216c-1.899-1.33-3.438-3.191-4.483-5.49
			C599.623,426.868,598.065,428.806,596.052,430.269 M608.06,416.722h1.634v17.348h-1.634V416.722z M585.754,430.744
			c0-1.026-0.988-2.052-4.104-2.052c-3.135,0-4.123,1.025-4.123,2.052c0,0.969,0.988,2.071,4.123,2.071
			C584.766,432.815,585.754,431.713,585.754,430.744 M587.521,430.744c0,1.938-1.995,3.477-5.871,3.477
			c-3.895,0-5.909-1.539-5.909-3.477c0-1.977,2.014-3.42,5.909-3.42C585.526,427.324,587.521,428.768,587.521,430.744
			 M581.327,420.997v3.534h8.683v1.406h-16.53v-1.406h6.156v-3.534H581.327z M575.779,417.197h11.495
			c-0.038,2.432-0.285,4.769-0.513,6.251h-1.615c0.247-1.597,0.437-3.23,0.475-4.826h-9.842V417.197z M569.414,430.858
			c0-1.046-1.254-2.033-4.066-2.033c-2.755,0-4.028,0.987-4.028,2.033c0,1.025,1.273,1.976,4.028,1.976
			C568.16,432.834,569.414,431.884,569.414,430.858 M571.124,430.858c0,1.919-1.938,3.362-5.757,3.362
			c-3.8,0-5.738-1.463-5.738-3.382c0-1.938,1.938-3.382,5.738-3.382C569.186,427.457,571.124,428.92,571.124,430.858
			 M565.823,421.871v-1.444h3.515v-3.705h1.634v10.394h-1.634v-5.244H565.823z M563.068,417.159c0.019,1.14-0.114,2.185-0.361,3.153
			c1.045,1.995,2.508,3.421,4.617,4.484l-1.007,1.159c-1.805-0.931-3.249-2.318-4.237-3.952c-0.912,1.919-2.413,3.42-4.294,4.465
			l-1.121-1.083c3.249-1.843,4.921-4.445,4.712-8.227H563.068z M541.028,423.942c0-2.793-0.551-4.731-2.09-4.731
			c-1.482,0-1.976,1.938-1.976,4.731s0.494,4.73,1.976,4.73C540.477,428.673,541.028,426.735,541.028,423.942 M544.505,416.912
			h1.634v16.72h-1.634v-9.386h-1.881c-0.076,3.8-1.444,5.833-3.667,5.833s-3.61-2.147-3.61-6.137c0-3.99,1.387-6.138,3.61-6.138
			c2.052,0,3.382,1.748,3.629,5.017h1.919V416.912z M549.673,434.069h-1.634v-17.348h1.634V434.069z M526.626,420.085
			c1.425,2.679,3.61,4.636,6.422,5.567l-1.064,1.234c-2.413-0.854-4.598-2.773-5.985-5.11c-1.197,2.375-3.439,4.123-5.966,5.054
			l-1.083-1.254c3.838-1.368,6.327-3.725,6.232-8.037h1.691C526.911,418.432,526.835,419.287,526.626,420.085 M533.96,431.561
			h-16.15v-1.387h16.15V431.561z M506.049,429.072h-4.256v-11.097h1.691v9.634h2.793c2.546,0,4.788-0.418,6.118-0.723v1.426
			C510.951,428.692,508.31,429.072,506.049,429.072 M513.478,416.722h1.634v17.348h-1.634V416.722z M493.129,423.049
			c1.634,1.026,3.325,1.919,5.567,2.717l-1.064,1.292c-2.014-0.778-3.914-1.881-5.586-3.135c-1.881,1.368-4.104,2.489-6.346,3.344
			l-1.007-1.292c4.313-1.387,8.284-4.198,9.424-6.422c-1.444,0.076-2.831,0.076-4.237,0.076h-3.629v-1.425h5.206
			c1.634,0,3.306,0,5.073-0.038C496.055,419.971,494.801,421.624,493.129,423.049 M499.684,431.485h-16.15v-1.388h16.15V431.485z
			 M473.958,423.714h-4.845v4.237h4.845V423.714z M467.46,429.338v-11.305h1.672v4.294h4.807v-4.294h1.615v11.305H467.46z
			 M479.202,416.722h1.634v17.348h-1.634V416.722z"/>
		<path clip-path="url(#SVGID_19_)" fill="none" stroke="#FFFFFF" d="M610.97,560.133c-13.556,0-24.545,10.988-24.545,24.543
			c0,13.559,10.989,24.547,24.545,24.547h73.146c13.556,0,24.545-10.988,24.545-24.547c0-13.555-10.989-24.543-24.545-24.543H610.97
			z"/>
		<path clip-path="url(#SVGID_19_)" fill="#FFFFFF" d="M686.315,580.986c-0.288,0.072-0.492,0.282-0.612,0.63l-2.232,6.444h-0.018
			l-2.25-6.444c-0.061-0.18-0.145-0.32-0.252-0.423c-0.108-0.102-0.231-0.174-0.369-0.216s-0.279-0.054-0.423-0.036
			c-0.145,0.019-0.288,0.051-0.433,0.099c-0.275,0.097-0.494,0.265-0.656,0.505c-0.162,0.239-0.178,0.521-0.045,0.846l3.275,8.244
			l-0.972,2.34c-0.108,0.276-0.108,0.521,0,0.738c0.108,0.216,0.306,0.384,0.594,0.504s0.564,0.146,0.828,0.081
			c0.264-0.066,0.456-0.249,0.576-0.55l4.5-11.43c0.12-0.312,0.104-0.588-0.045-0.828c-0.15-0.239-0.363-0.401-0.64-0.485
			C686.879,580.921,686.603,580.914,686.315,580.986 M672.833,580.905c-0.288,0.055-0.562,0.135-0.819,0.243
			s-0.495,0.249-0.711,0.423s-0.396,0.375-0.54,0.604h-0.036v-0.324c0-0.313-0.11-0.543-0.333-0.693
			c-0.222-0.149-0.471-0.225-0.747-0.225c-0.275,0-0.524,0.075-0.746,0.225c-0.223,0.15-0.333,0.381-0.333,0.693v7.902
			c0,0.323,0.116,0.563,0.351,0.72s0.495,0.233,0.783,0.233c0.3,0,0.563-0.077,0.792-0.233c0.228-0.156,0.342-0.396,0.342-0.72
			v-4.626c0-0.444,0.069-0.816,0.207-1.116s0.312-0.54,0.522-0.721c0.21-0.18,0.44-0.306,0.692-0.378
			c0.252-0.071,0.492-0.107,0.72-0.107c0.265,0,0.514,0.033,0.747,0.099c0.234,0.066,0.436,0.181,0.604,0.342
			c0.168,0.162,0.3,0.385,0.396,0.666c0.097,0.282,0.145,0.64,0.145,1.071v4.771c0,0.323,0.117,0.563,0.351,0.72
			c0.234,0.156,0.495,0.233,0.783,0.233c0.3,0,0.564-0.077,0.792-0.233c0.229-0.156,0.342-0.396,0.342-0.72v-5.257
			c0-1.212-0.312-2.127-0.936-2.744c-0.624-0.618-1.464-0.928-2.521-0.928C673.403,580.824,673.121,580.852,672.833,580.905
			 M660.188,581.086c-0.581,0.174-1.089,0.404-1.521,0.692c-0.24,0.156-0.375,0.357-0.405,0.604
			c-0.029,0.246,0.021,0.482,0.153,0.711c0.144,0.239,0.333,0.393,0.567,0.459c0.233,0.065,0.471,0.026,0.711-0.117
			c0.72-0.432,1.487-0.648,2.304-0.648c0.612,0,1.059,0.136,1.341,0.405c0.282,0.271,0.423,0.711,0.423,1.323v0.252h-2.268
			c-0.708,0-1.299,0.072-1.773,0.216c-0.474,0.145-0.857,0.345-1.151,0.604c-0.294,0.258-0.504,0.561-0.631,0.908
			c-0.125,0.349-0.188,0.727-0.188,1.135v0.287c0,0.9,0.291,1.597,0.873,2.089c0.582,0.491,1.413,0.737,2.493,0.737
			c0.312,0,0.624-0.036,0.936-0.107c0.313-0.072,0.588-0.168,0.828-0.288c0.252-0.132,0.468-0.276,0.648-0.433
			c0.18-0.155,0.317-0.336,0.414-0.54h0.018v0.469c0,0.3,0.105,0.519,0.315,0.656c0.21,0.139,0.446,0.207,0.711,0.207
			c0.264,0,0.501-0.068,0.711-0.207c0.21-0.138,0.314-0.356,0.314-0.656v-5.851c0-0.504-0.099-0.951-0.297-1.341
			s-0.474-0.72-0.828-0.99c-0.354-0.27-0.776-0.477-1.269-0.621c-0.492-0.144-1.026-0.216-1.603-0.216
			C661.379,580.824,660.77,580.911,660.188,581.086 M663.779,586.513v0.468c0,0.384-0.063,0.69-0.189,0.918
			c-0.126,0.229-0.333,0.426-0.621,0.594c-0.408,0.24-0.966,0.36-1.674,0.36c-0.9,0-1.35-0.348-1.35-1.044v-0.036
			c0-0.384,0.117-0.69,0.351-0.918c0.234-0.228,0.651-0.342,1.251-0.342H663.779z M653.375,583.479
			c0.313,0.474,0.468,1.179,0.468,2.115v0.359c0,1.908-0.672,2.862-2.016,2.862c-0.349,0-0.666-0.06-0.954-0.18
			s-0.534-0.276-0.738-0.468c-0.204-0.192-0.366-0.408-0.486-0.648s-0.18-0.486-0.18-0.738v-1.674c0-0.684,0.195-1.245,0.585-1.683
			c0.391-0.438,0.963-0.657,1.72-0.657C652.529,582.769,653.063,583.006,653.375,583.479 M651.485,580.888
			c-0.252,0.042-0.504,0.11-0.757,0.207c-0.252,0.096-0.491,0.228-0.72,0.396c-0.228,0.168-0.426,0.378-0.594,0.63v-0.27
			c0-0.313-0.111-0.543-0.333-0.693c-0.222-0.149-0.477-0.225-0.765-0.225c-0.276,0-0.525,0.075-0.747,0.225
			c-0.222,0.15-0.333,0.381-0.333,0.693v11.394c0,0.324,0.117,0.564,0.351,0.721c0.234,0.155,0.495,0.233,0.783,0.233
			c0.3,0,0.564-0.078,0.792-0.233c0.228-0.156,0.342-0.396,0.342-0.721v-3.653c0.264,0.348,0.612,0.627,1.044,0.837
			c0.433,0.21,0.954,0.314,1.566,0.314c0.6,0,1.143-0.099,1.629-0.297s0.902-0.495,1.251-0.891c0.348-0.396,0.618-0.892,0.81-1.485
			c0.192-0.594,0.288-1.281,0.288-2.061v-0.469c0-1.548-0.317-2.721-0.954-3.519c-0.636-0.798-1.607-1.197-2.916-1.197
			C651.983,580.824,651.737,580.846,651.485,580.888 M633.828,581.221c-0.468,0.264-0.835,0.642-1.098,1.134v-0.504
			c0-0.313-0.111-0.543-0.333-0.693c-0.223-0.149-0.471-0.225-0.747-0.225c-0.277,0-0.522,0.075-0.738,0.225
			c-0.216,0.15-0.324,0.381-0.324,0.693v7.902c0,0.323,0.117,0.563,0.351,0.72s0.495,0.233,0.783,0.233
			c0.299,0,0.564-0.077,0.792-0.233c0.227-0.156,0.342-0.396,0.342-0.72v-4.879c0-0.684,0.168-1.193,0.504-1.529
			c0.335-0.336,0.774-0.504,1.314-0.504c0.252,0,0.486,0.032,0.702,0.099s0.405,0.183,0.567,0.351
			c0.162,0.169,0.29,0.391,0.387,0.666c0.096,0.276,0.144,0.624,0.144,1.045v4.752c0,0.323,0.117,0.563,0.351,0.72
			c0.234,0.156,0.495,0.233,0.783,0.233c0.299,0,0.564-0.077,0.792-0.233c0.227-0.156,0.342-0.396,0.342-0.72v-4.788
			c0-0.408,0.054-0.75,0.162-1.026s0.245-0.495,0.414-0.657c0.168-0.162,0.362-0.275,0.585-0.342
			c0.222-0.066,0.441-0.099,0.657-0.099c0.24,0,0.468,0.029,0.684,0.09c0.216,0.06,0.407,0.171,0.576,0.333
			c0.168,0.162,0.299,0.387,0.396,0.675c0.096,0.288,0.144,0.654,0.144,1.098v4.717c0,0.323,0.117,0.563,0.351,0.72
			s0.495,0.233,0.783,0.233c0.299,0,0.564-0.077,0.792-0.233c0.227-0.156,0.342-0.396,0.342-0.72v-5.185
			c0-0.624-0.093-1.17-0.279-1.638c-0.187-0.468-0.435-0.858-0.747-1.17c-0.313-0.313-0.675-0.546-1.089-0.702
			c-0.414-0.156-0.849-0.234-1.305-0.234c-0.756,0-1.371,0.126-1.845,0.378c-0.475,0.252-0.885,0.63-1.233,1.135
			c-0.18-0.456-0.513-0.822-0.999-1.099c-0.486-0.275-1.035-0.414-1.647-0.414C634.847,580.824,634.296,580.956,633.828,581.221
			 M625.557,583.471c0.378,0.443,0.567,1.151,0.567,2.124v0.378c0,0.972-0.189,1.68-0.567,2.124
			c-0.378,0.443-0.975,0.666-1.791,0.666s-1.413-0.223-1.791-0.666c-0.378-0.444-0.567-1.152-0.567-2.124v-0.378
			c0-0.973,0.189-1.681,0.567-2.124c0.378-0.444,0.975-0.666,1.791-0.666S625.179,583.026,625.557,583.471 M620.346,582.021
			c-0.816,0.798-1.224,1.977-1.224,3.537v0.45c0,1.56,0.408,2.738,1.224,3.537c0.816,0.798,1.956,1.196,3.42,1.196
			c1.464,0,2.604-0.398,3.42-1.196c0.816-0.799,1.224-1.978,1.224-3.537v-0.45c0-1.561-0.408-2.739-1.224-3.537
			s-1.956-1.197-3.42-1.197C622.302,580.824,621.162,581.224,620.346,582.021 M610.77,577.963c-0.684,0.239-1.26,0.611-1.728,1.115
			s-0.825,1.149-1.071,1.936c-0.246,0.786-0.369,1.725-0.369,2.816v0.738c0,1.092,0.123,2.031,0.369,2.817
			c0.246,0.786,0.6,1.431,1.062,1.935c0.462,0.504,1.026,0.876,1.692,1.116s1.425,0.36,2.277,0.36c0.828,0,1.587-0.097,2.277-0.288
			c0.69-0.192,1.293-0.475,1.809-0.847c0.288-0.203,0.45-0.456,0.486-0.756c0.036-0.3-0.036-0.576-0.216-0.828
			s-0.402-0.398-0.666-0.44s-0.516,0.021-0.756,0.188c-0.42,0.276-0.855,0.483-1.305,0.621c-0.45,0.139-0.975,0.207-1.575,0.207
			c-1.056,0-1.842-0.333-2.358-0.999c-0.516-0.666-0.774-1.755-0.774-3.267v-0.378c0-1.548,0.27-2.649,0.81-3.304
			c0.54-0.653,1.308-0.98,2.304-0.98c0.576,0,1.062,0.051,1.458,0.153c0.396,0.102,0.786,0.267,1.17,0.494
			c0.252,0.156,0.504,0.198,0.756,0.127c0.252-0.072,0.456-0.223,0.612-0.45c0.168-0.24,0.24-0.498,0.216-0.774
			c-0.024-0.275-0.174-0.51-0.45-0.702c-0.42-0.288-0.936-0.521-1.548-0.702c-0.612-0.18-1.332-0.27-2.16-0.27
			C612.228,577.603,611.454,577.723,610.77,577.963"/>
		<path clip-path="url(#SVGID_19_)" fill="#FFFFFF" d="M1016.387,263.135c-2.535,0.676-4.591,2.479-6.167,5.407l-26.527,48.154
			l-27.034-48.323c-1.577-2.928-3.717-4.673-6.42-5.238c-2.703-0.562-5.296-0.224-7.771,1.014c-2.817,1.465-4.647,3.408-5.491,5.829
			c-0.845,2.424-0.48,4.985,1.099,7.688l34.299,58.967v39.03c0,3.268,1.068,5.634,3.21,7.096c2.138,1.465,4.673,2.197,7.603,2.197
			c2.928,0,5.462-0.732,7.604-2.197c2.139-1.462,3.21-3.828,3.21-7.096v-39.03l34.468-59.136c1.914-3.266,2.337-6.025,1.267-8.279
			c-1.07-2.252-2.9-3.997-5.491-5.238C1021.54,262.742,1018.921,262.46,1016.387,263.135 M852.666,265.078
			c-6.703,2.086-12.363,5.436-16.98,10.054c-4.62,4.62-8.109,10.644-10.476,18.078c-2.365,7.434-3.548,16.503-3.548,27.203v6.927
			c0,10.703,1.183,19.768,3.548,27.203c2.366,7.434,5.855,13.461,10.476,18.078c4.617,4.62,10.333,7.971,17.149,10.054
			c6.813,2.083,14.614,3.125,23.4,3.125c5.856,0,11.629-0.536,17.318-1.605c5.687-1.069,10.785-2.561,15.291-4.477
			c3.604-1.576,6.138-3.548,7.604-5.914c1.462-2.365,2.195-5.686,2.195-9.968v-33.455c0-5.293-1.043-8.954-3.126-10.982
			c-2.085-2.027-5.829-3.041-11.235-3.041h-26.02c-2.593,0-4.507,0.903-5.745,2.703c-1.241,1.803-1.858,3.886-1.858,6.252
			c0,2.479,0.617,4.62,1.858,6.42c1.238,1.803,3.152,2.703,5.745,2.703h18.923v28.217c-3.155,1.241-6.28,2.141-9.377,2.703
			c-3.1,0.565-6.731,0.845-10.897,0.845c-6.083,0-11.236-0.647-15.46-1.943c-4.225-1.294-7.661-3.519-10.307-6.674
			c-2.647-3.152-4.591-7.321-5.83-12.503c-1.239-5.18-1.857-11.658-1.857-19.43v-3.549c0-7.772,0.618-14.248,1.857-19.43
			c1.239-5.18,3.183-9.348,5.83-12.503c2.646-3.152,6.024-5.378,10.138-6.674c4.11-1.294,8.98-1.943,14.614-1.943
			c5.181,0,9.771,0.565,13.771,1.69c3.996,1.127,7.629,2.703,10.896,4.73c2.14,1.352,4.364,1.748,6.674,1.183
			c2.309-0.562,4.251-1.969,5.829-4.224c1.577-2.252,2.252-4.673,2.028-7.265c-0.227-2.59-1.634-4.786-4.224-6.59
			c-3.944-2.703-8.761-4.899-14.446-6.589c-5.689-1.69-12.532-2.534-20.529-2.534C867.111,261.953,859.365,262.995,852.666,265.078
			 M736.339,281.89h21.627c7.321,0,12.643,1.436,15.967,4.308c3.321,2.873,4.984,7.126,4.984,12.757v2.196
			c0,5.521-1.748,9.689-5.238,12.503c-3.492,2.817-9.351,4.224-17.572,4.224h-19.768V281.89z M729.073,263.811
			c-5.406,0-9.152,1.014-11.235,3.041c-2.086,2.028-3.126,5.69-3.126,10.983v97.828c0,3.268,1.069,5.634,3.211,7.096
			c2.138,1.465,4.672,2.197,7.603,2.197c2.929,0,5.462-0.732,7.604-2.197c2.138-1.462,3.21-3.828,3.21-7.096v-39.706h19.431h1.858
			c0.676,0,1.294-0.055,1.858-0.169l23.147,44.268c1.463,2.93,3.548,4.562,6.252,4.9c2.703,0.337,5.348-0.114,7.941-1.352
			c2.59-1.238,4.363-3.097,5.321-5.576c0.956-2.476,0.647-5.124-0.929-7.941l-21.289-37.678c6.307-2.59,11.291-6.447,14.953-11.574
			c3.659-5.124,5.491-11.574,5.491-19.346v-3.041c0-10.586-3.438-19.008-10.308-25.26c-6.871-6.251-16.615-9.377-29.229-9.377
			H729.073z M626.349,263.811c-5.407,0-9.153,1.014-11.236,3.041c-2.086,2.028-3.126,5.69-3.126,10.983v92.083
			c0,5.296,1.04,8.955,3.126,10.983c2.083,2.027,5.829,3.041,11.236,3.041h58.798c2.589,0,4.478-0.871,5.66-2.619
			c1.182-1.745,1.774-3.857,1.774-6.336c0-2.366-0.593-4.449-1.774-6.252c-1.183-1.8-3.071-2.703-5.66-2.703h-51.702v-34.806h47.14
			c2.476,0,4.308-0.871,5.491-2.619c1.183-1.745,1.773-3.801,1.773-6.167c0-2.365-0.591-4.419-1.773-6.167
			c-1.184-1.745-3.016-2.619-5.491-2.619h-47.14v-31.933h50.519c2.59,0,4.477-0.9,5.66-2.703c1.183-1.801,1.773-3.886,1.773-6.252
			c0-2.476-0.591-4.588-1.773-6.336c-1.184-1.745-3.07-2.619-5.66-2.619H626.349z M567.721,264.909
			c-2.028,1.41-3.042,3.633-3.042,6.674v85.494c-1.013-3.828-2.196-7.265-3.548-10.306c-1.352-3.042-2.872-6.083-4.562-9.124
			l-31.933-57.109c-2.141-3.828-4-6.869-5.576-9.124c-1.579-2.252-3.099-3.97-4.562-5.153c-1.465-1.183-2.986-1.943-4.562-2.281
			c-1.579-0.338-3.379-0.507-5.406-0.507c-5.407,0-9.153,1.014-11.236,3.042c-2.086,2.027-3.126,5.689-3.126,10.982v98.673
			c0,3.041,1.014,5.266,3.041,6.674c2.028,1.409,4.335,2.112,6.928,2.112c2.589,0,4.899-0.703,6.927-2.112
			c2.027-1.408,3.041-3.633,3.041-6.674v-85.494c1.014,3.83,2.197,7.265,3.548,10.306c1.352,3.042,2.873,6.083,4.562,9.124
			l31.934,57.109c2.138,3.83,3.997,6.872,5.575,9.124c1.576,2.254,3.097,3.97,4.562,5.153c1.463,1.183,2.984,1.943,4.562,2.281
			c1.576,0.338,3.379,0.507,5.407,0.507c5.407,0,9.15-1.014,11.236-3.042c2.083-2.027,3.126-5.686,3.126-10.982v-98.673
			c0-3.041-1.014-5.264-3.042-6.674c-2.027-1.407-4.337-2.112-6.927-2.112C572.055,262.797,569.748,263.502,567.721,264.909
			 M454.941,263.135c-2.535,0.676-4.591,2.479-6.167,5.407l-26.527,48.154l-27.034-48.323c-1.578-2.928-3.717-4.673-6.42-5.238
			c-2.704-0.562-5.296-0.224-7.772,1.014c-2.817,1.465-4.647,3.408-5.492,5.829c-0.844,2.424-0.48,4.985,1.099,7.688l34.299,58.967
			v39.03c0,3.268,1.069,5.634,3.21,7.096c2.138,1.465,4.673,2.197,7.603,2.197c2.928,0,5.462-0.732,7.603-2.197
			c2.139-1.462,3.21-3.828,3.21-7.096v-39.03l34.468-59.136c1.914-3.266,2.337-6.025,1.267-8.279
			c-1.071-2.252-2.901-3.997-5.491-5.238C460.094,262.742,457.475,262.46,454.941,263.135 M297.554,264.656
			c-5.407,1.803-9.969,4.253-13.686,7.35c-3.717,3.099-6.505,6.732-8.363,10.898c-1.859,4.168-2.788,8.617-2.788,13.348v1.182
			c0,5.634,0.816,10.391,2.45,14.277c1.631,3.886,4.166,7.21,7.603,9.969c3.435,2.761,7.743,5.042,12.925,6.843
			c5.18,1.803,11.321,3.379,18.417,4.731c8.11,1.578,13.995,3.69,17.656,6.336c3.659,2.648,5.492,6.336,5.492,11.067v1.182
			c0,4.169-1.748,7.633-5.238,10.391c-3.493,2.762-9.124,4.14-16.896,4.14c-5.069,0-9.969-0.647-14.7-1.943
			c-4.731-1.294-9.068-3.068-13.01-5.322c-2.592-1.463-5.013-1.914-7.265-1.352c-2.254,0.565-4.168,2.086-5.745,4.562
			c-1.578,2.365-2.196,4.873-1.858,7.519c0.338,2.648,1.858,4.815,4.562,6.505c4.504,2.816,10.053,5.097,16.642,6.842
			c6.59,1.746,13.375,2.619,20.36,2.619c14.755,0,25.906-3.041,33.454-9.124c7.545-6.082,11.32-14.923,11.32-26.526v-1.521
			c0-9.01-3.041-16.389-9.123-22.134c-6.083-5.744-16.165-10.079-30.244-13.01c-5.183-1.013-9.407-2.053-12.672-3.125
			c-3.269-1.07-5.829-2.252-7.688-3.548c-1.858-1.294-3.155-2.73-3.886-4.309c-0.734-1.576-1.098-3.435-1.098-5.576v-1.013
			c0-1.801,0.478-3.575,1.436-5.323c0.956-1.745,2.392-3.321,4.308-4.731c1.914-1.407,4.251-2.534,7.012-3.379
			c2.759-0.845,5.998-1.267,9.715-1.267c4.504,0,8.39,0.312,11.659,0.929c3.265,0.621,6.7,1.719,10.306,3.295
			c2.366,1.014,4.618,1.212,6.759,0.591c2.138-0.617,3.886-2.222,5.237-4.815c1.352-2.476,1.69-4.955,1.014-7.434
			c-0.676-2.476-2.254-4.335-4.731-5.576c-8.223-4.166-18.416-6.251-30.581-6.251C309.212,261.953,302.961,262.856,297.554,264.656"
			/>
	</g>
</g>
</svg>
