<?xml version="1.0" encoding="utf-8"?>
<!-- Generator: Adobe Illustrator 16.0.0, SVG Export Plug-In . SVG Version: 6.00 Build 0)  -->
<!DOCTYPE svg PUBLIC "-//W3C//DTD SVG 1.1//EN" "http://www.w3.org/Graphics/SVG/1.1/DTD/svg11.dtd">
<svg version="1.1" id="Layer_1" xmlns="http://www.w3.org/2000/svg" xmlns:xlink="http://www.w3.org/1999/xlink" x="0px" y="0px"
	 width="1300px" height="800px" viewBox="0 0 1300 800" enable-background="new 0 0 1300 800" xml:space="preserve">
<g>
	<defs>
		<rect id="SVGID_1_" width="1300" height="800"/>
	</defs>
	<clipPath id="SVGID_2_">
		<use xlink:href="#SVGID_1_"  overflow="visible"/>
	</clipPath>
	<g clip-path="url(#SVGID_2_)">
		<defs>
			<rect id="SVGID_3_" width="1300" height="800"/>
		</defs>
		<clipPath id="SVGID_4_">
			<use xlink:href="#SVGID_3_"  overflow="visible"/>
		</clipPath>
		<path clip-path="url(#SVGID_4_)" fill="#FFFFFF" d="M969.806,755.569c0.319,0,0.544,0.225,0.544,0.536
			c0,0.313-0.225,0.536-0.544,0.536c-0.32,0-0.544-0.224-0.544-0.536C969.262,755.794,969.485,755.569,969.806,755.569
			 M965.102,756.521h-1.424v-6.056h1.487c2.185,0,3.28,1.008,3.28,3C968.438,755.577,966.941,756.529,965.102,756.521
			 M965.149,751.058h-0.776v4.864h0.736c1.616,0,2.568-0.824,2.568-2.44S966.838,751.058,965.149,751.058 M962.653,756.521h-3.744
			v-6.056h3.744v0.6h-3.048v1.856h2.832v0.592h-2.832v2.399h3.048V756.521z M955.678,755.85l0.144-0.561l1.584-4.823h0.752
			l-2.048,6.056h-0.855l-2.049-6.056h0.752l1.584,4.823L955.678,755.85z M952.205,752.201c0-0.815-0.592-1.144-1.312-1.144h-1.096
			v2.448h0.84C951.678,753.506,952.205,753.201,952.205,752.201 M951.638,753.938v0.008l1.496,2.576h-0.896l-1.256-2.456h-1.176
			v2.456h-0.704v-6.056h1.72c1.368,0,2.104,0.68,2.104,1.72C952.926,753.146,952.461,753.705,951.638,753.938 M948.077,756.521
			h-3.744v-6.056h3.744v0.6h-3.048v1.856h2.832v0.592h-2.832v2.399h3.048V756.521z M939.382,756.065v-0.776
			c0-0.063,0.04-0.079,0.088-0.031c0.487,0.512,0.976,0.704,1.624,0.704c0.872,0,1.312-0.32,1.312-1.049
			c0-0.527-0.432-0.855-1.063-1.151l-0.568-0.248c-0.808-0.353-1.344-0.769-1.344-1.648c0-1,0.863-1.487,1.92-1.487
			c0.504,0,1.096,0.119,1.527,0.432v0.592c0,0.08-0.048,0.104-0.096,0.048c-0.432-0.312-0.84-0.456-1.399-0.456
			c-0.753,0-1.208,0.265-1.208,0.849c0,0.536,0.416,0.832,0.951,1.031l0.576,0.257c0.977,0.432,1.48,0.943,1.48,1.735
			c0,1.192-0.849,1.729-2.104,1.729C940.373,756.594,939.813,756.449,939.382,756.065 M938.573,756.521h-3.744v-6.056h3.744v0.6
			h-3.048v1.856h2.832v0.592h-2.832v2.399h3.048V756.521z M933.055,752.201c0-0.815-0.592-1.144-1.313-1.144h-1.097v2.448h0.841
			C932.525,753.506,933.055,753.201,933.055,752.201 M932.486,753.938v0.008l1.496,2.576h-0.896l-1.256-2.456h-1.176v2.456h-0.704
			v-6.056h1.72c1.368,0,2.104,0.68,2.104,1.72C933.774,753.146,933.311,753.705,932.486,753.938 M923.206,756.065v-0.776
			c0-0.063,0.04-0.079,0.089-0.031c0.487,0.512,0.976,0.704,1.623,0.704c0.872,0,1.313-0.32,1.313-1.049
			c0-0.527-0.432-0.855-1.064-1.151l-0.567-0.248c-0.809-0.353-1.345-0.769-1.345-1.648c0-1,0.864-1.487,1.921-1.487
			c0.504,0,1.096,0.119,1.527,0.432v0.592c0,0.08-0.048,0.104-0.096,0.048c-0.432-0.312-0.84-0.456-1.4-0.456
			c-0.752,0-1.208,0.265-1.208,0.849c0,0.536,0.416,0.832,0.952,1.031l0.576,0.257c0.976,0.432,1.48,0.943,1.48,1.735
			c0,1.192-0.849,1.729-2.104,1.729C924.198,756.594,923.639,756.449,923.206,756.065 M920.759,756.521h-0.704v-5.456h-2.072v-0.6
			h4.832v0.6h-2.056V756.521z M917.223,750.466v6.056h-0.704v-3.032h-2.952v3.032h-0.704v-6.056h0.704v2.424h2.952v-2.424H917.223z
			 M911.559,751.674c-0.408-0.448-1.008-0.696-1.672-0.696c-1.305,0-2.305,0.912-2.305,2.479c0,1.593,0.769,2.561,2.328,2.561
			c0.521,0,0.904-0.168,1.072-0.376v-1.608h-1.392v-0.6h2.111v2.632c-0.655,0.36-1.296,0.528-1.912,0.528
			c-1.928,0-2.943-1.265-2.943-3.12c0-1.912,1.248-3.08,2.983-3.08c0.729,0,1.32,0.136,1.832,0.512v0.736
			C911.662,751.714,911.614,751.729,911.559,751.674 M905.91,756.521h-0.704v-6.056h0.704V756.521z M903.431,752.201
			c0-0.815-0.593-1.144-1.313-1.144h-1.096v2.448h0.84C902.902,753.506,903.431,753.201,903.431,752.201 M902.862,753.938v0.008
			l1.496,2.576h-0.896l-1.257-2.456h-1.176v2.456h-0.704v-6.056h1.721c1.367,0,2.104,0.68,2.104,1.72
			C904.15,753.146,903.687,753.705,902.862,753.938 M897.767,755.913v0.608h-3.464v-6.056h0.704v5.447H897.767z M893.534,755.913
			v0.608h-3.464v-6.056h0.704v5.447H893.534z M886.799,750.97l-0.16,0.56l-0.864,2.688h2.048l-0.864-2.688L886.799,750.97z
			 M887.238,750.466l2.072,6.056h-0.729l-0.544-1.728h-2.472l-0.552,1.728h-0.729l2.064-6.056H887.238z M881.11,755.569
			c0.32,0,0.544,0.225,0.544,0.536c0,0.313-0.224,0.536-0.544,0.536s-0.544-0.224-0.544-0.536
			C880.566,755.794,880.79,755.569,881.11,755.569 M879.559,753.938v2.584h-0.688v-2.6c0-0.889-0.216-1.328-0.903-1.328
			c-0.688,0-1.353,0.647-1.353,1.52v2.408h-0.68v-4.368h0.688l0.032,0.632h0.008c0.265-0.456,0.849-0.735,1.385-0.735
			C879.158,752.05,879.559,752.714,879.559,753.938 M873.022,756.041c0.848,0,1.304-0.584,1.304-1.72
			c0-1.168-0.456-1.728-1.304-1.728s-1.304,0.56-1.304,1.728C871.719,755.457,872.175,756.041,873.022,756.041 M873.022,756.594
			c-1.4,0-2.032-1.032-2.032-2.272c0-1.312,0.688-2.271,2.032-2.271s2.032,0.96,2.032,2.271
			C875.055,755.562,874.423,756.594,873.022,756.594 M867.431,753.033h0.008c0.328-0.647,0.84-0.976,1.416-0.976
			c1.048,0,1.384,0.664,1.384,1.888v2.576h-0.68v-2.6c0-0.889-0.192-1.328-0.8-1.328c-0.616,0-1.208,0.647-1.208,1.52l-0.009,2.408
			h-0.663v-2.6c0-0.889-0.209-1.328-0.809-1.328c-0.616,0-1.224,0.647-1.224,1.52v2.408h-0.664v-4.368h0.672l0.024,0.656h0.008
			c0.248-0.464,0.775-0.752,1.279-0.752C866.902,752.058,867.246,752.378,867.431,753.033 M860.223,753.09
			c-0.057,0.056-0.104,0.031-0.104-0.049v-0.584c0.448-0.296,1.024-0.479,1.608-0.479c1.04,0,1.512,0.448,1.512,1.544v3h-0.664
			l-0.032-0.632h-0.008c-0.28,0.472-0.864,0.728-1.399,0.728c-0.856,0-1.448-0.439-1.448-1.264c0-0.808,0.512-1.376,1.496-1.528
			l1.376-0.199v-0.072c0-0.776-0.296-0.977-0.912-0.977C861.143,752.577,860.702,752.745,860.223,753.09 M862.582,754.745v-0.575
			l-1.159,0.144c-0.593,0.088-1.009,0.392-1.009,0.984c0,0.479,0.36,0.743,0.872,0.743
			C861.975,756.041,862.582,755.401,862.582,754.745 M858.942,753.938v2.584h-0.688v-2.6c0-0.889-0.216-1.328-0.903-1.328
			c-0.688,0-1.353,0.647-1.353,1.52v2.408h-0.68v-4.368h0.688l0.031,0.632h0.009c0.264-0.456,0.848-0.735,1.384-0.735
			C858.542,752.05,858.942,752.714,858.942,753.938 M853.246,750.762c0-0.288,0.208-0.504,0.496-0.504
			c0.272,0,0.496,0.216,0.496,0.504c0,0.271-0.224,0.487-0.496,0.487C853.454,751.249,853.246,751.033,853.246,750.762
			 M854.086,756.521h-0.695v-4.368h0.695V756.521z M852.566,755.626c0.056-0.057,0.088-0.049,0.088,0.031v0.536
			c-0.336,0.32-0.8,0.44-1.28,0.44c-1.336,0-2.231-0.761-2.231-2.265c0-1.399,0.848-2.319,2.216-2.319
			c0.464,0,0.928,0.12,1.264,0.399v0.553c0,0.079-0.031,0.096-0.088,0.031c-0.344-0.304-0.728-0.407-1.16-0.407
			c-0.991,0-1.495,0.792-1.495,1.735c0,1,0.512,1.704,1.552,1.704C851.87,756.065,852.23,755.938,852.566,755.626 M843.119,751.617
			c-0.057,0.057-0.088,0.04-0.088-0.031v-0.601c0.44-0.352,0.984-0.632,1.671-0.632c1.152,0,1.776,0.528,1.776,1.608
			c0,0.728-0.488,1.287-1.192,2.136l-1.632,1.855v0.009h2.912v0.56h-3.736v-0.6l1.865-2.097c0.84-1.063,1.079-1.344,1.079-1.88
			c0-0.647-0.319-1.032-1.056-1.032C844.206,750.913,843.672,751.161,843.119,751.617 M838.455,751.617
			c-0.056,0.057-0.088,0.04-0.088-0.031v-0.601c0.44-0.352,0.984-0.632,1.672-0.632c1.152,0,1.776,0.528,1.776,1.608
			c0,0.728-0.488,1.287-1.192,2.136l-1.632,1.855v0.009h2.912v0.56h-3.737v-0.6l1.865-2.097c0.84-1.063,1.08-1.344,1.08-1.88
			c0-0.647-0.32-1.032-1.057-1.032C839.543,750.913,839.008,751.161,838.455,751.617 M835.399,750.913
			c-0.848,0-1.272,0.889-1.272,2.648s0.425,2.504,1.272,2.504s1.272-0.744,1.272-2.504S836.247,750.913,835.399,750.913
			 M835.399,750.354c1.264,0,1.968,1.064,1.968,3.192s-0.704,3.071-1.968,3.071s-1.968-0.943-1.968-3.071
			S834.136,750.354,835.399,750.354 M829.127,751.617c-0.056,0.057-0.088,0.04-0.088-0.031v-0.601
			c0.44-0.352,0.984-0.632,1.672-0.632c1.152,0,1.776,0.528,1.776,1.608c0,0.728-0.488,1.287-1.192,2.136l-1.632,1.855v0.009h2.912
			v0.56h-3.735v-0.6l1.863-2.097c0.84-1.063,1.08-1.344,1.08-1.88c0-0.647-0.32-1.032-1.056-1.032
			C830.216,750.913,829.68,751.161,829.127,751.617 M824.184,754.857c0.048-0.056,0.128-0.056,0.128,0.016v0.44
			c-0.272,0.256-0.664,0.36-1.04,0.36c-1.048,0-1.776-0.608-1.776-1.784c0-1.096,0.696-1.832,1.761-1.832
			c0.367,0,0.743,0.12,1.016,0.328v0.448c0,0.063-0.072,0.104-0.128,0.031c-0.256-0.231-0.544-0.304-0.872-0.304
			c-0.744,0-1.12,0.6-1.12,1.32c0,0.768,0.384,1.304,1.16,1.304C823.647,755.186,823.919,755.098,824.184,754.857 M823.047,750.554
			c-1.791,0-3.136,1.408-3.136,3.271c0,1.809,1.4,3.28,3.136,3.28c1.729,0,3.129-1.472,3.129-3.28
			C826.176,752.025,824.775,750.554,823.047,750.554 M823.047,750.249c1.904,0,3.465,1.608,3.465,3.576
			c0,1.977-1.561,3.584-3.465,3.584c-1.911,0-3.472-1.607-3.472-3.584C819.575,751.745,821.079,750.249,823.047,750.249
			 M815.543,756.521h-0.703v-5.456h-2.072v-0.6h4.832v0.6h-2.057V756.521z M812.008,750.466v6.056h-0.704v-3.032h-2.952v3.032
			h-0.704v-6.056h0.704v2.424h2.952v-2.424H812.008z M806.344,751.674c-0.408-0.448-1.009-0.696-1.672-0.696
			c-1.305,0-2.305,0.912-2.305,2.479c0,1.593,0.769,2.561,2.328,2.561c0.521,0,0.904-0.168,1.072-0.376v-1.608h-1.393v-0.6h2.112
			v2.632c-0.656,0.36-1.296,0.528-1.912,0.528c-1.928,0-2.943-1.265-2.943-3.12c0-1.912,1.247-3.08,2.983-3.08
			c0.729,0,1.32,0.136,1.832,0.512v0.736C806.447,751.714,806.399,751.729,806.344,751.674 M800.695,756.521h-0.704v-6.056h0.704
			V756.521z M798.216,752.201c0-0.815-0.593-1.144-1.313-1.144h-1.096v2.448h0.84C797.688,753.506,798.216,753.201,798.216,752.201
			 M797.647,753.938v0.008l1.496,2.576h-0.896l-1.256-2.456h-1.176v2.456h-0.704v-6.056h1.72c1.368,0,2.104,0.68,2.104,1.72
			C798.936,753.146,798.472,753.705,797.647,753.938 M793.615,750.466h0.752l-2.008,3.359v2.696h-0.728v-2.608l-2.017-3.447h0.752
			l1.632,2.808h0.017L793.615,750.466z M788.575,752.289c0-1.008-0.775-1.231-1.6-1.231h-0.744v2.592h0.624
			C787.823,753.649,788.575,753.338,788.575,752.289 M789.312,752.273c0,1.264-0.92,1.952-2.32,1.952h-0.752v2.296h-0.704v-6.056
			h1.488C788.304,750.466,789.312,751.01,789.312,752.273 M781.831,755.985c1.257,0,1.904-1.063,1.904-2.488
			c0-1.432-0.647-2.495-1.904-2.495c-1.256,0-1.903,1.063-1.903,2.495C779.928,754.922,780.575,755.985,781.831,755.985
			 M781.831,756.594c-1.68,0-2.655-1.32-2.655-3.088c0-1.769,0.976-3.112,2.655-3.112c1.681,0,2.656,1.344,2.656,3.112
			C784.487,755.273,783.512,756.594,781.831,756.594 M778.768,755.233c0.063-0.048,0.104-0.032,0.104,0.032v0.704
			c-0.496,0.424-1.136,0.624-1.888,0.624c-1.728,0-2.744-1.248-2.744-3.097c0-1.928,1.2-3.104,2.84-3.104
			c0.696,0,1.256,0.136,1.744,0.52v0.736c0,0.072-0.048,0.088-0.104,0.032c-0.416-0.456-0.944-0.688-1.593-0.688
			c-1.199,0-2.144,0.872-2.144,2.464c0,1.656,0.76,2.521,2.12,2.521C777.743,755.978,778.304,755.722,778.768,755.233
			 M757.295,755.537c0.505,0.353,1.024,0.504,1.641,0.504c0.84-0.023,1.439-0.6,1.439-1.399c0-0.937-0.752-1.28-1.735-1.28
			c-0.368,0-0.824,0.064-1.208,0.145l0.168-3.017h3.136v0.552h-2.56l-0.12,1.856h0.016c0.304-0.032,0.576-0.056,0.856-0.056
			c1.256,0,2.136,0.632,2.136,1.728c0,1.136-0.824,2.024-2.152,2.024c-0.68,0-1.248-0.152-1.704-0.464v-0.553
			C757.207,755.514,757.256,755.497,757.295,755.537 M752.815,751.617c-0.056,0.057-0.088,0.04-0.088-0.031v-0.601
			c0.439-0.352,0.983-0.632,1.672-0.632c1.152,0,1.776,0.528,1.776,1.608c0,0.728-0.488,1.287-1.192,2.136l-1.632,1.855v0.009h2.912
			v0.56h-3.736v-0.6l1.864-2.097c0.84-1.063,1.08-1.344,1.08-1.88c0-0.647-0.32-1.032-1.057-1.032
			C753.903,750.913,753.367,751.161,752.815,751.617 M749.751,756.594c-1.359,0-2.031-0.704-2.031-1.648
			c0-0.775,0.392-1.392,1.248-1.616v-0.016c-0.664-0.208-1.112-0.696-1.112-1.36c0-0.872,0.624-1.6,1.896-1.6
			c1.272,0,1.896,0.728,1.896,1.6c0,0.664-0.448,1.152-1.112,1.36v0.016c0.856,0.225,1.248,0.841,1.248,1.616
			C751.783,755.89,751.111,756.594,749.751,756.594 M749.751,753.018c0.601,0,1.2-0.392,1.2-1.072c0-0.656-0.544-1.088-1.2-1.088
			c-0.655,0-1.199,0.432-1.199,1.088C748.552,752.626,749.151,753.018,749.751,753.018 M749.751,756.033
			c0.736,0,1.337-0.456,1.337-1.191c0-0.729-0.601-1.248-1.337-1.248c-0.735,0-1.336,0.52-1.336,1.248
			C748.415,755.577,749.016,756.033,749.751,756.033 M743.735,751.802v-0.496c0.432-0.192,0.832-0.48,1.16-0.849h0.72v6.064h-0.688
			v-5.312h-0.009c-0.359,0.287-0.735,0.495-1.104,0.632C743.761,751.865,743.735,751.842,743.735,751.802 M740.433,750.913
			c-0.849,0-1.272,0.889-1.272,2.648s0.424,2.504,1.272,2.504c0.848,0,1.271-0.744,1.271-2.504S741.28,750.913,740.433,750.913
			 M740.433,750.354c1.264,0,1.968,1.064,1.968,3.192s-0.704,3.071-1.968,3.071c-1.265,0-1.968-0.943-1.968-3.071
			S739.168,750.354,740.433,750.354 M737.448,753.609h-3.368v-0.6h3.368V753.609z M729.912,754.569c0,0.784,0.473,1.464,1.248,1.464
			c0.856,0,1.24-0.76,1.24-1.487c0-0.792-0.368-1.448-1.184-1.448C730.36,753.098,729.969,753.77,729.912,754.569 M732.752,751.201
			c-0.296-0.176-0.655-0.296-1.056-0.296c-1.136,0-1.808,1.168-1.848,2.528h0.016c0.208-0.472,0.752-0.896,1.448-0.896
			c1.152,0,1.792,0.832,1.792,1.969c0,1.256-0.792,2.08-1.944,2.08c-1.647,0-1.968-1.528-1.968-2.824
			c0-1.641,0.72-3.416,2.488-3.416c0.448,0,0.815,0.08,1.144,0.231v0.593C732.824,751.226,732.792,751.233,732.752,751.201
			 M726.433,756.594c-1.36,0-2.032-0.704-2.032-1.648c0-0.775,0.392-1.392,1.248-1.616v-0.016c-0.664-0.208-1.112-0.696-1.112-1.36
			c0-0.872,0.624-1.6,1.896-1.6c1.271,0,1.896,0.728,1.896,1.6c0,0.664-0.447,1.152-1.111,1.36v0.016
			c0.855,0.225,1.248,0.841,1.248,1.616C728.465,755.89,727.792,756.594,726.433,756.594 M726.433,753.018
			c0.6,0,1.2-0.392,1.2-1.072c0-0.656-0.545-1.088-1.2-1.088c-0.656,0-1.2,0.432-1.2,1.088
			C725.232,752.626,725.832,753.018,726.433,753.018 M726.433,756.033c0.735,0,1.336-0.456,1.336-1.191
			c0-0.729-0.601-1.248-1.336-1.248c-0.736,0-1.336,0.52-1.336,1.248C725.097,755.577,725.696,756.033,726.433,756.033
			 M723.456,753.609h-3.368v-0.6h3.368V753.609z M715.752,751.802v-0.496c0.433-0.192,0.832-0.48,1.16-0.849h0.721v6.064h-0.688
			v-5.312h-0.008c-0.36,0.287-0.736,0.495-1.104,0.632C715.776,751.865,715.752,751.842,715.752,751.802 M712.448,750.913
			c-0.848,0-1.271,0.889-1.271,2.648s0.424,2.504,1.271,2.504c0.849,0,1.272-0.744,1.272-2.504S713.297,750.913,712.448,750.913
			 M712.448,750.354c1.265,0,1.968,1.064,1.968,3.192s-0.703,3.071-1.968,3.071c-1.264,0-1.968-0.943-1.968-3.071
			S711.185,750.354,712.448,750.354 M706.593,754.569c0,0.784,0.472,1.464,1.248,1.464c0.855,0,1.239-0.76,1.239-1.487
			c0-0.792-0.367-1.448-1.184-1.448C707.04,753.098,706.648,753.77,706.593,754.569 M709.433,751.201
			c-0.296-0.176-0.656-0.296-1.057-0.296c-1.136,0-1.808,1.168-1.848,2.528h0.016c0.208-0.472,0.753-0.896,1.448-0.896
			c1.152,0,1.792,0.832,1.792,1.969c0,1.256-0.792,2.08-1.943,2.08c-1.648,0-1.969-1.528-1.969-2.824
			c0-1.641,0.721-3.416,2.488-3.416c0.448,0,0.816,0.08,1.144,0.231v0.593C709.504,751.226,709.473,751.233,709.433,751.201
			 M701.473,753.617c0-0.376-0.353-0.752-1.393-0.752c-1.023,0-1.376,0.376-1.376,0.752c0,0.353,0.353,0.744,1.376,0.744
			C701.12,754.361,701.473,753.97,701.473,753.617 M702.177,753.609c0,0.616-0.561,1.185-1.729,1.28v0.808h3.04v0.584h-6.8v-0.584
			h3.048v-0.808c-1.184-0.088-1.728-0.656-1.728-1.28c0-0.696,0.647-1.296,2.079-1.296
			C701.513,752.313,702.177,752.913,702.177,753.609 M702.769,751.89H697.4v-0.576h5.368V751.89z M701.465,750.802h-2.752v-0.584
			h2.752V750.802z M695.792,757.153h-4.72v-2.24h0.696v1.641h4.023V757.153z M692.729,752.073h-2.057v1.328h2.057V752.073z
			 M689.977,753.993v-3.775h0.695v1.271h2.057v-1.271h0.688v1.752h1.528v-1.977h0.688v5.28h-0.688v-2.696h-1.528v1.416H689.977z
			 M685.28,753.138c0.456,0.704,1.08,1.408,1.792,1.92l-0.512,0.496c-0.641-0.488-1.176-1.128-1.641-1.824
			c-0.584,0.856-1.344,1.592-2.168,2.064l-0.487-0.465c1.704-0.92,2.808-2.863,2.943-4.136c-0.6,0.024-1.184,0.024-1.775,0.024
			h-0.752v-0.584h1.208c0.68,0,1.384,0,2.136-0.017C685.992,751.474,685.721,752.346,685.28,753.138 M689.368,753.418h-1.256v3.88
			h-0.688v-7.305h0.688v2.816h1.256V753.418z M677.465,750.729c-0.688,0-1.16,0.48-1.16,1.176c0,0.704,0.472,1.168,1.16,1.168
			c0.695,0,1.168-0.464,1.168-1.168C678.633,751.21,678.16,750.729,677.465,750.729 M680.681,755.634h-3.216v0.952h3.216V755.634z
			 M681.36,757.186h-4.576v-2.992h0.681v0.872h3.216v-0.912h0.68V757.186z M679.288,751.546h1.384v-1.553h0.688v3.744h-0.688v-1.584
			h-1.367c-0.12,0.912-0.856,1.504-1.832,1.504c-1.072,0-1.856-0.704-1.856-1.76c0-1.048,0.784-1.752,1.856-1.752
			C678.408,750.146,679.137,750.697,679.288,751.546 M668.376,755.697l-0.495-0.439c1.304-0.937,2.279-2.4,2.111-4.816h0.729
			c0.016,0.696-0.049,1.328-0.168,1.904c0.384,1.096,1.104,2.032,2.071,2.68l-0.447,0.512c-0.801-0.56-1.448-1.344-1.889-2.312
			C669.881,754.266,669.225,755.081,668.376,755.697 M675.097,753.481h-1.256v3.816h-0.688v-7.305h0.688v2.88h1.256V753.481z
			 M660.584,752.785c-0.151-0.088-0.296-0.12-0.512-0.12c-0.56,0-1.12,0.561-1.12,1.393v2.464h-0.688v-4.368h0.695l0.024,0.632
			h0.008c0.225-0.464,0.696-0.735,1.152-0.735c0.224,0,0.376,0.016,0.536,0.104v0.592
			C660.681,752.817,660.648,752.834,660.584,752.785 M655.528,753.953l2.112,2.568h-0.889l-1.695-2.184h-0.008l-0.416,0.359v1.824
			h-0.688v-6.504h0.688v3.984h0.008l1.896-1.849h0.849l-1.856,1.792V753.953z M651.929,755.569c0.319,0,0.544,0.225,0.544,0.536
			c0,0.313-0.225,0.536-0.544,0.536c-0.32,0-0.544-0.224-0.544-0.536C651.385,755.794,651.608,755.569,651.929,755.569
			 M648.497,756.041c0.848,0,1.304-0.584,1.304-1.72c0-1.168-0.456-1.728-1.304-1.728c-0.848,0-1.304,0.56-1.304,1.728
			C647.192,755.457,647.648,756.041,648.497,756.041 M648.497,756.594c-1.4,0-2.032-1.032-2.032-2.272
			c0-1.312,0.688-2.271,2.032-2.271c1.344,0,2.032,0.96,2.032,2.271C650.528,755.562,649.896,756.594,648.497,756.594
			 M646.048,755.626c0.056-0.057,0.088-0.049,0.088,0.031v0.536c-0.336,0.32-0.8,0.44-1.28,0.44c-1.336,0-2.232-0.761-2.232-2.265
			c0-1.399,0.848-2.319,2.216-2.319c0.464,0,0.928,0.12,1.264,0.399v0.553c0,0.079-0.032,0.096-0.088,0.031
			c-0.344-0.304-0.728-0.407-1.16-0.407c-0.992,0-1.496,0.792-1.496,1.735c0,1,0.512,1.704,1.552,1.704
			C645.353,756.065,645.712,755.938,646.048,755.626 M640.913,755.569c0.32,0,0.544,0.225,0.544,0.536
			c0,0.313-0.224,0.536-0.544,0.536c-0.32,0-0.544-0.224-0.544-0.536C640.368,755.794,640.592,755.569,640.913,755.569
			 M639.28,753.938v2.584h-0.688v-2.6c0-0.889-0.216-1.328-0.904-1.328s-1.352,0.647-1.352,1.52v2.408h-0.68v-4.368h0.688
			l0.032,0.632h0.008c0.264-0.456,0.848-0.735,1.384-0.735C638.88,752.05,639.28,752.714,639.28,753.938 M632.665,756.041
			c0.848,0,1.304-0.584,1.304-1.72c0-1.168-0.456-1.728-1.304-1.728c-0.848,0-1.304,0.56-1.304,1.728
			C631.36,755.457,631.816,756.041,632.665,756.041 M632.665,756.594c-1.4,0-2.032-1.032-2.032-2.272
			c0-1.312,0.688-2.271,2.032-2.271c1.344,0,2.032,0.96,2.032,2.271C634.696,755.562,634.064,756.594,632.665,756.594
			 M626.992,753.033H627c0.328-0.647,0.84-0.976,1.416-0.976c1.048,0,1.384,0.664,1.384,1.888v2.576h-0.68v-2.6
			c0-0.889-0.192-1.328-0.8-1.328c-0.616,0-1.208,0.647-1.208,1.52l-0.008,2.408h-0.664v-2.6c0-0.889-0.208-1.328-0.808-1.328
			c-0.616,0-1.224,0.647-1.224,1.52v2.408h-0.664v-4.368h0.672l0.024,0.656h0.008c0.248-0.464,0.776-0.752,1.28-0.752
			C626.464,752.058,626.809,752.378,626.992,753.033 M619.705,753.09c-0.056,0.056-0.104,0.031-0.104-0.049v-0.584
			c0.448-0.296,1.024-0.479,1.608-0.479c1.04,0,1.512,0.448,1.512,1.544v3h-0.664l-0.032-0.632h-0.008
			c-0.28,0.472-0.864,0.728-1.4,0.728c-0.856,0-1.448-0.439-1.448-1.264c0-0.808,0.512-1.376,1.496-1.528l1.376-0.199v-0.072
			c0-0.776-0.296-0.977-0.912-0.977C620.625,752.577,620.185,752.745,619.705,753.09 M622.064,754.745v-0.575l-1.16,0.144
			c-0.592,0.088-1.008,0.392-1.008,0.984c0,0.479,0.36,0.743,0.872,0.743C621.457,756.041,622.064,755.401,622.064,754.745
			 M618.344,753.938v2.584h-0.688v-2.6c0-0.889-0.216-1.328-0.904-1.328s-1.352,0.647-1.352,1.52v2.408h-0.68v-4.368h0.688
			l0.032,0.632h0.008c0.264-0.456,0.848-0.735,1.384-0.735C617.944,752.05,618.344,752.714,618.344,753.938 M612.568,750.762
			c0-0.288,0.208-0.504,0.496-0.504c0.272,0,0.496,0.216,0.496,0.504c0,0.271-0.224,0.487-0.496,0.487
			C612.776,751.249,612.568,751.033,612.568,750.762 M613.408,756.521h-0.696v-4.368h0.696V756.521z M611.81,755.626
			c0.055-0.057,0.088-0.049,0.088,0.031v0.536c-0.336,0.32-0.8,0.44-1.28,0.44c-1.336,0-2.232-0.761-2.232-2.265
			c0-1.399,0.848-2.319,2.216-2.319c0.464,0,0.928,0.12,1.263,0.399v0.553c0,0.079-0.031,0.096-0.087,0.031
			c-0.345-0.304-0.728-0.407-1.16-0.407c-0.992,0-1.496,0.792-1.496,1.735c0,1,0.512,1.704,1.552,1.704
			C611.113,756.065,611.474,755.938,611.81,755.626 M603.969,757.434c-2.736,0-3.744-1.456-3.744-3.521
			c0-2.199,1.536-3.808,3.696-3.808c2.264,0,3.624,1.352,3.624,3.264c0,1.601-0.96,2.44-1.872,2.44c-0.768,0-0.992-0.424-0.992-0.88
			h-0.008c-0.272,0.56-0.64,0.872-1.312,0.872c-0.88,0-1.352-0.641-1.352-1.641c0-1.487,0.984-2.392,1.896-2.392
			c0.416,0,0.68,0.168,0.888,0.52h0.008l0.064-0.447h0.592l-0.248,2.903c-0.008,0.328,0.064,0.561,0.52,0.561
			c0.56,0,1.112-0.776,1.112-1.84c0-1.832-1.136-2.832-2.888-2.832c-1.768,0-3.024,1.359-3.024,3.264
			c0,1.976,1.056,3.016,3.056,3.016c1.024,0,1.776-0.336,2.336-0.768c0.056-0.032,0.088-0.016,0.088,0.048v0.616
			C605.833,757.218,604.905,757.434,603.969,757.434 M603.914,752.313c-0.704,0-1.192,0.904-1.192,1.872
			c0,0.696,0.28,1.072,0.768,1.072c0.704,0,1.208-0.761,1.208-1.952C604.697,752.594,604.489,752.313,603.914,752.313
			 M599.001,753.938v2.584h-0.688v-2.6c0-0.889-0.216-1.328-0.904-1.328c-0.688,0-1.352,0.647-1.352,1.52v2.408h-0.68v-4.368h0.688
			l0.032,0.632h0.008c0.264-0.456,0.848-0.735,1.384-0.735C598.602,752.05,599.001,752.714,599.001,753.938 M592.385,756.041
			c0.848,0,1.304-0.584,1.304-1.72c0-1.168-0.456-1.728-1.304-1.728c-0.848,0-1.304,0.56-1.304,1.728
			C591.082,755.457,591.538,756.041,592.385,756.041 M592.385,756.594c-1.4,0-2.032-1.032-2.032-2.272
			c0-1.312,0.688-2.271,2.032-2.271c1.344,0,2.032,0.96,2.032,2.271C594.417,755.562,593.785,756.594,592.385,756.594
			 M586.713,753.033h0.008c0.328-0.647,0.84-0.976,1.416-0.976c1.048,0,1.384,0.664,1.384,1.888v2.576h-0.68v-2.6
			c0-0.889-0.192-1.328-0.8-1.328c-0.616,0-1.208,0.647-1.208,1.52l-0.008,2.408h-0.664v-2.6c0-0.889-0.208-1.328-0.808-1.328
			c-0.616,0-1.224,0.647-1.224,1.52v2.408h-0.664v-4.368h0.672l0.024,0.656h0.008c0.248-0.464,0.776-0.752,1.28-0.752
			C586.186,752.058,586.529,752.378,586.713,753.033 M579.425,753.09c-0.056,0.056-0.104,0.031-0.104-0.049v-0.584
			c0.448-0.296,1.024-0.479,1.608-0.479c1.04,0,1.512,0.448,1.512,1.544v3h-0.664l-0.032-0.632h-0.008
			c-0.28,0.472-0.864,0.728-1.4,0.728c-0.856,0-1.448-0.439-1.448-1.264c0-0.808,0.512-1.376,1.496-1.528l1.376-0.199v-0.072
			c0-0.776-0.296-0.977-0.912-0.977C580.345,752.577,579.905,752.745,579.425,753.09 M581.785,754.745v-0.575l-1.16,0.144
			c-0.592,0.088-1.008,0.392-1.008,0.984c0,0.479,0.36,0.743,0.872,0.743C581.177,756.041,581.785,755.401,581.785,754.745
			 M578.065,753.938v2.584h-0.688v-2.6c0-0.889-0.216-1.328-0.904-1.328c-0.688,0-1.352,0.647-1.352,1.52v2.408h-0.68v-4.368h0.688
			l0.032,0.632h0.008c0.264-0.456,0.848-0.735,1.384-0.735C577.666,752.05,578.065,752.714,578.065,753.938 M572.29,750.762
			c0-0.288,0.208-0.504,0.496-0.504c0.272,0,0.496,0.216,0.496,0.504c0,0.271-0.224,0.487-0.496,0.487
			C572.498,751.249,572.29,751.033,572.29,750.762 M573.129,756.521h-0.696v-4.368h0.696V756.521z M571.529,755.626
			c0.056-0.057,0.088-0.049,0.088,0.031v0.536c-0.336,0.32-0.8,0.44-1.28,0.44c-1.336,0-2.232-0.761-2.232-2.265
			c0-1.399,0.848-2.319,2.216-2.319c0.464,0,0.928,0.12,1.264,0.399v0.553c0,0.079-0.032,0.096-0.088,0.031
			c-0.344-0.304-0.728-0.407-1.16-0.407c-0.992,0-1.496,0.792-1.496,1.735c0,1,0.512,1.704,1.552,1.704
			C570.833,756.065,571.193,755.938,571.529,755.626 M558.458,753.617c0-0.376-0.352-0.752-1.392-0.752
			c-1.024,0-1.376,0.376-1.376,0.752c0,0.353,0.352,0.744,1.376,0.744C558.105,754.361,558.458,753.97,558.458,753.617
			 M559.161,753.609c0,0.616-0.56,1.185-1.728,1.28v0.808h3.04v0.584h-6.8v-0.584h3.048v-0.808c-1.184-0.088-1.728-0.656-1.728-1.28
			c0-0.696,0.648-1.296,2.08-1.296C558.498,752.313,559.161,752.913,559.161,753.609 M559.753,751.89h-5.368v-0.576h5.368V751.89z
			 M558.449,750.802h-2.752v-0.584h2.752V750.802z M549.817,751.802v-0.496c0.432-0.192,0.832-0.48,1.16-0.849h0.72v6.064h-0.688
			v-5.312h-0.008c-0.36,0.287-0.736,0.495-1.104,0.632C549.841,751.865,549.817,751.842,549.817,751.802 M546.513,750.913
			c-0.848,0-1.272,0.889-1.272,2.648s0.424,2.504,1.272,2.504c0.848,0,1.272-0.744,1.272-2.504S547.361,750.913,546.513,750.913
			 M546.513,750.354c1.264,0,1.968,1.064,1.968,3.192s-0.704,3.071-1.968,3.071c-1.264,0-1.968-0.943-1.968-3.071
			S545.25,750.354,546.513,750.354 M541.361,756.521h-0.712l2.416-5.472h-3.224v-0.561h3.864v0.664L541.361,756.521z
			 M535.881,756.073c0-0.359-0.416-0.712-1.728-0.712c-1.32,0-1.736,0.353-1.736,0.712c0,0.36,0.416,0.712,1.736,0.712
			C535.465,756.785,535.881,756.434,535.881,756.073 M536.625,756.065c0,0.76-0.84,1.296-2.472,1.296
			c-1.64,0-2.488-0.536-2.488-1.296c0-0.768,0.848-1.28,2.488-1.28C535.785,754.785,536.625,755.298,536.625,756.065
			 M537.633,754.258h-6.96v-0.593h6.96V754.258z M531.761,750.882h2.224c0.664,0,1.328,0,2.056-0.017
			c0.12,0.008,0.168,0.137,0.12,0.225c-0.216,0.392-0.664,0.768-1.232,1.096c0.624,0.216,1.344,0.4,2.104,0.512l-0.328,0.521
			c-0.824-0.137-1.664-0.4-2.392-0.721c-0.872,0.393-1.888,0.673-2.752,0.744l-0.288-0.512c1.6-0.152,3.104-0.736,3.84-1.32
			c-0.592,0.017-1.184,0.032-1.768,0.032h-1.584V750.882z M532.706,749.897h2.592v0.584h-2.592V749.897z M527.77,756.521h-0.712
			l2.416-5.472h-3.224v-0.561h3.864v0.664L527.77,756.521z M524.098,755.993c0-0.392-0.432-0.775-1.744-0.775
			c-1.32,0-1.752,0.384-1.752,0.775c0,0.4,0.432,0.792,1.752,0.792C523.666,756.785,524.098,756.394,524.098,755.993
			 M524.841,756.002c0,0.8-0.856,1.376-2.488,1.376c-1.64,0-2.504-0.576-2.504-1.376c0-0.801,0.864-1.345,2.504-1.345
			C523.985,754.657,524.841,755.201,524.841,756.002 M525.833,754.178h-6.976v-0.592h3.136v-0.937h-1.976v-2.456h4.68v0.601h-3.968
			v1.279h4.072v0.576h-2.104v0.937h3.136V754.178z M516.498,756.521h-2.048v-6.056h2.024c1.128,0,1.744,0.607,1.744,1.359
			c0,0.672-0.408,1.185-1.08,1.376v0.017c0.824,0.104,1.376,0.695,1.376,1.527C518.513,755.626,517.874,756.521,516.498,756.521
			 M516.257,753.537h-1.112v2.385h1.256c0.856,0,1.328-0.465,1.328-1.185C517.729,753.978,517.257,753.537,516.257,753.537
			 M516.281,751.058h-1.136v1.896h1.056c0.776,0,1.264-0.264,1.264-1C517.465,751.321,517.065,751.058,516.281,751.058
			 M510.113,756.002c0-0.288,0.216-0.505,0.56-0.505c0.344,0,0.584,0.288,0.584,0.664c0,0.673-0.472,1.208-1.04,1.408l-0.144-0.304
			c0.312-0.112,0.536-0.344,0.616-0.624c0.032-0.128,0.016-0.176-0.096-0.176C510.321,756.466,510.113,756.249,510.113,756.002
			 M507.266,756.594c-1.36,0-2.032-0.704-2.032-1.648c0-0.775,0.392-1.392,1.248-1.616v-0.016c-0.664-0.208-1.112-0.696-1.112-1.36
			c0-0.872,0.624-1.6,1.896-1.6c1.272,0,1.896,0.728,1.896,1.6c0,0.664-0.448,1.152-1.112,1.36v0.016
			c0.856,0.225,1.248,0.841,1.248,1.616C509.297,755.89,508.625,756.594,507.266,756.594 M507.266,753.018
			c0.6,0,1.2-0.392,1.2-1.072c0-0.656-0.544-1.088-1.2-1.088c-0.656,0-1.2,0.432-1.2,1.088
			C506.065,752.626,506.666,753.018,507.266,753.018 M507.266,756.033c0.736,0,1.336-0.456,1.336-1.191
			c0-0.729-0.6-1.248-1.336-1.248c-0.736,0-1.336,0.52-1.336,1.248C505.929,755.577,506.529,756.033,507.266,756.033
			 M501.001,751.617c-0.056,0.057-0.088,0.04-0.088-0.031v-0.601c0.44-0.352,0.984-0.632,1.672-0.632
			c1.152,0,1.776,0.528,1.776,1.608c0,0.728-0.488,1.287-1.192,2.136l-1.632,1.855v0.009h2.912v0.56h-3.736v-0.6l1.864-2.097
			c0.84-1.063,1.08-1.344,1.08-1.88c0-0.647-0.32-1.032-1.056-1.032C502.089,750.913,501.553,751.161,501.001,751.617
			 M496.585,751.802v-0.496c0.432-0.192,0.832-0.48,1.16-0.849h0.72v6.064h-0.688v-5.312h-0.008
			c-0.36,0.287-0.736,0.495-1.104,0.632C496.609,751.865,496.585,751.842,496.585,751.802 M487.969,754.378v-2.208h3.88v-1.057
			h-3.888v-0.6h4.576v2.224h-3.88v1.057h4.12v0.584h-2.168v1.304h3.04v0.584h-6.8v-0.584h3.04v-1.304H487.969z M483.538,751.514
			c0-0.393-0.296-0.872-1.152-0.872s-1.152,0.479-1.152,0.872c0,0.384,0.296,0.872,1.152,0.872S483.538,751.897,483.538,751.514
			 M484.25,751.521c0,0.832-0.72,1.44-1.864,1.44s-1.864-0.608-1.864-1.44s0.72-1.44,1.864-1.44S484.25,750.689,484.25,751.521
			 M486.105,757.153h-5.08v-1.88h0.68v1.288h4.4V757.153z M479.881,753.426h1.32c1.072,0,2.64-0.064,3.664-0.2v0.56
			c-0.6,0.08-1.352,0.145-2.104,0.185v1.624h-0.696v-1.601c-0.296,0.017-0.584,0.017-0.856,0.017h-1.328V753.426z M485.297,755.873
			v-0.888h-1.672v-0.584h1.672v-4.408h0.688v5.88H485.297z M477.978,755.657h-3.216v0.929h3.216V755.657z M478.657,757.186h-4.576
			v-2.832h0.68v0.736h3.216v-0.776h0.68V757.186z M475.753,751.857h-2.032v1.16h2.032V751.857z M473.025,753.609v-3.399h0.696v1.071
			h2.032v-1.071h0.688v1.359h1.528v-1.576h0.688v3.904h-0.688v-1.72h-1.528v1.432H473.025z M468.505,753.546
			c0.136-0.832,0.248-1.872,0.248-2.641h-4.064v-0.592h4.76c0,1.08-0.152,2.408-0.28,3.232h1.28v0.584h-2.976v3.128h-0.704v-3.128
			h-3.12v-0.584H468.505z M463.465,753.241h-1.256v4.057h-0.688v-7.305h0.688v2.641h1.256V753.241z M457.313,754.705l-0.064-3.216
			h0.664l0.064,3.216h0.808c0.192,0,0.392,0,0.592-0.008l0.048-3.208h0.664l-0.048,3.168c0.408-0.04,0.8-0.096,1.152-0.176v0.576
			c-0.648,0.176-1.544,0.24-2.4,0.24h-2.36v-0.593H457.313z M456.553,750.617h4.112v0.576h-4.112V750.617z M454.513,756.01
			c0-0.368-0.416-0.769-1.727-0.769c-1.32,0-1.737,0.4-1.737,0.769c0,0.376,0.417,0.784,1.737,0.784
			C454.097,756.794,454.513,756.386,454.513,756.01 M455.257,756.01c0,0.76-0.839,1.352-2.471,1.352
			c-1.641,0-2.489-0.592-2.489-1.352c0-0.761,0.848-1.305,2.489-1.305C454.418,754.705,455.257,755.249,455.257,756.01
			 M453.153,752.489v1.04h3.104v0.592h-6.96v-0.592h3.144v-1.04H453.153z M453.058,750.842c0.448,0.664,1.633,1.216,2.616,1.359
			l-0.367,0.553c-1.049-0.2-2-0.744-2.601-1.385c-0.608,0.721-1.632,1.28-2.536,1.448l-0.359-0.536
			c1.519-0.279,2.72-1.231,2.703-2.296h0.737C453.266,750.273,453.194,750.562,453.058,750.842 M440.787,755.697l-0.496-0.439
			c1.303-0.937,2.28-2.4,2.112-4.816h0.728c0.015,0.696-0.048,1.328-0.168,1.904c0.384,1.096,1.104,2.032,2.071,2.68l-0.447,0.512
			c-0.8-0.56-1.448-1.344-1.888-2.312C442.291,754.266,441.634,755.081,440.787,755.697 M445.842,749.993h0.688v7.305h-0.688
			V749.993z M439.554,757.218h-4.752v-1.832h3.912v-0.664h-3.912v-0.576h4.592v1.8h-3.912v0.681h4.072V757.218z M436.426,751.825
			h-2.008v1.064h2.008V751.825z M437.099,752.273h1.616v-0.752h-1.616V752.273z M433.738,753.481v-3.271h0.68v1.039h2.008v-1.039
			h0.672v0.76h1.608v-0.977h0.688v3.736h-0.688v-0.896h-1.608v0.647H433.738z M431.187,757.321v-1.672h-4.056v-0.592h4.744v2.264
			H431.187z M433.059,754.418h-6.96v-0.593h6.96V754.418z M427.258,753.249v-3.056h4.584v0.592h-3.896v0.672h3.832v0.553h-3.832
			v0.68h4.008v0.56H427.258z M422.074,754.306v-0.776h-3.112v-0.567h6.96v0.567h-3.136v0.776h2.016v1.76h-4.04v0.664h4.232v0.568
			h-4.912v-1.776h4.04v-0.648h-4.04v-0.567H422.074z M424.123,751.289c0-0.416-0.512-0.8-1.672-0.8c-1.176,0-1.68,0.384-1.68,0.8
			c0,0.376,0.504,0.713,1.68,0.713C423.61,752.002,424.123,751.665,424.123,751.289 M424.875,751.258
			c0,0.768-0.816,1.296-2.424,1.296c-1.608,0-2.424-0.528-2.424-1.296c0-0.752,0.816-1.328,2.424-1.328
			C424.059,749.93,424.875,750.497,424.875,751.258 M412.218,755.697l-0.496-0.439c1.304-0.937,2.28-2.4,2.112-4.816h0.728
			c0.016,0.696-0.048,1.328-0.168,1.904c0.384,1.096,1.104,2.032,2.072,2.68l-0.448,0.512c-0.8-0.56-1.448-1.344-1.888-2.312
			C413.722,754.266,413.066,755.081,412.218,755.697 M415.667,753.098v-0.601h1.632v-2.504h0.688v7.305h-0.688v-4.2H415.667z
			 M405.291,757.186h-4.84v-2.176h0.688v1.576h4.152V757.186z M400.475,752.81v-2.616h4.632v2.616h-1.968v1.072h3.136v0.592h-6.96
			v-0.592h3.112v-1.072H400.475z M404.402,750.802h-3.224v1.424h3.224V750.802z M399.21,753.321h-1.256v3.977h-0.688v-7.305h0.688
			v2.721h1.256V753.321z M394.202,755.233h-1.584v-4.712h0.712v4.096h0.968c1.072,0,2.016-0.176,2.576-0.304v0.6
			C396.267,755.073,395.154,755.233,394.202,755.233 M388.882,752.481c0.224,0.824,0.696,1.688,1.352,2.384l-0.496,0.408
			c-0.472-0.552-0.816-1.112-1.08-1.776c-0.272,0.929-0.696,1.752-1.304,2.433l-0.536-0.336c1.16-1.36,1.64-3.08,1.52-5.137h0.68
			C389.034,751.153,388.986,751.834,388.882,752.481 M385.45,755.306l-0.52-0.368c1.112-1.176,1.472-2.544,1.352-4.48h0.656
			c0.016,0.761-0.024,1.416-0.12,2.009c0.184,0.496,0.52,1.016,0.856,1.368c-0.112,0.224-0.232,0.447-0.36,0.663
			c-0.28-0.376-0.52-0.775-0.696-1.176C386.378,754.073,386.002,754.714,385.45,755.306 M390.674,749.993h0.688v7.305h-0.688
			V749.993z M383.811,753.697c0,1.36-0.688,2.8-1.576,3.736h-0.528c0.904-1.256,1.36-2.544,1.36-3.736
			c0-1.191-0.456-2.479-1.36-3.735h0.528C383.123,750.897,383.811,752.338,383.811,753.697 M379.858,750.466
			c-0.264,0.592-0.728,1.104-1.344,1.544c0.664,0.328,1.456,0.6,2.32,0.784l-0.344,0.584c-0.928-0.232-1.792-0.561-2.552-1.009
			c-0.784,0.448-1.736,0.792-2.76,1.049l-0.336-0.576c2.024-0.433,3.432-1.24,3.992-2c-0.608,0.031-1.192,0.031-1.784,0.031h-1.504
			v-0.592h2.064c0.688,0,1.384,0,2.136-0.016C379.866,750.258,379.915,750.378,379.858,750.466 M374.418,754.05h6.8v0.6h-2.992
			v2.608h-0.704v-2.608h-3.104V754.05z M371.898,753.697c0-1.359,0.688-2.8,1.576-3.735h0.528c-0.904,1.256-1.36,2.544-1.36,3.735
			c0,1.192,0.456,2.48,1.36,3.736h-0.528C372.586,756.497,371.898,755.058,371.898,753.697 M362.65,752.283h0.01
			c0.35-0.46,0.92-0.83,1.61-0.83c1.25,0,1.91,0.74,1.91,2.271v3.51h-1.23v-3.57c0-0.93-0.37-1.25-0.99-1.25
			c-0.73,0-1.32,0.65-1.32,1.75v3.07h-1.23v-5.66h1.18L362.65,752.283z M357.851,756.334c0.9,0,1.36-0.601,1.36-1.95
			c0-1.38-0.45-1.96-1.36-1.96c-0.9,0-1.36,0.58-1.36,1.96C356.49,755.733,356.96,756.334,357.851,756.334 M357.851,757.323
			c-1.82,0-2.64-1.38-2.64-2.939c0-1.65,0.9-2.94,2.64-2.94c1.73,0,2.64,1.29,2.64,2.94
			C360.49,755.943,359.66,757.323,357.851,757.323 M350.851,752.464c0.41-0.66,1.02-1.011,1.75-1.011c1.34,0,1.81,0.9,1.81,2.471
			v3.31h-1.23v-3.439c0-1-0.25-1.37-0.85-1.37c-0.61,0-1.18,0.6-1.18,1.609v3.2h-1.18v-3.27c0-1.13-0.21-1.54-0.82-1.54
			c-0.73,0-1.2,0.64-1.2,1.739v3.07h-1.23v-5.66h1.15l0.06,0.71h0.01c0.34-0.529,0.92-0.83,1.44-0.83c0.77,0,1.24,0.391,1.46,1.011
			H350.851z M341.72,753.184c-0.06,0.05-0.14,0.01-0.14-0.07v-1.08c0.63-0.43,1.33-0.68,2.22-0.68c1.34,0,1.94,0.64,1.94,2.05v3.83
			h-1.1l-0.06-0.689h-0.01c-0.35,0.479-0.97,0.81-1.65,0.81c-1.21,0-1.86-0.62-1.86-1.69c0-1.06,0.7-1.779,1.94-1.97l1.51-0.25
			v-0.05c0-0.7-0.22-1-0.91-1C342.99,752.394,342.42,752.594,341.72,753.184 M344.541,754.974v-0.63l-1.2,0.17
			c-0.66,0.09-1.05,0.47-1.05,1.05c0,0.521,0.32,0.771,0.85,0.771C343.851,756.334,344.541,755.653,344.541,754.974 M336.88,752.283
			h0.01c0.35-0.46,0.92-0.83,1.61-0.83c1.25,0,1.91,0.74,1.91,2.271v3.51h-1.23v-3.57c0-0.93-0.37-1.25-0.99-1.25
			c-0.73,0-1.32,0.65-1.32,1.75v3.07h-1.23v-5.66h1.18L336.88,752.283z M332.95,750.023c0-0.41,0.33-0.77,0.78-0.77
			c0.43,0,0.8,0.359,0.8,0.77c0,0.4-0.37,0.76-0.8,0.76C333.28,750.783,332.95,750.413,332.95,750.023 M334.36,757.233h-1.25v-5.66
			h1.25V757.233z M332.291,753.163c-0.42-0.47-0.91-0.699-1.57-0.699c-1.07,0-1.59,0.85-1.59,1.97c0,1.18,0.52,1.93,1.64,1.93
			c0.65,0,1.14-0.26,1.56-0.76c0.05-0.06,0.14-0.03,0.14,0.05v1.09c-0.49,0.471-1.04,0.63-1.76,0.63c-1.69,0-2.87-0.989-2.87-2.93
			c0-1.84,1.11-3,2.85-3c0.67,0,1.24,0.18,1.74,0.59v1.08C332.43,753.193,332.34,753.224,332.291,753.163"/>
		<circle clip-path="url(#SVGID_4_)" fill="none" stroke="#FFFFFF" cx="1188.975" cy="753.146" r="16.429"/>
		<circle clip-path="url(#SVGID_4_)" fill="none" stroke="#FFFFFF" cx="1230.743" cy="753.146" r="16.429"/>
		<circle clip-path="url(#SVGID_4_)" fill="none" stroke="#FFFFFF" cx="1272.512" cy="753.146" r="16.429"/>
		<path clip-path="url(#SVGID_4_)" fill="#FFFFFF" d="M1231.638,758.063v-5.271h1.769l0.265-2.053h-2.033v-1.312
			c0-0.595,0.165-1,1.018-1l1.088-0.001v-1.836c-0.188-0.024-0.835-0.081-1.586-0.081c-1.566,0-2.641,0.957-2.641,2.716v1.514
			h-1.773v2.053h1.773v5.271H1231.638z"/>
		<path clip-path="url(#SVGID_4_)" fill="#FFFFFF" d="M1191.83,749.217c-1.035,0-1.848,0.476-2.338,1.162l-0.084-0.952h-2.058v8.498
			h2.198v-5.194c0-0.979,0.798-1.526,1.638-1.526s1.638,0.351,1.638,1.708v5.013h2.198v-5.097
			C1195.022,750.561,1193.511,749.217,1191.83,749.217 M1185.265,749.427h-2.198v8.498h2.198V749.427z M1184.158,748.181
			c0.687,0,1.232-0.546,1.232-1.232c0-0.686-0.546-1.231-1.232-1.231c-0.686,0-1.231,0.546-1.231,1.231
			C1182.927,747.635,1183.473,748.181,1184.158,748.181"/>
		<path clip-path="url(#SVGID_4_)" fill="#FFFFFF" d="M1269.909,757.055v-6.392l5.858,3.121L1269.909,757.055z M1280.633,750.007
			c-0.32-1.307-0.919-1.808-2.021-1.988c-0.634-0.097-3.682-0.219-6.101-0.219c-2.42,0-5.467,0.122-6.1,0.219
			c-1.103,0.181-1.703,0.685-2.021,1.988c-0.107,0.436-0.256,2.837-0.256,3.751v0.202c0,0.916,0.148,3.315,0.256,3.753
			c0.317,1.303,0.918,1.807,2.021,1.986c0.633,0.097,3.684,0.218,6.105,0.218l-0.011,0.001c2.422,0,5.47-0.122,6.105-0.219
			c1.102-0.18,1.7-0.684,2.021-1.986c0.107-0.438,0.254-2.837,0.254-3.753v-0.202
			C1280.887,752.844,1280.74,750.442,1280.633,750.007"/>
		<path clip-path="url(#SVGID_4_)" fill="none" stroke="#FFFFFF" d="M1192.419,18.941c-13.556,0-24.545,10.988-24.545,24.543
			c0,13.559,10.989,24.547,24.545,24.547h73.146c13.557,0,24.545-10.988,24.545-24.547c0-13.555-10.988-24.543-24.545-24.543
			H1192.419z"/>
		<path clip-path="url(#SVGID_4_)" fill="#FFFFFF" d="M1243.648,39.312c-0.229,0.156-0.343,0.396-0.343,0.72v5.202
			c0,1.212,0.313,2.127,0.937,2.745c0.624,0.618,1.458,0.927,2.502,0.927c0.264,0,0.537-0.027,0.818-0.081
			c0.282-0.054,0.553-0.135,0.811-0.243c0.258-0.108,0.495-0.246,0.711-0.414s0.396-0.372,0.54-0.612h0.036v0.378
			c0,0.312,0.111,0.543,0.333,0.693c0.222,0.15,0.471,0.225,0.747,0.225c0.275,0,0.524-0.075,0.747-0.225
			c0.222-0.15,0.333-0.381,0.333-0.693v-7.902c0-0.324-0.117-0.564-0.352-0.72c-0.233-0.156-0.495-0.234-0.783-0.234
			c-0.3,0-0.563,0.078-0.792,0.234c-0.228,0.156-0.342,0.396-0.342,0.72v4.572c0,0.444-0.069,0.816-0.207,1.116
			c-0.138,0.3-0.309,0.54-0.513,0.72c-0.204,0.18-0.429,0.306-0.675,0.378c-0.246,0.072-0.483,0.108-0.711,0.108
			c-0.265,0-0.511-0.033-0.738-0.099s-0.426-0.18-0.594-0.342s-0.3-0.384-0.396-0.666c-0.096-0.282-0.144-0.639-0.144-1.071v-4.716
			c0-0.324-0.117-0.564-0.352-0.72c-0.233-0.156-0.495-0.234-0.783-0.234C1244.14,39.078,1243.876,39.156,1243.648,39.312
			 M1236.485,39.051c-0.288,0.054-0.563,0.135-0.819,0.243c-0.259,0.108-0.495,0.249-0.711,0.423s-0.396,0.375-0.54,0.603h-0.036
			v-0.324c0-0.312-0.112-0.543-0.333-0.693c-0.223-0.15-0.472-0.225-0.747-0.225c-0.277,0-0.525,0.075-0.747,0.225
			c-0.223,0.15-0.334,0.381-0.334,0.693v7.902c0,0.324,0.118,0.564,0.353,0.72c0.233,0.156,0.494,0.234,0.782,0.234
			c0.3,0,0.563-0.078,0.792-0.234c0.228-0.156,0.343-0.396,0.343-0.72v-4.626c0-0.444,0.067-0.816,0.207-1.116
			c0.137-0.3,0.311-0.54,0.521-0.72c0.209-0.18,0.441-0.306,0.693-0.378c0.252-0.072,0.492-0.108,0.72-0.108
			c0.263,0,0.513,0.033,0.747,0.099s0.434,0.18,0.603,0.342c0.168,0.162,0.3,0.384,0.396,0.666c0.095,0.282,0.144,0.639,0.144,1.071
			v4.77c0,0.324,0.117,0.564,0.352,0.72c0.233,0.156,0.494,0.234,0.783,0.234c0.299,0,0.563-0.078,0.792-0.234
			c0.227-0.156,0.342-0.396,0.342-0.72v-5.256c0-1.212-0.313-2.127-0.937-2.745c-0.625-0.618-1.465-0.927-2.52-0.927
			C1237.054,38.97,1236.773,38.997,1236.485,39.051 M1222.427,40.167c-0.804,0.798-1.206,1.977-1.206,3.537v0.468
			c0,1.572,0.396,2.751,1.188,3.537c0.792,0.786,1.907,1.179,3.348,1.179c0.732,0,1.368-0.057,1.908-0.171
			c0.54-0.114,1.038-0.285,1.494-0.513c0.239-0.12,0.39-0.297,0.45-0.531c0.06-0.234,0.035-0.477-0.072-0.729
			c-0.108-0.252-0.276-0.417-0.504-0.495c-0.229-0.078-0.462-0.063-0.702,0.045c-0.396,0.18-0.783,0.309-1.161,0.387
			s-0.819,0.117-1.323,0.117c-0.804,0-1.407-0.204-1.809-0.612c-0.402-0.408-0.604-0.936-0.604-1.584v-0.036h5.112
			c0.576,0,0.975-0.108,1.197-0.324c0.222-0.216,0.333-0.606,0.333-1.17v-0.036c0-0.684-0.105-1.29-0.315-1.818
			c-0.21-0.528-0.507-0.972-0.891-1.332c-0.384-0.36-0.84-0.636-1.368-0.828s-1.116-0.288-1.764-0.288
			C1224.335,38.97,1223.23,39.369,1222.427,40.167 M1227.395,41.427c0.336,0.39,0.504,0.879,0.504,1.467v0.18h-4.464v-0.126
			c0-0.612,0.189-1.116,0.567-1.512c0.378-0.396,0.945-0.594,1.701-0.594C1226.495,40.842,1227.059,41.037,1227.395,41.427
			 M1208.333,39.366c-0.468,0.264-0.834,0.642-1.098,1.134v-0.504c0-0.312-0.111-0.543-0.333-0.693
			c-0.223-0.15-0.472-0.225-0.747-0.225c-0.276,0-0.522,0.075-0.738,0.225s-0.324,0.381-0.324,0.693v7.902
			c0,0.324,0.117,0.564,0.352,0.72c0.233,0.156,0.495,0.234,0.782,0.234c0.301,0,0.564-0.078,0.792-0.234
			c0.229-0.156,0.343-0.396,0.343-0.72V43.02c0-0.684,0.168-1.194,0.504-1.53s0.773-0.504,1.313-0.504
			c0.252,0,0.486,0.033,0.702,0.099c0.216,0.066,0.405,0.183,0.567,0.351c0.162,0.168,0.291,0.39,0.387,0.666
			c0.096,0.276,0.144,0.624,0.144,1.044v4.752c0,0.324,0.117,0.564,0.352,0.72c0.234,0.156,0.495,0.234,0.783,0.234
			c0.3,0,0.563-0.078,0.792-0.234c0.228-0.156,0.342-0.396,0.342-0.72V43.11c0-0.408,0.054-0.75,0.162-1.026
			c0.107-0.276,0.246-0.495,0.414-0.657s0.362-0.276,0.585-0.342c0.222-0.066,0.44-0.099,0.656-0.099c0.24,0,0.469,0.03,0.685,0.09
			s0.408,0.171,0.576,0.333c0.168,0.162,0.3,0.387,0.396,0.675s0.145,0.654,0.145,1.098v4.716c0,0.324,0.117,0.564,0.351,0.72
			c0.234,0.156,0.495,0.234,0.783,0.234c0.3,0,0.563-0.078,0.792-0.234c0.228-0.156,0.342-0.396,0.342-0.72v-5.184
			c0-0.624-0.093-1.17-0.279-1.638c-0.186-0.468-0.435-0.858-0.746-1.17c-0.313-0.312-0.676-0.546-1.09-0.702
			c-0.414-0.156-0.849-0.234-1.305-0.234c-0.756,0-1.371,0.126-1.845,0.378c-0.475,0.252-0.886,0.63-1.233,1.134
			c-0.18-0.456-0.513-0.822-0.999-1.098c-0.485-0.276-1.035-0.414-1.646-0.414C1209.353,38.97,1208.801,39.102,1208.333,39.366"/>
		<g opacity="0.25" clip-path="url(#SVGID_4_)">
			<g>
				<defs>
					<rect id="SVGID_5_" x="500.783" y="193.444" width="277.422" height="239.553"/>
				</defs>
				<clipPath id="SVGID_6_">
					<use xlink:href="#SVGID_5_"  overflow="visible"/>
				</clipPath>
				<g clip-path="url(#SVGID_6_)">
					<defs>
						<rect id="SVGID_7_" x="500.783" y="193.444" width="277.422" height="239.553"/>
					</defs>
					<clipPath id="SVGID_8_">
						<use xlink:href="#SVGID_7_"  overflow="visible"/>
					</clipPath>
					<path clip-path="url(#SVGID_8_)" fill="#C6C6C6" d="M553.362,362.747l86.132,49.527l86.133-49.527v-99.053l-86.133-49.526
						l-86.132,49.526V362.747z M639.494,413.475l-0.261-0.15l-86.916-49.977V263.094l0.261-0.151l86.916-49.976l0.261,0.15
						l86.916,49.977v100.254l-0.261,0.15L639.494,413.475z"/>
					<path clip-path="url(#SVGID_8_)" fill="#C6C6C6" d="M571.241,430.957h136.505l68.252-117.736l-68.252-117.737H571.241
						l-68.253,117.737L571.241,430.957z M708.351,431.997H570.638l-0.151-0.26l-68.705-118.516l0.151-0.261l68.705-118.516h137.712
						l0.149,0.26l68.704,118.517l-0.15,0.26L708.351,431.997z"/>
					<rect x="638.971" y="194.964" clip-path="url(#SVGID_8_)" fill="#C6C6C6" width="1.045" height="236.514"/>
					<polygon clip-path="url(#SVGID_8_)" fill="#C6C6C6" points="742.063,372.8 536.401,254.544 536.924,253.642 742.586,371.9 
											"/>
					<polygon clip-path="url(#SVGID_8_)" fill="#C6C6C6" points="536.924,372.8 536.401,371.9 742.063,253.642 742.587,254.544 
											"/>
					<polygon clip-path="url(#SVGID_8_)" fill="#C6C6C6" points="707.597,431.738 570.487,195.224 571.393,194.704 708.5,431.219 
											"/>
					<rect x="502.386" y="312.7" clip-path="url(#SVGID_8_)" fill="#C6C6C6" width="274.217" height="1.041"/>
					<polygon clip-path="url(#SVGID_8_)" fill="#C6C6C6" points="571.392,431.738 570.487,431.219 707.596,194.704 708.5,195.224 
											"/>
				</g>
			</g>
		</g>
	</g>
	<g clip-path="url(#SVGID_2_)">
		<defs>
			<rect id="SVGID_9_" width="1299.583" height="800"/>
		</defs>
		<clipPath id="SVGID_10_">
			<use xlink:href="#SVGID_9_"  overflow="visible"/>
		</clipPath>
		<g clip-path="url(#SVGID_10_)">
			<defs>
				<rect id="SVGID_11_" x="-1.106" width="1302.227" height="800"/>
			</defs>
			<clipPath id="SVGID_12_">
				<use xlink:href="#SVGID_11_"  overflow="visible"/>
			</clipPath>
			<g transform="matrix(1 0 0 1 0 0)" clip-path="url(#SVGID_12_)">
				
					<image overflow="visible" width="1535" height="943" xlink:href="ACB143A2.jpg"  transform="matrix(0.8484 0 0 0.8484 -1.1064 0)">
				</image>
			</g>
		</g>
	</g>
	<g clip-path="url(#SVGID_2_)">
		<defs>
			<rect id="SVGID_13_" width="1300" height="800"/>
		</defs>
		<clipPath id="SVGID_14_">
			<use xlink:href="#SVGID_13_"  overflow="visible"/>
		</clipPath>
		<g opacity="0.87" clip-path="url(#SVGID_14_)">
			<g>
				<defs>
					<rect id="SVGID_15_" x="-1.417" y="-1" width="1301.998" height="802"/>
				</defs>
				<clipPath id="SVGID_16_">
					<use xlink:href="#SVGID_15_"  overflow="visible"/>
				</clipPath>
				<rect x="-0.417" clip-path="url(#SVGID_16_)" fill="#3F26EC" width="1300" height="800"/>
			</g>
		</g>
		<circle clip-path="url(#SVGID_14_)" fill="none" stroke="#FFFFFF" stroke-width="0.283" cx="649.685" cy="583.937" r="36.82"/>
	</g>
	<g clip-path="url(#SVGID_2_)">
		
			<text transform="matrix(0.9833 -0.1822 0.1822 0.9833 636.5869 560.7266)" fill="#3F26EC" font-family="'AdobeMyungjoStd-Medium-KSCpc-EUC-H'" font-size="3.8496"> </text>
	</g>
	<g clip-path="url(#SVGID_2_)">
		<defs>
			<rect id="SVGID_17_" width="1300" height="800"/>
		</defs>
		<clipPath id="SVGID_18_">
			<use xlink:href="#SVGID_17_"  overflow="visible"/>
		</clipPath>
		<path clip-path="url(#SVGID_18_)" fill="#FFFFFF" d="M664.032,557.64l0.785-0.306c0.154,0.443,0.365,0.772,0.689,0.98
			c0.349,0.223,0.601,0.174,0.74-0.044c0.168-0.261-0.117-0.612-0.394-0.991c-0.334-0.452-0.672-1.047-0.3-1.626
			c0.403-0.629,1.198-0.743,1.982-0.239c0.511,0.327,0.761,0.787,0.913,1.193l-0.767,0.29c-0.137-0.334-0.3-0.615-0.562-0.783
			c-0.312-0.199-0.548-0.158-0.676,0.041c-0.164,0.255,0.117,0.568,0.397,0.941c0.349,0.47,0.711,1.027,0.295,1.676
			c-0.392,0.609-1.187,0.794-2.096,0.21C664.575,558.684,664.189,558.146,664.032,557.64"/>
		<path clip-path="url(#SVGID_18_)" fill="#FFFFFF" d="M668.268,558.525c0.883-1.066,2.156-1.052,3.023-0.335
			c0.394,0.325,0.569,0.729,0.638,1.122l-0.847,0.212c-0.047-0.269-0.134-0.465-0.317-0.616c-0.484-0.4-1.141-0.28-1.641,0.324
			c-0.495,0.6-0.485,1.261-0.022,1.644c0.229,0.188,0.534,0.259,0.834,0.257l-0.127,0.827c-0.523,0.018-1.011-0.183-1.364-0.476
			C667.56,560.754,667.396,559.582,668.268,558.525"/>
		<path clip-path="url(#SVGID_18_)" fill="#FFFFFF" d="M673.094,559.983l0.612,0.643l-0.48,0.559l0.021,0.021
			c0.601-0.151,1.12-0.035,1.416,0.276c0.157,0.166,0.223,0.288,0.271,0.415l-0.813,0.508c-0.064-0.133-0.131-0.234-0.247-0.357
			c-0.225-0.235-0.649-0.371-1.246-0.13l-1.789,1.702l-0.744-0.782L673.094,559.983z"/>
		<path clip-path="url(#SVGID_18_)" fill="#FFFFFF" d="M673.729,563.697c1.109-0.828,2.321-0.54,2.94,0.291
			c0.62,0.831,0.55,2.075-0.56,2.902c-1.099,0.818-2.311,0.531-2.931-0.3C672.561,565.76,672.63,564.517,673.729,563.697
			 M675.445,566c0.629-0.469,0.848-1.029,0.512-1.48s-0.936-0.401-1.564,0.068c-0.623,0.465-0.838,1.021-0.5,1.472
			C674.229,566.511,674.822,566.466,675.445,566"/>
		<path clip-path="url(#SVGID_18_)" fill="#FFFFFF" d="M675.863,568.372l4.118-2.347l0.534,0.937l-4.162,2.374
			c-0.212,0.12-0.225,0.263-0.174,0.354c0.022,0.038,0.037,0.064,0.087,0.121l-0.635,0.515c-0.107-0.083-0.237-0.223-0.361-0.44
			C674.896,569.229,675.195,568.753,675.863,568.372"/>
		<path clip-path="url(#SVGID_18_)" fill="#FFFFFF" d="M677.005,570.497l4.274-2.044l0.466,0.973l-4.321,2.067
			c-0.22,0.104-0.241,0.247-0.197,0.34c0.019,0.04,0.031,0.067,0.077,0.127l-0.669,0.468c-0.102-0.091-0.222-0.238-0.329-0.465
			C675.98,571.282,676.313,570.829,677.005,570.497"/>
		<path clip-path="url(#SVGID_18_)" fill="#FFFFFF" d="M679.549,584.138l0.652,0.531c-0.308,0.354-0.488,0.7-0.51,1.084
			c-0.021,0.413,0.146,0.607,0.403,0.622c0.311,0.016,0.474-0.405,0.667-0.831c0.228-0.514,0.578-1.103,1.265-1.066
			c0.746,0.041,1.237,0.674,1.188,1.605c-0.032,0.604-0.309,1.05-0.585,1.383l-0.632-0.523c0.224-0.283,0.387-0.563,0.403-0.874
			c0.02-0.369-0.134-0.555-0.37-0.567c-0.303-0.017-0.435,0.384-0.621,0.811c-0.235,0.535-0.542,1.126-1.31,1.085
			c-0.725-0.039-1.277-0.639-1.219-1.717C678.91,585.126,679.187,584.525,679.549,584.138"/>
		<path clip-path="url(#SVGID_18_)" fill="#FFFFFF" d="M680.869,588.264c1.36,0.243,1.973,1.358,1.775,2.464
			c-0.089,0.502-0.354,0.854-0.662,1.106l-0.601-0.632c0.211-0.174,0.339-0.347,0.381-0.578c0.11-0.619-0.317-1.131-1.089-1.269
			c-0.764-0.136-1.334,0.198-1.439,0.787c-0.052,0.291,0.037,0.592,0.187,0.853l-0.781,0.296c-0.272-0.447-0.338-0.97-0.258-1.42
			C678.583,588.743,679.521,588.023,680.869,588.264"/>
		<path clip-path="url(#SVGID_18_)" fill="#FFFFFF" d="M681.976,593.189l-0.26,0.849l-0.721-0.145l-0.009,0.028
			c0.427,0.448,0.58,0.959,0.454,1.368c-0.067,0.219-0.142,0.336-0.229,0.44l-0.841-0.459c0.084-0.121,0.14-0.228,0.189-0.391
			c0.096-0.311,0.006-0.748-0.498-1.149l-2.359-0.724l0.316-1.031L681.976,593.189z"/>
		<path clip-path="url(#SVGID_18_)" fill="#FFFFFF" d="M679.057,595.568c1.264,0.562,1.606,1.759,1.186,2.705
			c-0.421,0.947-1.539,1.494-2.803,0.932c-1.25-0.556-1.593-1.753-1.172-2.699S677.807,595.013,679.057,595.568 M677.891,598.191
			c0.717,0.319,1.312,0.235,1.541-0.278c0.228-0.514-0.109-1.012-0.826-1.331c-0.709-0.314-1.298-0.229-1.527,0.285
			C676.851,597.38,677.181,597.875,677.891,598.191"/>
		<path clip-path="url(#SVGID_18_)" fill="#FFFFFF" d="M676.039,599.722l4.069,2.426l-0.553,0.926l-4.113-2.452
			c-0.209-0.125-0.34-0.064-0.394,0.024c-0.021,0.038-0.037,0.063-0.063,0.135l-0.76-0.299c0.02-0.134,0.077-0.315,0.205-0.531
			C674.817,599.303,675.379,599.327,676.039,599.722"/>
		<path clip-path="url(#SVGID_18_)" fill="#FFFFFF" d="M674.754,601.762l3.894,2.709l-0.617,0.888l-3.936-2.739
			c-0.2-0.139-0.334-0.089-0.395-0.004c-0.024,0.037-0.042,0.061-0.072,0.13l-0.737-0.352c0.028-0.133,0.098-0.31,0.242-0.517
			C673.563,601.258,674.122,601.322,674.754,601.762"/>
		<path clip-path="url(#SVGID_18_)" fill="#FFFFFF" d="M659.427,612.759l-0.294,0.79c-0.434-0.178-0.819-0.238-1.189-0.135
			c-0.399,0.112-0.53,0.333-0.46,0.582c0.084,0.299,0.536,0.319,1.002,0.365c0.56,0.05,1.229,0.193,1.416,0.854
			c0.202,0.721-0.24,1.391-1.139,1.643c-0.585,0.164-1.094,0.045-1.499-0.11l0.292-0.766c0.342,0.119,0.659,0.184,0.958,0.1
			c0.357-0.1,0.484-0.305,0.42-0.533c-0.081-0.292-0.504-0.289-0.968-0.327c-0.584-0.052-1.241-0.151-1.45-0.893
			c-0.195-0.698,0.195-1.415,1.235-1.707C658.286,612.473,658.943,612.541,659.427,612.759"/>
		<path clip-path="url(#SVGID_18_)" fill="#FFFFFF" d="M655.935,615.354c0.2,1.37-0.666,2.304-1.78,2.466
			c-0.505,0.074-0.922-0.066-1.26-0.279l0.412-0.771c0.23,0.146,0.435,0.213,0.669,0.179c0.623-0.091,0.974-0.657,0.86-1.435
			c-0.112-0.769-0.609-1.205-1.202-1.118c-0.293,0.042-0.551,0.222-0.751,0.446l-0.528-0.649c0.338-0.4,0.813-0.627,1.269-0.692
			C654.758,613.335,655.736,614,655.935,615.354"/>
		<path clip-path="url(#SVGID_18_)" fill="#FFFFFF" d="M651.693,617.965l-0.886,0.038l-0.105-0.728l-0.029,0.001
			c-0.28,0.552-0.71,0.867-1.138,0.885c-0.229,0.011-0.364-0.021-0.492-0.066l0.152-0.946c0.142,0.038,0.261,0.055,0.431,0.047
			c0.325-0.014,0.708-0.245,0.917-0.853l-0.107-2.467l1.079-0.048L651.693,617.965z"/>
		<path clip-path="url(#SVGID_18_)" fill="#FFFFFF" d="M648.406,616.004c-0.152,1.375-1.188,2.065-2.217,1.952
			c-1.03-0.113-1.891-1.012-1.74-2.387c0.149-1.361,1.186-2.052,2.215-1.938C647.694,613.745,648.555,614.643,648.406,616.004
			 M645.552,615.69c-0.086,0.779,0.175,1.321,0.734,1.383s0.931-0.411,1.016-1.191c0.085-0.771-0.176-1.307-0.735-1.368
			C646.008,614.452,645.637,614.918,645.552,615.69"/>
		<path clip-path="url(#SVGID_18_)" fill="#FFFFFF" d="M643.517,614.444l-1.095,4.617l-1.052-0.25l1.107-4.667
			c0.057-0.238-0.04-0.344-0.14-0.368c-0.044-0.01-0.072-0.017-0.148-0.02l0.057-0.816c0.134-0.021,0.324-0.021,0.569,0.037
			C643.55,613.151,643.695,613.695,643.517,614.444"/>
		<path clip-path="url(#SVGID_18_)" fill="#FFFFFF" d="M641.175,613.86l-1.428,4.52l-1.029-0.325l1.443-4.569
			c0.074-0.231-0.014-0.345-0.113-0.377c-0.042-0.013-0.071-0.021-0.146-0.03l0.116-0.809c0.136-0.011,0.325,0.002,0.565,0.078
			C641.302,612.574,641.407,613.128,641.175,613.86"/>
		<path clip-path="url(#SVGID_18_)" fill="#FFFFFF" d="M627.302,604.39l-0.84,0.05c-0.012-0.469-0.112-0.846-0.357-1.144
			c-0.263-0.318-0.517-0.349-0.717-0.185c-0.24,0.198-0.076,0.618,0.07,1.063c0.18,0.532,0.32,1.202-0.211,1.64
			c-0.576,0.475-1.367,0.34-1.959-0.379c-0.385-0.468-0.483-0.981-0.504-1.414l0.818-0.042c0.028,0.359,0.098,0.677,0.295,0.917
			c0.235,0.285,0.473,0.317,0.656,0.168c0.234-0.193,0.061-0.577-0.091-1.018c-0.188-0.554-0.362-1.195,0.232-1.685
			c0.559-0.46,1.372-0.392,2.058,0.441C627.104,603.23,627.306,603.859,627.302,604.39"/>
		<path clip-path="url(#SVGID_18_)" fill="#FFFFFF" d="M623.527,602.19c-1.184,0.716-2.381,0.281-2.963-0.681
			c-0.265-0.438-0.297-0.876-0.232-1.271l0.87,0.08c-0.045,0.27-0.028,0.483,0.095,0.687c0.325,0.538,0.984,0.641,1.655,0.234
			c0.665-0.401,0.874-1.029,0.564-1.543c-0.154-0.253-0.419-0.421-0.703-0.518l0.392-0.738c0.501,0.155,0.894,0.505,1.132,0.898
			C624.931,600.321,624.7,601.481,623.527,602.19"/>
		<path clip-path="url(#SVGID_18_)" fill="#FFFFFF" d="M619.419,599.226l-0.363-0.809l0.638-0.367l-0.012-0.027
			c-0.616-0.056-1.067-0.34-1.243-0.73c-0.093-0.209-0.114-0.346-0.118-0.481l0.935-0.209c0.017,0.147,0.045,0.264,0.115,0.419
			c0.132,0.297,0.488,0.566,1.131,0.538l2.253-1.01l0.441,0.984L619.419,599.226z"/>
		<path clip-path="url(#SVGID_18_)" fill="#FFFFFF" d="M620.007,595.517c-1.324,0.402-2.366-0.278-2.668-1.27
			c-0.301-0.991,0.186-2.138,1.51-2.539c1.31-0.398,2.352,0.283,2.654,1.273C621.804,593.973,621.316,595.119,620.007,595.517
			 M619.172,592.77c-0.75,0.229-1.146,0.682-0.983,1.22c0.164,0.537,0.745,0.693,1.495,0.466c0.743-0.227,1.132-0.678,0.969-1.215
			C620.489,592.702,619.915,592.544,619.172,592.77"/>
		<path clip-path="url(#SVGID_18_)" fill="#FFFFFF" d="M619.532,590.436l-4.646,0.919l-0.209-1.058l4.696-0.93
			c0.24-0.048,0.296-0.179,0.276-0.28c-0.008-0.043-0.014-0.072-0.043-0.143l0.764-0.287c0.075,0.113,0.155,0.286,0.203,0.533
			C620.72,589.93,620.286,590.286,619.532,590.436"/>
		<path clip-path="url(#SVGID_18_)" fill="#FFFFFF" d="M619.125,588.054l-4.705,0.566l-0.129-1.071l4.756-0.573
			c0.242-0.029,0.309-0.156,0.297-0.259c-0.006-0.045-0.009-0.073-0.033-0.146l0.784-0.228c0.067,0.117,0.133,0.296,0.163,0.546
			C620.349,587.638,619.889,587.961,619.125,588.054"/>
		<path clip-path="url(#SVGID_18_)" fill="#FFFFFF" d="M621.362,573.451l-0.421-0.729c0.414-0.221,0.707-0.479,0.864-0.831
			c0.168-0.379,0.081-0.619-0.156-0.725c-0.284-0.126-0.586,0.209-0.919,0.538c-0.396,0.399-0.933,0.824-1.562,0.545
			c-0.683-0.304-0.916-1.072-0.537-1.923c0.246-0.555,0.662-0.872,1.04-1.084l0.404,0.714c-0.31,0.187-0.562,0.389-0.689,0.673
			c-0.15,0.338-0.073,0.567,0.143,0.663c0.277,0.123,0.544-0.204,0.87-0.536c0.412-0.416,0.908-0.858,1.611-0.547
			c0.663,0.295,0.965,1.053,0.526,2.04C622.311,572.756,621.838,573.217,621.362,573.451"/>
		<path clip-path="url(#SVGID_18_)" fill="#FFFFFF" d="M621.582,569.124c-1.187-0.708-1.365-1.967-0.79-2.932
			c0.261-0.438,0.633-0.672,1.01-0.8l0.338,0.804c-0.258,0.087-0.439,0.203-0.56,0.406c-0.322,0.539-0.103,1.169,0.57,1.57
			c0.666,0.396,1.317,0.286,1.624-0.229c0.151-0.254,0.174-0.566,0.127-0.862l0.835-0.001c0.098,0.515-0.026,1.025-0.261,1.42
			C623.887,569.484,622.755,569.824,621.582,569.124"/>
		<path clip-path="url(#SVGID_18_)" fill="#FFFFFF" d="M622.268,564.122l0.542-0.703l0.625,0.389l0.018-0.023
			c-0.242-0.57-0.206-1.102,0.056-1.442c0.14-0.182,0.251-0.265,0.369-0.333l0.626,0.727c-0.121,0.085-0.21,0.165-0.313,0.3
			c-0.199,0.257-0.268,0.699,0.062,1.252l1.957,1.509l-0.66,0.855L622.268,564.122z"/>
		<path clip-path="url(#SVGID_18_)" fill="#FFFFFF" d="M625.835,562.922c-0.987-0.971-0.888-2.211-0.162-2.95
			c0.726-0.739,1.966-0.86,2.953,0.109c0.977,0.961,0.878,2.201,0.152,2.94C628.051,563.761,626.812,563.882,625.835,562.922
			 M627.848,560.873c-0.56-0.55-1.147-0.681-1.541-0.279c-0.395,0.401-0.253,0.986,0.306,1.537c0.555,0.544,1.137,0.67,1.531,0.269
			S628.402,561.419,627.848,560.873"/>
		<path clip-path="url(#SVGID_18_)" fill="#FFFFFF" d="M630.121,560.091l-2.954-3.707l0.845-0.673l2.986,3.748
			c0.152,0.191,0.295,0.181,0.376,0.116c0.035-0.028,0.058-0.046,0.106-0.104l0.607,0.548c-0.066,0.117-0.183,0.268-0.38,0.425
			C631.117,560.914,630.6,560.692,630.121,560.091"/>
		<path clip-path="url(#SVGID_18_)" fill="#FFFFFF" d="M632.048,558.636l-2.67-3.912l0.891-0.608l2.699,3.956
			c0.138,0.2,0.281,0.2,0.367,0.143c0.036-0.025,0.061-0.042,0.113-0.095l0.564,0.59c-0.074,0.113-0.202,0.254-0.409,0.396
			C632.979,559.53,632.48,559.271,632.048,558.636"/>
		<path clip-path="url(#SVGID_18_)" fill="none" stroke="#FFFFFF" stroke-width="0.25" stroke-miterlimit="10" d="M631.87,594.738
			l17.815,10.285l17.815-10.285v-20.572l-17.815-10.286l-17.815,10.286V594.738z M649.685,605.148l-0.027-0.017l-17.896-10.331
			v-20.696l0.027-0.016l17.896-10.333l0.027,0.017l17.896,10.332v20.696l-0.027,0.015L649.685,605.148z"/>
		<path clip-path="url(#SVGID_18_)" fill="none" stroke="#FFFFFF" stroke-width="0.25" stroke-miterlimit="10" d="M635.579,608.884
			h28.212l14.105-24.431l-14.105-24.433h-28.212l-14.105,24.433L635.579,608.884z M663.854,608.992h-28.336l-0.015-0.027
			l-14.153-24.512l0.016-0.027l14.152-24.513h28.336l0.016,0.026l14.152,24.514l-0.017,0.026L663.854,608.992z"/>
		
			<rect x="649.631" y="559.967" clip-path="url(#SVGID_18_)" fill="none" stroke="#FFFFFF" stroke-width="0.25" stroke-miterlimit="10" width="0.108" height="48.972"/>
		
			<rect x="625.2" y="584.399" transform="matrix(0.866 0.5 -0.5 0.866 379.2796 -246.5447)" clip-path="url(#SVGID_18_)" fill="none" stroke="#FFFFFF" stroke-width="0.25" stroke-miterlimit="10" width="48.971" height="0.107"/>
		
			<rect x="649.631" y="559.967" transform="matrix(0.5044 0.8634 -0.8634 0.5044 826.6053 -271.3359)" clip-path="url(#SVGID_18_)" fill="none" stroke="#FFFFFF" stroke-width="0.25" stroke-miterlimit="10" width="0.107" height="48.971"/>
		
			<rect x="621.412" y="584.399" transform="matrix(0.5 0.866 -0.866 0.5 830.991 -270.4182)" clip-path="url(#SVGID_18_)" fill="none" stroke="#FFFFFF" stroke-width="0.25" stroke-miterlimit="10" width="56.547" height="0.108"/>
		
			<rect x="621.412" y="584.398" clip-path="url(#SVGID_18_)" fill="none" stroke="#FFFFFF" stroke-width="0.25" stroke-miterlimit="10" width="56.547" height="0.107"/>
		
			<rect x="649.631" y="556.18" transform="matrix(0.8654 0.501 -0.501 0.8654 380.2625 -246.8636)" clip-path="url(#SVGID_18_)" fill="none" stroke="#FFFFFF" stroke-width="0.25" stroke-miterlimit="10" width="0.107" height="56.546"/>
		<polygon clip-path="url(#SVGID_18_)" fill="#3F26EC" points="667.283,574.15 649.634,564.039 632.024,574.15 631.983,594.474 
			649.634,604.777 667.283,594.474 		"/>
		<path clip-path="url(#SVGID_18_)" fill="#FFFFFF" d="M654.084,584.122c-0.252-0.235-0.647-0.223-0.884,0.032l-2.891,3.107v-8.241
			c0-0.345-0.279-0.625-0.625-0.625c-0.345,0-0.625,0.28-0.625,0.625v8.241l-2.89-3.107c-0.235-0.255-0.631-0.269-0.883-0.032
			c-0.253,0.234-0.268,0.63-0.032,0.883l3.973,4.272c0.002,0.004,0.006,0.004,0.008,0.007c0.052,0.055,0.115,0.098,0.185,0.131
			c0.006,0.003,0.01,0.008,0.016,0.011c0.076,0.033,0.16,0.052,0.248,0.052c0.089,0,0.173-0.019,0.249-0.052
			c0.006-0.003,0.01-0.008,0.016-0.011c0.07-0.033,0.133-0.076,0.185-0.131c0.002-0.003,0.007-0.003,0.009-0.007l3.974-4.272
			C654.352,584.752,654.337,584.356,654.084,584.122"/>
		<path clip-path="url(#SVGID_18_)" fill="#FFFFFF" d="M567.726,182.141l-7.116,4.091c-1.677,0.965-2.711,2.748-2.713,4.678v8.185
			c0,1.929,1.036,3.712,2.713,4.677l7.116,4.092c1.678,0.964,3.744,0.964,5.424,0l7.116-4.094c0.838-0.481,1.516-1.169,1.984-1.975
			c0.469-0.807,0.727-1.735,0.727-2.7v-8.185c0-1.93-1.033-3.713-2.711-4.678l-7.116-4.091
			C571.47,181.176,569.404,181.176,567.726,182.141"/>
		<path clip-path="url(#SVGID_18_)" fill="#FFFFFF" d="M706.662,425.08l-4.27,2.455c-1.008,0.58-1.627,1.65-1.627,2.807v4.91
			c0,1.157,0.619,2.228,1.627,2.808l4.27,2.454c1.008,0.578,2.246,0.578,3.254,0l4.269-2.454c0.504-0.291,0.911-0.701,1.192-1.188
			c0.281-0.483,0.435-1.04,0.435-1.62v-4.91c0-1.156-0.618-2.227-1.627-2.807l-4.269-2.455
			C708.908,424.5,707.67,424.5,706.662,425.08"/>
		<path clip-path="url(#SVGID_18_)" fill="#FFFFFF" d="M493.988,311.444v4.909c0,1.16,0.621,2.228,1.627,2.808l4.269,2.455
			c1.008,0.58,2.248,0.58,3.254,0l4.271-2.455c1.006-0.58,1.627-1.648,1.627-2.808v-4.909c0-0.58-0.156-1.137-0.437-1.62
			c-0.281-0.484-0.688-0.896-1.19-1.185l-4.271-2.457c-1.006-0.578-2.246-0.578-3.254,0l-4.269,2.457
			C494.609,309.216,493.988,310.287,493.988,311.444"/>
		<path clip-path="url(#SVGID_18_)" fill="#FFFFFF" d="M560.61,441.566l7.116,4.091c1.677,0.965,3.746,0.965,5.424,0l7.116-4.091
			c1.677-0.965,2.71-2.748,2.71-4.678v-8.185c0-1.928-1.033-3.711-2.71-4.676l-7.116-4.093c-0.84-0.482-1.777-0.723-2.713-0.723
			c-0.935,0-1.871,0.24-2.711,0.723l-7.116,4.093c-1.678,0.965-2.711,2.748-2.711,4.676v8.185
			C557.898,438.818,558.932,440.602,560.61,441.566"/>
		<path clip-path="url(#SVGID_18_)" fill="#FFFFFF" d="M702.392,200.264l4.27,2.455c1.008,0.579,2.248,0.579,3.254,0l4.271-2.455
			c1.007-0.58,1.627-1.648,1.627-2.805v-4.912c0-1.158-0.62-2.228-1.627-2.805l-4.271-2.455c-0.504-0.291-1.066-0.436-1.627-0.436
			c-0.562,0-1.123,0.146-1.627,0.436l-4.27,2.455c-1.008,0.577-1.627,1.647-1.627,2.805v4.912
			C700.765,198.616,701.384,199.684,702.392,200.264"/>
		<path clip-path="url(#SVGID_18_)" fill="#FFFFFF" d="M744.131,347.903l-12.947-7.444c-3.054-1.756-6.813-1.756-9.867,0
			l-12.947,7.444c-3.055,1.756-4.935,4.999-4.935,8.51v0.667c-0.029,1.987-0.28,8.134-2.232,12.294
			c-0.089,0.222-0.218,0.463-0.345,0.704c-0.017,0.025-0.028,0.057-0.041,0.082c-2.217,4.064-9.742,10.364-19.56,16.01
			c-9.817,5.645-19.057,8.986-23.701,8.865c-0.037,0-0.075-0.007-0.112-0.007c-0.266-0.012-0.532-0.018-0.765-0.053
			c-4.412-0.38-9.633-3.03-11.583-4.098l-0.798-0.458c-3.054-1.756-6.814-1.756-9.868,0l-0.014,0.007l0.002-0.005
			c0,0-6.837,4.068-12.376,4.545c-0.233,0.034-0.5,0.044-0.764,0.053c-0.037,0.002-0.078,0.007-0.115,0.009
			c-4.642,0.119-13.882-3.22-23.699-8.865c-9.82-5.645-17.343-11.946-19.559-16.01c-0.016-0.027-0.028-0.057-0.041-0.084
			c-0.129-0.241-0.256-0.479-0.346-0.704c-1.854-3.951-2.174-9.697-2.225-11.964v-0.988c0-1.756-0.472-3.445-1.323-4.914
			c-0.852-1.469-2.085-2.718-3.611-3.596l-0.336-0.193c-1.42-0.829-7.037-4.263-9.806-8.212c-0.145-0.181-0.288-0.408-0.428-0.63
			c-0.021-0.032-0.044-0.064-0.064-0.096c-2.426-3.942-4.143-13.582-4.143-24.872c0-11.291,1.717-20.933,4.145-24.875
			c0.014-0.028,0.034-0.053,0.051-0.078c0.145-0.229,0.29-0.461,0.439-0.649c2.78-3.962,8.432-7.407,9.824-8.221l0.29-0.167
			c0.005-0.002,0.028-0.014,0.028-0.014v-0.002c1.526-0.878,2.759-2.127,3.611-3.596c0.851-1.469,1.323-3.159,1.323-4.914v-0.995
			c0.053-2.276,0.373-8.008,2.225-11.952c0.088-0.218,0.212-0.452,0.336-0.686c0.019-0.032,0.033-0.069,0.051-0.103
			c2.216-4.064,9.741-10.364,19.559-16.009c9.817-5.645,19.057-8.985,23.699-8.863c0.032,0,0.064,0.004,0.094,0.004
			c0.274,0.012,0.546,0.021,0.785,0.055c5.539,0.477,12.376,4.545,12.376,4.545l-0.007-0.009l0.019,0.009
			c1.526,0.878,3.231,1.316,4.934,1.316c1.703,0,3.406-0.438,4.934-1.316l0.007-0.004l-0.005,0.004c0,0,6.837-4.068,12.379-4.545
			c0.237-0.034,0.511-0.043,0.782-0.055c0.033,0,0.065-0.004,0.095-0.004c4.642-0.122,13.884,3.218,23.701,8.863
			s17.34,11.945,19.56,16.009c0.018,0.034,0.031,0.071,0.05,0.103c0.122,0.234,0.249,0.468,0.334,0.686
			c1.944,4.139,2.202,10.249,2.234,12.266v0.681c0,3.511,1.88,6.754,4.935,8.51l12.947,7.446c3.054,1.756,6.813,1.756,9.867,0
			l12.947-7.444c3.054-1.756,4.934-5.001,4.934-8.512v-14.891c0-1.753-0.472-3.443-1.322-4.912c-0.853-1.469-2.085-2.72-3.611-3.598
			l-12.947-7.444c-3.054-1.756-6.813-1.756-9.867,0l-0.527,0.302c-1.692,0.944-7.217,3.844-11.847,4.243
			c-0.233,0.034-0.5,0.043-0.765,0.055c-0.037,0-0.076,0.006-0.115,0.006c-4.642,0.12-13.882-3.22-23.698-8.865
			c-9.818-5.645-17.344-11.945-19.56-16.009c-0.016-0.028-0.027-0.057-0.042-0.085c-0.128-0.238-0.255-0.479-0.345-0.701
			c-2.354-5.017-2.237-12.95-2.237-12.95l-0.002,0.007v-0.007c0-3.511-1.88-6.757-4.934-8.512l-12.947-7.444
			c-3.054-1.756-6.814-1.756-9.868,0l-12.947,7.444c-3.054,1.755-4.934,5.001-4.934,8.512v0.019l-0.012-0.019
			c0,0,0.12,7.933-2.234,12.95c-0.09,0.222-0.219,0.463-0.346,0.701c-0.016,0.028-0.027,0.057-0.041,0.085
			c-2.216,4.064-9.742,10.364-19.559,16.009c-9.817,5.646-19.059,8.985-23.701,8.865c-0.037,0-0.076-0.006-0.113-0.006
			c-0.265-0.012-0.532-0.021-0.764-0.055c-4.467-0.383-9.771-3.102-11.663-4.14l-0.704-0.405c-3.054-1.756-6.814-1.756-9.868,0
			l-12.947,7.444c-3.054,1.756-4.934,5.001-4.934,8.51v14.891c0,3.511,1.88,6.756,4.931,8.512h0.003l0.004,0.002l0.327,0.188
			c1.413,0.825,7.037,4.261,9.808,8.212c0.15,0.188,0.295,0.42,0.44,0.649c0.016,0.025,0.037,0.05,0.053,0.078
			c2.425,3.942,4.142,13.584,4.142,24.875c0,11.29-1.717,20.93-4.142,24.872c-0.019,0.032-0.044,0.064-0.065,0.096
			c-0.14,0.222-0.28,0.449-0.428,0.63c-2.771,3.952-8.395,7.387-9.808,8.215l-0.327,0.185l-0.004,0.005h-0.003
			c-3.051,1.756-4.931,4.999-4.931,8.51v14.891c0,3.511,1.88,6.754,4.931,8.51l12.95,7.446c3.051,1.756,6.814,1.756,9.868,0
			l0.483-0.279c1.648-0.922,7.217-3.862,11.882-4.263c0.239-0.034,0.513-0.044,0.785-0.055c0.029,0,0.064-0.005,0.094-0.005
			c4.642-0.121,13.884,3.218,23.701,8.863s17.34,11.946,19.559,16.01c0.016,0.032,0.032,0.071,0.048,0.104
			c0.125,0.23,0.251,0.467,0.339,0.685c2.354,5.018,2.234,12.947,2.234,12.947l0.012-0.019v0.017c0,3.511,1.88,6.754,4.934,8.51
			l12.947,7.447c1.526,0.875,3.231,1.314,4.934,1.314c1.703,0,3.406-0.439,4.934-1.314l12.947-7.447
			c3.052-1.753,4.932-4.996,4.934-8.505l0.002,0.006c0,0-0.116-7.932,2.237-12.949c0.088-0.218,0.212-0.451,0.336-0.686
			c0.02-0.031,0.032-0.068,0.051-0.1c2.216-4.066,9.741-10.368,19.56-16.011c9.816-5.645,19.059-8.984,23.7-8.865
			c0.03,0,0.063,0.005,0.093,0.007c0.273,0.009,0.545,0.018,0.785,0.053c5.538,0.479,12.376,4.547,12.376,4.547l-0.008-0.016
			l0.006,0.004c3.054,1.756,6.813,1.756,9.867,0l12.947-7.446c1.526-0.878,2.759-2.127,3.611-3.596
			c0.853-1.469,1.322-3.158,1.322-4.914v-14.891C749.064,352.902,747.185,349.66,744.131,347.903"/>
	</g>
	<g clip-path="url(#SVGID_2_)">
		<defs>
			<path id="SVGID_19_" d="M747.317,326.594l-7.085-4.089c-1.67-0.964-2.698-2.746-2.698-4.675v-8.177
				c0-1.929,1.028-3.711,2.698-4.675l7.085-4.091c0.834-0.483,1.766-0.724,2.697-0.724c0.933,0,1.863,0.243,2.699,0.724l7.082,4.091
				c0.836,0.481,1.509,1.168,1.978,1.974c0.468,0.808,0.721,1.736,0.721,2.701v8.177c0,1.929-1.027,3.711-2.698,4.675l-7.082,4.089
				c-0.836,0.483-1.767,0.724-2.699,0.724C749.083,327.318,748.151,327.077,747.317,326.594 M743.467,294.221l-7.081,4.091
				c-4.038,2.332-6.548,6.677-6.548,11.341v8.177c0,4.664,2.51,9.007,6.546,11.341l7.083,4.089c1.988,1.148,4.253,1.754,6.548,1.754
				c2.296,0,4.562-0.606,6.548-1.754l7.084-4.089c4.039-2.332,6.547-6.677,6.547-11.341v-8.18c0-2.295-0.609-4.558-1.754-6.546
				c-1.148-1.986-2.807-3.644-4.793-4.792l-7.084-4.091c-1.986-1.148-4.252-1.753-6.548-1.753
				C747.72,292.468,745.455,293.076,743.467,294.221"/>
		</defs>
		<clipPath id="SVGID_20_">
			<use xlink:href="#SVGID_19_"  overflow="visible"/>
		</clipPath>
		
			<radialGradient id="SVGID_21_" cx="0" cy="800" r="1" gradientTransform="matrix(21.8584 0 0 23.0444 750.0156 -18121.8164)" gradientUnits="userSpaceOnUse">
			<stop  offset="0" style="stop-color:#00AB9F"/>
			<stop  offset="0.538" style="stop-color:#00AB9F"/>
			<stop  offset="0.8165" style="stop-color:#084B97"/>
			<stop  offset="0.866" style="stop-color:#074F9A"/>
			<stop  offset="0.9175" style="stop-color:#055CA4"/>
			<stop  offset="0.9697" style="stop-color:#0270B5"/>
			<stop  offset="1" style="stop-color:#0080C1"/>
		</radialGradient>
		<rect x="729.838" y="292.468" clip-path="url(#SVGID_20_)" fill="url(#SVGID_21_)" width="40.355" height="42.546"/>
	</g>
	<g clip-path="url(#SVGID_2_)">
		<defs>
			<rect id="SVGID_22_" width="1300" height="800"/>
		</defs>
		<clipPath id="SVGID_23_">
			<use xlink:href="#SVGID_22_"  overflow="visible"/>
		</clipPath>
		<rect x="604.933" y="295.977" clip-path="url(#SVGID_23_)" fill="#FFFFFF" width="8.2" height="35.531"/>
		<path clip-path="url(#SVGID_23_)" fill="#FFFFFF" d="M686.634,331.507h-8.843l-2.571-7.718h-13.507l-2.572,7.718h-8.683
			l13.184-35.531h9.648L686.634,331.507z M668.37,303.016l-4.888,14.665h10.289L668.37,303.016z"/>
		<polygon clip-path="url(#SVGID_23_)" fill="#FFFFFF" points="707.491,321.082 714.242,295.977 726.135,295.977 726.135,331.507 
			718.584,331.507 718.584,304.592 710.868,331.507 704.114,331.507 696.396,303.841 696.396,331.507 688.842,331.507 
			688.842,295.977 700.738,295.977 		"/>
		<polygon clip-path="url(#SVGID_23_)" fill="#FFFFFF" points="781.426,306.201 797.182,331.507 805.382,331.507 805.382,295.976 
			797.826,295.976 797.826,320.705 782.551,295.976 773.869,295.976 773.869,331.507 781.426,331.507 		"/>
		<polygon clip-path="url(#SVGID_23_)" fill="#FFFFFF" points="624.295,306.201 640.051,331.507 648.251,331.507 648.251,295.976 
			640.696,295.976 640.696,320.705 625.42,295.976 616.739,295.976 616.739,331.507 624.295,331.507 		"/>
		<path clip-path="url(#SVGID_23_)" fill="#FFFFFF" d="M586.092,324.985c-2.06,0-3.93-0.813-5.308-2.135
			c-0.006-0.006-0.012-0.012-0.018-0.018c-1.943-1.845-3.247-5.238-3.247-9.12c0-3.61,1.129-6.796,2.85-8.709
			c0.013-0.013,0.027-0.028,0.039-0.041c1.403-1.549,3.43-2.522,5.684-2.522c3.681,0,6.757,2.595,7.496,6.055l7.809-1.798
			c-2.192-6.513-8.349-11.203-15.602-11.203c-6.423,0-11.973,3.688-14.684,9.054c-0.138,0.26-0.269,0.533-0.394,0.817
			c-0.04,0.092-0.083,0.183-0.122,0.276c-0.161,0.391-0.312,0.8-0.45,1.23c-0.057,0.177-0.106,0.356-0.158,0.534
			c-0.092,0.324-0.178,0.656-0.256,0.998c-0.022,0.1-0.05,0.197-0.07,0.298c-0.331,1.543-0.518,3.245-0.518,5.04
			c0,4.067,0.948,7.67,2.409,9.953c2.846,4.919,8.152,8.237,14.243,8.237c7.253,0,13.41-4.69,15.602-11.203l-7.809-1.798
			C592.849,322.39,589.772,324.985,586.092,324.985"/>
		<path clip-path="url(#SVGID_23_)" fill="#FFFFFF" d="M784.896,492.384v-2.749h6.107v-7.446h-14.165v7.446h6.131v2.749h-8.597
			v1.573h19.074v-1.573H784.896z M778.717,483.716h10.384v4.369h-10.384V483.716z M778.764,495.719h-1.926v6.061h14.494v-1.573
			h-12.568V495.719z M772.61,489.588h-3.383v-8.409h-1.927v21.071h1.927v-11.064h3.383V489.588z M755.768,483.222h-1.902v13.695
			h1.667c3.219,0,6.437-0.235,10.031-0.963l-0.235-1.598c-3.406,0.682-6.53,0.939-9.561,0.939V483.222z M747.24,502.25h1.926
			v-21.047h-1.926V502.25z M742.448,483.058h-1.832v4.721c0,2.279-0.399,5.333-2.067,7.4c-1.691-2.138-2.091-5.215-2.091-7.4v-4.721
			h-1.809v4.721c0,2.726-0.729,6.413-3.288,8.292l1.245,1.34c1.503-1.127,2.419-3.007,2.936-5.051
			c0.47,2.114,1.362,4.111,3.007,5.31c1.621-1.198,2.514-3.148,2.983-5.263c0.54,2.067,1.457,3.924,3.03,5.051l1.175-1.387
			c-2.562-1.832-3.289-5.473-3.289-8.292V483.058z M717.221,492.405h6.012v-1.665h-6.012V492.405z M695.374,500.206v-4.887h-1.927
			v6.46h14.048v-1.573H695.374z M701.928,492.243c-3.03-1.198-5.073-4.089-5.073-7.189v-2.701h-1.928v2.701
			c0,3.313-2.113,6.319-5.261,7.541l1.033,1.527c2.467-1.011,4.322-3.03,5.192-5.567c0.915,2.349,2.7,4.251,4.979,5.214
			L701.928,492.243z M705.052,496.917h1.927v-15.738h-1.927v3.124H700.8v1.55h4.252v2.772H700.8v1.574h4.252V496.917z
			 M687.364,493.957h-19.122v1.573h8.574v6.742h1.926v-6.742h8.622V493.957z M683.112,486.041h-12.521v5.755h14.94v-1.574h-13.013
			v-2.701h12.543v-5.497h-14.54v1.527h12.591V486.041z M657.366,490.362v-2.7h-1.926v2.7h-8.574v1.552h19.074v-1.552H657.366z
			 M651.118,498.468h12.379v-4.816h-14.329v1.456h12.427v1.95h-12.355v4.957h14.893v-1.504h-13.014V498.468z M664.86,487.238
			c-3.876-0.423-7.47-2.419-7.47-5.12v-0.775h-1.974v0.775c0,2.701-3.594,4.697-7.47,5.12l0.657,1.504
			c3.336-0.446,6.484-1.902,7.799-4.157c1.339,2.255,4.463,3.711,7.799,4.157L664.86,487.238z M619.147,493.464h19.098v-1.55
			h-19.098V493.464z M623.517,495.578h-1.927v6.154h14.588v-1.573h-12.661V495.578z M636.061,487.521h-12.403v-5.566h-1.927v7.141
			h14.33V487.521z M597.771,499.595h19.145v-1.597h-19.145V499.595z M612.664,487.614h-12.497v6.555h14.87v-1.574H602.07v-3.43
			h12.473v-6.366H600.12v1.551h12.544V487.614z M595.516,493.675h-19.121v1.551h8.55v7.047h1.927v-7.047h8.644V493.675z
			 M593.097,482.023h-1.927v2.891h-10.453v-2.891h-1.903v9.115h14.283V482.023z M591.17,489.564h-10.453v-3.101h10.453V489.564z
			 M548.676,491.819h19.074v-1.55h-19.074V491.819z M552.928,498.374h12.38v-4.745h-14.33v1.456h12.427v1.879h-12.356v5.051h14.893
			v-1.504h-13.014V498.374z M558.213,488.836c4.628,0,7.4-1.269,7.4-3.642c0-2.372-2.772-3.664-7.4-3.664
			c-4.627,0-7.399,1.292-7.399,3.664C550.814,487.567,553.586,488.836,558.213,488.836 M558.213,482.986
			c3.454,0,5.427,0.8,5.427,2.208c0,1.41-1.973,2.209-5.427,2.209c-3.453,0-5.426-0.799-5.426-2.209
			C552.787,483.786,554.76,482.986,558.213,482.986 M537.072,490.998v-4.041h-1.926v4.041h-7.775v1.572h18.956v-1.572H537.072z
			 M536.767,494.498c-4.487,0-7.329,1.433-7.329,3.876c0,2.396,2.842,3.852,7.329,3.852c4.486,0,7.352-1.456,7.352-3.852
			C544.119,495.931,541.253,494.498,536.767,494.498 M536.767,500.723c-3.289,0-5.403-0.893-5.403-2.349
			c0-1.504,2.114-2.396,5.403-2.396c3.312,0,5.426,0.893,5.426,2.396C542.193,499.83,540.079,500.723,536.767,500.723
			 M542.052,484.044c0,1.645,0,3.194-0.564,5.355l1.879,0.212c0.588-2.16,0.588-3.876,0.588-5.567v-1.785h-14.353v1.551h12.45
			V484.044z M516.354,494.286c-4.323,0-7.024,1.433-7.024,3.97c0,2.514,2.701,3.97,7.024,3.97c4.322,0,7-1.456,7-3.97
			C523.354,495.719,520.676,494.286,516.354,494.286 M516.354,500.699c-3.172,0-5.098-0.916-5.098-2.443
			c0-1.55,1.926-2.466,5.098-2.466c3.171,0,5.097,0.916,5.097,2.466C521.451,499.783,519.525,500.699,516.354,500.699
			 M518.303,491.162c-3.077-1.081-5.121-3.688-5.121-6.695v-2.09h-1.926v2.161c0,3.218-2.09,6.036-5.332,7.188l1.01,1.574
			c2.537-0.963,4.44-2.866,5.332-5.356c0.916,2.185,2.702,3.853,5.004,4.722L518.303,491.162z M521.357,493.651h1.95v-12.449h-1.95
			v4.463h-4.581v1.573h4.581V493.651z"/>
	</g>
</g>
</svg>
