<?xml version="1.0" encoding="utf-8"?>
<!-- Generator: Adobe Illustrator 16.0.0, SVG Export Plug-In . SVG Version: 6.00 Build 0)  -->
<!DOCTYPE svg PUBLIC "-//W3C//DTD SVG 1.1//EN" "http://www.w3.org/Graphics/SVG/1.1/DTD/svg11.dtd">
<svg version="1.1" id="Layer_1" xmlns="http://www.w3.org/2000/svg" xmlns:xlink="http://www.w3.org/1999/xlink" x="0px" y="0px"
	 width="595.28px" height="841.89px" viewBox="0 0 595.28 841.89" enable-background="new 0 0 595.28 841.89" xml:space="preserve">
<circle fill="none" stroke="#FFFFFF" cx="298.396" cy="422.479" r="16.429"/>
<path fill="#FFFFFF" d="M301.251,418.551c-1.035,0-1.848,0.475-2.338,1.162l-0.084-0.953h-2.058v8.498h2.198v-5.193
	c0-0.98,0.798-1.527,1.638-1.527s1.638,0.352,1.638,1.709v5.012h2.198v-5.096C304.443,419.895,302.932,418.551,301.251,418.551
	 M294.686,418.76h-2.198v8.498h2.198V418.76z M293.579,417.514c0.687,0,1.232-0.545,1.232-1.232c0-0.686-0.546-1.23-1.232-1.23
	c-0.686,0-1.231,0.545-1.231,1.23C292.348,416.969,292.894,417.514,293.579,417.514"/>
</svg>
