<?xml version="1.0" encoding="utf-8"?>
<!-- Generator: Adobe Illustrator 16.0.0, SVG Export Plug-In . SVG Version: 6.00 Build 0)  -->
<!DOCTYPE svg PUBLIC "-//W3C//DTD SVG 1.1//EN" "http://www.w3.org/Graphics/SVG/1.1/DTD/svg11.dtd">
<svg version="1.1" xmlns="http://www.w3.org/2000/svg" xmlns:xlink="http://www.w3.org/1999/xlink" x="0px" y="0px"
	 width="311.395px" height="264.963px" viewBox="0 0 311.395 264.963" enable-background="new 0 0 311.395 264.963"
	 xml:space="preserve">
<g id="Layer_3" opacity="0.3">
	<path fill="#FFFFFF" d="M59.244,181.821l86.132,49.525l86.133-49.525V82.768l-86.133-49.526L59.244,82.768V181.821z
		 M145.377,232.548l-0.261-0.15l-86.916-49.977V82.167l0.261-0.151l86.916-49.976l0.261,0.15l86.916,49.977v100.253l-0.261,0.15
		L145.377,232.548z"/>
	<path fill="#FFFFFF" d="M77.124,250.03h136.505l68.252-117.735L213.629,14.558H77.124L8.871,132.295L77.124,250.03z
		 M214.233,251.071H76.521l-0.151-0.26L7.665,132.295l0.151-0.261L76.521,13.518h137.712l0.149,0.26l68.704,118.517l-0.15,0.26
		L214.233,251.071z"/>
	<rect x="144.854" y="14.038" fill="#FFFFFF" width="1.045" height="236.514"/>
	<polygon fill="#FFFFFF" points="247.946,191.874 42.283,73.618 42.806,72.715 248.469,190.974 	"/>
	<polygon fill="#FFFFFF" points="42.806,191.874 42.284,190.974 247.946,72.715 248.469,73.618 	"/>
	<polygon fill="#FFFFFF" points="213.479,250.812 76.37,14.298 77.275,13.778 214.383,250.292 	"/>
	<rect x="8.269" y="131.774" fill="#FFFFFF" width="274.217" height="1.041"/>
	<polygon fill="#FFFFFF" points="77.275,250.812 76.37,250.292 213.478,13.778 214.383,14.298 	"/>
</g>
<g id="Layer_1">
	<path fill="#FFFFFF" d="M73.738,0.724l-7.116,4.091c-1.677,0.965-2.711,2.748-2.713,4.678v8.185c0,1.929,1.036,3.712,2.713,4.677
		l7.116,4.092c1.678,0.964,3.744,0.964,5.424,0l7.116-4.094c0.838-0.481,1.516-1.169,1.984-1.975c0.469-0.807,0.727-1.735,0.727-2.7
		V9.493c0-1.93-1.033-3.713-2.711-4.678l-7.116-4.091C77.481-0.241,75.416-0.241,73.738,0.724"/>
	<path fill="#FFFFFF" d="M212.674,243.663l-4.27,2.455c-1.008,0.58-1.627,1.65-1.627,2.807v4.91c0,1.157,0.619,2.229,1.627,2.809
		l4.27,2.453c1.009,0.578,2.246,0.578,3.255,0l4.269-2.453c0.504-0.291,0.911-0.701,1.192-1.188c0.28-0.483,0.435-1.04,0.435-1.62
		v-4.91c0-1.156-0.618-2.227-1.627-2.807l-4.269-2.455C214.92,243.083,213.682,243.083,212.674,243.663"/>
	<path fill="#FFFFFF" d="M0,130.027v4.91c0,1.16,0.621,2.228,1.627,2.808l4.27,2.455c1.008,0.579,2.248,0.579,3.254,0l4.271-2.455
		c1.006-0.58,1.627-1.647,1.627-2.808v-4.91c0-0.58-0.155-1.137-0.437-1.62c-0.281-0.484-0.688-0.896-1.19-1.185l-4.271-2.457
		c-1.006-0.578-2.246-0.578-3.254,0l-4.27,2.457C0.621,127.799,0,128.87,0,130.027"/>
	<path fill="#FFFFFF" d="M66.622,260.149l7.116,4.091c1.677,0.965,3.746,0.965,5.424,0l7.116-4.091
		c1.677-0.965,2.71-2.748,2.71-4.678v-8.186c0-1.928-1.033-3.711-2.71-4.676l-7.116-4.094c-0.84-0.481-1.777-0.723-2.713-0.723
		c-0.935,0-1.871,0.24-2.711,0.723l-7.116,4.094c-1.678,0.965-2.711,2.748-2.711,4.676v8.186
		C63.91,257.401,64.943,259.185,66.622,260.149"/>
	<path fill="#FFFFFF" d="M208.403,18.846l4.27,2.455c1.009,0.579,2.248,0.579,3.255,0l4.271-2.455
		c1.007-0.58,1.627-1.648,1.627-2.805v-4.912c0-1.158-0.62-2.228-1.627-2.805l-4.271-2.455c-0.505-0.291-1.066-0.436-1.628-0.436
		s-1.122,0.146-1.627,0.436l-4.27,2.455c-1.008,0.577-1.627,1.647-1.627,2.805v4.912C206.776,17.198,207.396,18.266,208.403,18.846"
		/>
	<path fill="#FFFFFF" d="M250.143,166.485l-12.947-7.443c-3.054-1.756-6.813-1.756-9.867,0l-12.947,7.443
		c-3.055,1.758-4.935,5-4.935,8.512v0.666c-0.029,1.986-0.28,8.135-2.232,12.295c-0.089,0.223-0.218,0.463-0.345,0.703
		c-0.017,0.025-0.028,0.058-0.041,0.082c-2.217,4.064-9.742,10.363-19.56,16.01c-9.818,5.646-19.058,8.986-23.701,8.865
		c-0.037,0-0.075-0.008-0.112-0.008c-0.266-0.012-0.532-0.018-0.765-0.053c-4.412-0.38-9.633-3.029-11.583-4.099l-0.798-0.457
		c-3.055-1.756-6.814-1.756-9.868,0l-0.014,0.007l0.002-0.005c0,0-6.838,4.067-12.376,4.545c-0.233,0.033-0.5,0.044-0.765,0.054
		c-0.037,0.002-0.078,0.006-0.115,0.008c-4.642,0.119-13.882-3.219-23.698-8.863c-9.82-5.646-17.344-11.946-19.56-16.012
		c-0.016-0.025-0.027-0.057-0.041-0.084c-0.129-0.24-0.256-0.479-0.346-0.703c-1.854-3.951-2.174-9.697-2.225-11.965v-0.986
		c0-1.756-0.473-3.445-1.323-4.914c-0.853-1.471-2.085-2.719-3.611-3.598l-0.336-0.191c-1.42-0.83-7.037-4.264-9.806-8.213
		c-0.146-0.182-0.288-0.408-0.429-0.629c-0.021-0.033-0.044-0.064-0.063-0.098c-2.426-3.941-4.144-13.582-4.144-24.872
		c0-11.291,1.718-20.933,4.146-24.875c0.014-0.028,0.034-0.053,0.051-0.078c0.146-0.229,0.29-0.461,0.439-0.649
		c2.779-3.962,8.432-7.407,9.824-8.221l0.289-0.167c0.006-0.002,0.028-0.014,0.028-0.014v-0.002
		c1.526-0.878,2.759-2.127,3.611-3.596c0.851-1.469,1.323-3.159,1.323-4.914v-0.995c0.053-2.276,0.373-8.008,2.225-11.952
		c0.088-0.218,0.212-0.452,0.336-0.686c0.019-0.032,0.033-0.069,0.051-0.103c2.216-4.064,9.741-10.364,19.56-16.009
		c9.816-5.645,19.057-8.985,23.698-8.863c0.032,0,0.064,0.004,0.095,0.004c0.273,0.012,0.546,0.021,0.785,0.055
		c5.538,0.477,12.376,4.545,12.376,4.545l-0.008-0.009l0.02,0.009c1.525,0.878,3.23,1.316,4.934,1.316s3.406-0.438,4.935-1.316
		l0.007-0.004l-0.005,0.004c0,0,6.837-4.068,12.379-4.545c0.237-0.034,0.511-0.043,0.782-0.055c0.032,0,0.064-0.004,0.095-0.004
		c4.642-0.122,13.884,3.218,23.701,8.863c9.816,5.645,17.34,11.945,19.56,16.009c0.019,0.034,0.031,0.071,0.05,0.103
		c0.122,0.234,0.249,0.468,0.334,0.686c1.944,4.139,2.202,10.249,2.234,12.266v0.681c0,3.511,1.88,6.754,4.935,8.51l12.947,7.446
		c3.054,1.756,6.813,1.756,9.867,0l12.947-7.444c3.054-1.756,4.934-5.001,4.934-8.512V75.076c0-1.753-0.472-3.443-1.322-4.912
		c-0.853-1.469-2.085-2.72-3.61-3.598l-12.947-7.444c-3.054-1.756-6.813-1.756-9.867,0l-0.526,0.302
		c-1.692,0.944-7.218,3.844-11.848,4.243c-0.232,0.034-0.5,0.043-0.765,0.055c-0.037,0-0.076,0.006-0.115,0.006
		c-4.642,0.12-13.882-3.22-23.698-8.865c-9.817-5.645-17.344-11.945-19.56-16.009c-0.016-0.028-0.027-0.057-0.042-0.085
		c-0.128-0.238-0.255-0.479-0.345-0.701c-2.354-5.017-2.237-12.95-2.237-12.95l-0.002,0.007v-0.007c0-3.511-1.88-6.757-4.935-8.512
		L150.31,9.162c-3.055-1.756-6.814-1.756-9.868,0l-12.947,7.444c-3.054,1.755-4.934,5.001-4.934,8.512v0.019l-0.013-0.019
		c0,0,0.12,7.933-2.233,12.95c-0.09,0.222-0.219,0.463-0.346,0.701c-0.017,0.028-0.027,0.057-0.041,0.085
		c-2.217,4.064-9.742,10.364-19.56,16.009c-9.816,5.646-19.059,8.985-23.701,8.865c-0.037,0-0.076-0.006-0.112-0.006
		c-0.266-0.012-0.532-0.021-0.765-0.055c-4.467-0.383-9.771-3.102-11.663-4.14l-0.704-0.405c-3.054-1.756-6.813-1.756-9.867,0
		l-12.947,7.444c-3.054,1.756-4.935,5.001-4.935,8.51v14.891c0,3.511,1.881,6.756,4.932,8.512h0.003l0.004,0.002l0.327,0.188
		c1.413,0.825,7.037,4.261,9.808,8.212c0.15,0.188,0.295,0.42,0.44,0.649c0.016,0.025,0.037,0.05,0.053,0.078
		c2.425,3.942,4.142,13.584,4.142,24.875c0,11.29-1.717,20.93-4.142,24.872c-0.019,0.032-0.044,0.063-0.065,0.098
		c-0.14,0.221-0.279,0.447-0.428,0.629c-2.771,3.953-8.395,7.388-9.808,8.215l-0.327,0.186l-0.004,0.006h-0.003
		c-3.051,1.757-4.932,4.998-4.932,8.511v14.892c0,3.51,1.881,6.754,4.932,8.51l12.95,7.445c3.051,1.756,6.813,1.756,9.867,0
		l0.483-0.279c1.648-0.922,7.217-3.861,11.882-4.263c0.239-0.034,0.514-0.045,0.785-0.055c0.029,0,0.064-0.006,0.094-0.006
		c4.643-0.121,13.885,3.219,23.701,8.862c9.817,5.645,17.34,11.946,19.56,16.011c0.016,0.032,0.031,0.071,0.048,0.104
		c0.125,0.23,0.251,0.468,0.339,0.685c2.354,5.019,2.233,12.947,2.233,12.947l0.013-0.019v0.017c0,3.512,1.88,6.754,4.934,8.51
		l12.947,7.447c1.526,0.875,3.23,1.314,4.934,1.314s3.406-0.439,4.935-1.314l12.946-7.447c3.053-1.752,4.933-4.995,4.935-8.504
		l0.002,0.006c0,0-0.116-7.933,2.237-12.949c0.088-0.219,0.212-0.451,0.336-0.686c0.02-0.031,0.031-0.068,0.051-0.101
		c2.216-4.065,9.741-10.367,19.56-16.011c9.816-5.646,19.06-8.983,23.7-8.864c0.03,0,0.063,0.004,0.093,0.006
		c0.273,0.011,0.545,0.019,0.785,0.054c5.538,0.479,12.376,4.547,12.376,4.547l-0.008-0.017l0.006,0.005
		c3.054,1.756,6.813,1.756,9.867,0l12.947-7.445c1.525-0.879,2.759-2.127,3.61-3.597c0.853-1.469,1.322-3.157,1.322-4.913v-14.892
		C255.076,171.485,253.196,168.243,250.143,166.485"/>
	<g>
		<g>
			<defs>
				<path id="SVGID_1_" d="M253.329,145.176l-7.085-4.089c-1.67-0.964-2.698-2.746-2.698-4.675v-8.177
					c0-1.929,1.028-3.711,2.698-4.675l7.085-4.091c0.834-0.483,1.767-0.724,2.697-0.724c0.933,0,1.863,0.243,2.699,0.724
					l7.082,4.091c0.836,0.481,1.509,1.168,1.978,1.974c0.468,0.808,0.721,1.736,0.721,2.701v8.177c0,1.929-1.026,3.711-2.697,4.675
					l-7.082,4.089c-0.836,0.483-1.768,0.726-2.699,0.726S254.163,145.66,253.329,145.176 M249.479,112.804l-7.081,4.091
					c-4.038,2.332-6.548,6.677-6.548,11.341v8.177c0,4.664,2.51,9.007,6.546,11.341l7.083,4.089
					c1.987,1.148,4.253,1.754,6.548,1.754c2.296,0,4.562-0.604,6.548-1.754l7.084-4.089c4.039-2.332,6.547-6.677,6.547-11.341v-8.18
					c0-2.295-0.608-4.558-1.754-6.546c-1.147-1.986-2.807-3.644-4.793-4.792l-7.084-4.091c-1.986-1.148-4.252-1.753-6.548-1.753
					C253.731,111.05,251.467,111.659,249.479,112.804"/>
			</defs>
			<clipPath id="SVGID_2_">
				<use xlink:href="#SVGID_1_"  overflow="visible"/>
			</clipPath>
			
				<radialGradient id="SVGID_3_" cx="-627.9661" cy="5.2109" r="0.9995" gradientTransform="matrix(21.8584 0 0 -23.0444 13982.3613 252.4189)" gradientUnits="userSpaceOnUse">
				<stop  offset="0" style="stop-color:#00ABA0"/>
				<stop  offset="0.538" style="stop-color:#00ABA0"/>
				<stop  offset="0.8165" style="stop-color:#124B97"/>
				<stop  offset="0.8521" style="stop-color:#104D99"/>
				<stop  offset="0.8891" style="stop-color:#0B549E"/>
				<stop  offset="0.9267" style="stop-color:#075FA6"/>
				<stop  offset="0.9645" style="stop-color:#026DB2"/>
				<stop  offset="1" style="stop-color:#007FC4"/>
			</radialGradient>
			<rect x="235.85" y="111.05" clip-path="url(#SVGID_2_)" fill="url(#SVGID_3_)" width="40.354" height="42.547"/>
		</g>
	</g>
	<rect x="110.945" y="114.56" fill="#FFFFFF" width="8.2" height="35.531"/>
	<path fill="#FFFFFF" d="M192.646,150.09h-8.843l-2.571-7.719h-13.507l-2.572,7.719h-8.683l13.184-35.531h9.647L192.646,150.09z
		 M174.382,121.598l-4.888,14.665h10.289L174.382,121.598z"/>
	<polygon fill="#FFFFFF" points="213.503,139.665 220.254,114.559 232.146,114.559 232.146,150.09 224.596,150.09 224.596,123.175 
		216.88,150.09 210.126,150.09 202.408,122.424 202.408,150.09 194.854,150.09 194.854,114.559 206.75,114.559 	"/>
	<polygon fill="#FFFFFF" points="287.438,124.783 303.193,150.089 311.394,150.089 311.394,114.558 303.838,114.558 
		303.838,139.288 288.563,114.558 279.881,114.558 279.881,150.089 287.438,150.089 	"/>
	<polygon fill="#FFFFFF" points="130.307,124.783 146.063,150.089 154.263,150.089 154.263,114.558 146.708,114.558 
		146.708,139.288 131.432,114.558 122.75,114.558 122.75,150.089 130.307,150.089 	"/>
	<path fill="#FFFFFF" d="M92.104,143.567c-2.061,0-3.931-0.813-5.309-2.135c-0.006-0.007-0.012-0.013-0.018-0.019
		c-1.943-1.847-3.247-5.238-3.247-9.12c0-3.61,1.129-6.796,2.85-8.709c0.014-0.013,0.027-0.028,0.039-0.041
		c1.403-1.549,3.431-2.522,5.685-2.522c3.681,0,6.757,2.595,7.496,6.055l7.809-1.798c-2.192-6.513-8.349-11.203-15.602-11.203
		c-6.424,0-11.974,3.688-14.685,9.054c-0.138,0.26-0.269,0.533-0.394,0.817c-0.04,0.092-0.083,0.183-0.122,0.276
		c-0.161,0.391-0.313,0.8-0.45,1.23c-0.057,0.177-0.106,0.356-0.158,0.534c-0.092,0.324-0.178,0.656-0.256,0.998
		c-0.021,0.1-0.05,0.197-0.07,0.298c-0.331,1.543-0.518,3.245-0.518,5.04c0,4.066,0.948,7.67,2.409,9.951
		c2.846,4.92,8.151,8.238,14.243,8.238c7.253,0,13.409-4.689,15.602-11.203l-7.809-1.799
		C98.86,140.974,95.784,143.567,92.104,143.567"/>
</g>
</svg>
