<?xml version="1.0" encoding="utf-8"?>
<!-- Generator: Adobe Illustrator 16.0.0, SVG Export Plug-In . SVG Version: 6.00 Build 0)  -->
<!DOCTYPE svg PUBLIC "-//W3C//DTD SVG 1.1//EN" "http://www.w3.org/Graphics/SVG/1.1/DTD/svg11.dtd">
<svg version="1.1" id="Layer_1" xmlns="http://www.w3.org/2000/svg" xmlns:xlink="http://www.w3.org/1999/xlink" x="0px" y="0px"
	 width="100.835px" height="86.124px" viewBox="0 0 100.835 86.124" enable-background="new 0 0 100.835 86.124"
	 xml:space="preserve">
<path fill="#FFFFFF" d="M23.871,0.235l-2.304,1.33c-0.543,0.313-0.877,0.893-0.878,1.52v2.661c0,0.627,0.335,1.207,0.878,1.52
	l2.304,1.33c0.543,0.314,1.212,0.314,1.756,0l2.303-1.331c0.272-0.156,0.491-0.379,0.644-0.642c0.152-0.262,0.234-0.564,0.234-0.877
	V3.085c0-0.627-0.334-1.207-0.878-1.52l-2.303-1.33C25.083-0.079,24.414-0.079,23.871,0.235"/>
<path fill="#FFFFFF" d="M68.847,79.202l-1.382,0.797c-0.326,0.189-0.527,0.537-0.527,0.914v1.594c0,0.377,0.201,0.727,0.527,0.914
	l1.382,0.797c0.326,0.189,0.729,0.189,1.054,0l1.382-0.797c0.164-0.096,0.295-0.229,0.387-0.387
	c0.091-0.156,0.141-0.338,0.141-0.527v-1.594c0-0.377-0.199-0.727-0.526-0.914l-1.382-0.797
	C69.575,79.012,69.173,79.012,68.847,79.202"/>
<path fill="#FFFFFF" d="M0,42.265v1.595c0,0.377,0.201,0.725,0.527,0.912l1.382,0.799c0.326,0.188,0.728,0.188,1.053,0l1.383-0.799
	c0.325-0.188,0.527-0.535,0.527-0.912v-1.595c0-0.188-0.051-0.37-0.142-0.527c-0.092-0.157-0.224-0.291-0.386-0.385l-1.383-0.799
	c-0.325-0.188-0.727-0.188-1.053,0l-1.382,0.799C0.201,41.54,0,41.888,0,42.265"/>
<path fill="#FFFFFF" d="M21.568,84.559l2.304,1.33c0.543,0.313,1.212,0.313,1.755,0l2.304-1.33c0.543-0.314,0.878-0.893,0.878-1.521
	v-2.658c0-0.627-0.335-1.207-0.878-1.521l-2.304-1.33c-0.271-0.156-0.575-0.234-0.878-0.234c-0.302,0-0.605,0.078-0.877,0.234
	l-2.304,1.33c-0.543,0.314-0.878,0.895-0.878,1.521v2.658C20.69,83.667,21.025,84.245,21.568,84.559"/>
<path fill="#FFFFFF" d="M67.465,6.126l1.382,0.798c0.325,0.188,0.729,0.188,1.053,0l1.385-0.798
	c0.324-0.188,0.525-0.536,0.525-0.912V3.618c0-0.377-0.201-0.724-0.525-0.912L69.9,1.908c-0.162-0.095-0.345-0.142-0.525-0.142
	c-0.182,0-0.363,0.047-0.526,0.142l-1.382,0.798c-0.326,0.188-0.527,0.535-0.527,0.912v1.596C66.938,5.59,67.139,5.938,67.465,6.126
	"/>
<path fill="#FFFFFF" d="M21.286,51.153c-0.764-1.295-1.341-4.416-1.341-8.086c0-3.669,0.577-6.791,1.341-8.084
	c0.795-1.347,2.711-2.513,3.442-2.967l-5.959,0.021v-0.021h-5.622c0.729,0.454,2.646,1.62,3.441,2.967
	c0.765,1.294,1.34,4.415,1.34,8.084c0,3.67-0.575,6.791-1.34,8.086c-0.795,1.346-2.712,2.512-3.441,2.967h6.328h0.177h5.076
	C23.997,53.665,22.081,52.499,21.286,51.153"/>
<path fill="#FFFFFF" d="M24.729,21.643l-4.192-2.421c-0.99-0.57-2.207-0.57-3.196,0l-4.191,2.421
	c-0.988,0.57-1.598,1.626-1.599,2.767v4.842c0.001,1.142,0.61,2.196,1.599,2.768l4.191,2.42c0.989,0.57,2.206,0.57,3.196,0
	l4.192-2.42c0.987-0.571,1.597-1.626,1.597-2.768v-4.842C26.325,23.269,25.716,22.213,24.729,21.643"/>
<path fill="#FFFFFF" d="M24.729,54.116l-4.192-2.42c-0.99-0.57-2.207-0.57-3.196,0l-4.191,2.42
	c-0.988,0.572-1.598,1.627-1.599,2.768v4.844c0.001,1.141,0.61,2.193,1.599,2.766l4.191,2.422c0.989,0.57,2.206,0.57,3.196,0
	l4.192-2.422c0.987-0.57,1.597-1.625,1.597-2.766v-4.844C26.325,55.743,25.716,54.688,24.729,54.116"/>
<path fill="#FFFFFF" d="M80.975,21.643l-4.191-2.421c-0.989-0.57-2.207-0.57-3.196,0l-4.191,2.421
	c-0.987,0.57-1.598,1.626-1.598,2.767v4.842c0,1.142,0.609,2.196,1.598,2.768l4.191,2.42c0.989,0.57,2.207,0.57,3.196,0l4.191-2.42
	c0.988-0.571,1.598-1.626,1.598-2.768v-4.842C82.573,23.269,81.964,22.213,80.975,21.643"/>
<path fill="#FFFFFF" d="M80.975,54.116l-4.191-2.42c-0.989-0.57-2.207-0.57-3.196,0l-4.191,2.42
	c-0.987,0.572-1.598,1.627-1.598,2.768v4.844c0,1.141,0.609,2.193,1.598,2.766l4.191,2.422c0.989,0.57,2.207,0.57,3.196,0
	l4.191-2.422c0.988-0.57,1.598-1.625,1.598-2.766v-4.844C82.573,55.743,81.964,54.688,80.975,54.116"/>
<path fill="#FFFFFF" d="M69.299,20.721c-1.504,0.015-4.494-1.047-7.672-2.88c-3.178-1.835-5.594-3.895-6.332-5.204
	c-0.769-1.362-0.818-3.604-0.848-4.464l-2.962,5.171l-0.019-0.011l-2.812,4.869c0.76-0.405,2.727-1.482,4.292-1.497
	c1.502-0.015,4.493,1.047,7.672,2.881c3.178,1.835,5.592,3.896,6.33,5.204c0.77,1.362,0.819,3.604,0.85,4.464l3.164-5.48
	l0.088-0.153l2.537-4.395C72.831,19.628,70.863,20.705,69.299,20.721"/>
<path fill="#FFFFFF" d="M45.463,2.984l-4.191,2.42c-0.989,0.572-1.599,1.627-1.599,2.768v4.84c0,1.142,0.609,2.196,1.598,2.768
	l4.192,2.421c0.99,0.57,2.207,0.57,3.196-0.001l4.192-2.42c0.986-0.571,1.597-1.625,1.599-2.768v-4.84
	c0-1.141-0.609-2.196-1.599-2.767l-4.193-2.421C47.669,2.414,46.451,2.413,45.463,2.984"/>
<path fill="#FFFFFF" d="M38.827,12.635c-0.739,1.309-3.154,3.369-6.331,5.204c-3.178,1.833-6.17,2.895-7.673,2.88
	c-1.563-0.015-3.531-1.092-4.29-1.496l2.998,5.148l-0.019,0.011l2.812,4.869c0.028-0.859,0.079-3.102,0.848-4.464
	c0.739-1.309,3.154-3.369,6.331-5.204c3.178-1.834,6.17-2.896,7.673-2.881c1.563,0.015,3.531,1.092,4.29,1.497l-3.164-5.481
	l-0.089-0.152l-2.538-4.396C39.649,9.031,39.596,11.273,38.827,12.635"/>
<path fill="#FFFFFF" d="M69.299,65.405c-1.504-0.016-4.494,1.047-7.672,2.881s-5.594,3.896-6.332,5.203
	c-0.769,1.361-0.818,3.604-0.848,4.465l-2.962-5.172l-0.019,0.012l-2.812-4.869c0.76,0.404,2.727,1.482,4.292,1.496
	c1.502,0.016,4.493-1.047,7.672-2.881c3.178-1.834,5.592-3.895,6.33-5.203c0.77-1.361,0.819-3.604,0.85-4.465l3.164,5.482
	l0.088,0.152l2.537,4.395C72.831,66.497,70.863,65.418,69.299,65.405"/>
<path fill="#FFFFFF" d="M45.463,83.141l-4.191-2.422c-0.989-0.57-1.599-1.627-1.599-2.768v-4.84c0-1.145,0.609-2.195,1.598-2.77
	l4.192-2.422c0.99-0.568,2.207-0.568,3.196,0.002l4.192,2.42c0.986,0.57,1.597,1.625,1.599,2.768v4.842
	c0,1.141-0.609,2.195-1.599,2.768l-4.193,2.422C47.669,83.709,46.451,83.711,45.463,83.141"/>
<path fill="#FFFFFF" d="M38.827,73.489c-0.739-1.309-3.154-3.369-6.331-5.203c-3.178-1.834-6.17-2.895-7.673-2.881
	c-1.563,0.016-3.531,1.092-4.29,1.496l2.998-5.148l-0.019-0.012l2.812-4.869c0.028,0.861,0.079,3.104,0.848,4.465
	c0.739,1.311,3.154,3.369,6.331,5.203c3.178,1.834,6.17,2.896,7.673,2.883c1.563-0.016,3.531-1.094,4.29-1.498l-3.164,5.48
	l-0.089,0.152l-2.538,4.396C39.649,77.094,39.596,74.852,38.827,73.489"/>
<polygon fill="#FFFFFF" points="68.975,45.452 66.779,37.28 62.906,37.28 62.906,48.844 65.365,48.844 65.365,39.84 67.877,48.844 
	70.075,48.844 72.586,40.084 72.586,48.844 75.044,48.844 75.044,37.28 71.173,37.28 "/>
<polygon fill="#FFFFFF" points="47.237,45.329 42.264,37.281 39.44,37.281 39.44,48.844 41.899,48.844 41.899,40.608 47.027,48.844 
	49.696,48.844 49.696,37.281 47.237,37.281 "/>
<rect x="35.597" y="37.281" fill="#FFFFFF" width="2.669" height="11.563"/>
<polygon fill="#FFFFFF" points="98.376,37.28 98.376,45.329 93.405,37.28 90.579,37.28 90.579,48.844 93.038,48.844 93.038,40.608 
	98.166,48.844 100.835,48.844 100.835,37.28 "/>
<path fill="#FFFFFF" d="M27.615,40.205c0.457-0.504,1.116-0.821,1.85-0.821c1.198,0,2.199,0.846,2.44,1.972l2.541-0.585
	c-0.713-2.12-2.717-3.647-5.078-3.647c-2.09,0-3.896,1.201-4.779,2.947c-0.045,0.085-0.087,0.174-0.128,0.266
	c-0.013,0.03-0.027,0.061-0.04,0.09c-0.052,0.127-0.101,0.262-0.146,0.401c-0.02,0.057-0.035,0.115-0.053,0.173
	c-0.029,0.106-0.057,0.214-0.083,0.325c-0.007,0.032-0.016,0.064-0.022,0.097c-0.107,0.502-0.168,1.057-0.168,1.641
	c0,1.322,0.308,2.496,0.784,3.238c0.926,1.604,2.652,2.682,4.635,2.682c2.361,0,4.365-1.525,5.078-3.646l-2.541-0.586
	c-0.241,1.127-1.242,1.971-2.44,1.971c-0.671,0-1.278-0.264-1.728-0.693c-0.002-0.002-0.004-0.004-0.005-0.006
	c-0.634-0.602-1.058-1.705-1.058-2.969c0-1.175,0.367-2.212,0.928-2.835C27.607,40.214,27.611,40.209,27.615,40.205"/>
<path fill="#FFFFFF" d="M86.877,44.393c0,0.627-0.335,1.207-0.878,1.521l-2.305,1.33c-0.272,0.158-0.575,0.234-0.88,0.234
	c-0.303,0-0.605-0.076-0.879-0.234l-2.306-1.33c-0.543-0.314-0.878-0.895-0.878-1.521v-2.662c0-0.628,0.335-1.208,0.878-1.522
	l2.306-1.331c0.272-0.157,0.576-0.235,0.879-0.235c0.305,0,0.606,0.078,0.88,0.235l2.305,1.331c0.271,0.157,0.491,0.381,0.643,0.644
	c0.152,0.263,0.235,0.564,0.235,0.879V44.393z M87.252,38.04l-2.306-1.331c-0.646-0.374-1.384-0.571-2.132-0.571
	c-0.745,0-1.483,0.198-2.131,0.571l-2.305,1.331c-1.314,0.759-2.132,2.173-2.132,3.691v2.662c0,1.518,0.816,2.932,2.131,3.689
	l2.306,1.332c0.646,0.373,1.386,0.57,2.131,0.57c0.748,0,1.484-0.197,2.132-0.57l2.306-1.332c1.313-0.758,2.132-2.172,2.132-3.689
	V41.73c0-0.747-0.199-1.483-0.572-2.13C88.439,38.953,87.897,38.414,87.252,38.04"/>
<g>
	<g>
		<defs>
			<path id="SVGID_1_" d="M81.937,47.245l-2.306-1.33c-0.543-0.313-0.879-0.895-0.879-1.52v-2.663c0-0.628,0.336-1.208,0.879-1.521
				l2.306-1.332c0.271-0.156,0.575-0.234,0.878-0.234c0.305,0,0.605,0.079,0.878,0.234l2.307,1.332
				c0.271,0.156,0.491,0.38,0.643,0.643c0.152,0.263,0.236,0.564,0.236,0.879v2.663c0,0.627-0.336,1.207-0.879,1.52l-2.307,1.33
				c-0.271,0.158-0.573,0.236-0.878,0.236C82.512,47.481,82.208,47.403,81.937,47.245 M80.684,36.709l-2.305,1.331
				c-1.314,0.759-2.132,2.173-2.132,3.691v2.662c0,1.518,0.816,2.932,2.132,3.691l2.305,1.33c0.646,0.373,1.384,0.57,2.131,0.57
				s1.484-0.197,2.132-0.57l2.307-1.33c1.313-0.76,2.129-2.174,2.129-3.691V41.73c0-0.747-0.197-1.483-0.57-2.13
				c-0.373-0.647-0.913-1.187-1.559-1.561l-2.307-1.331c-0.646-0.374-1.385-0.571-2.132-0.571S81.331,36.336,80.684,36.709"/>
		</defs>
		<clipPath id="SVGID_2_">
			<use xlink:href="#SVGID_1_"  overflow="visible"/>
		</clipPath>
		<g clip-path="url(#SVGID_2_)">
			<g>
				<defs>
					<rect id="SVGID_3_" x="62.018" y="27.567" width="13.479" height="14.21"/>
				</defs>
				<clipPath id="SVGID_4_">
					<use xlink:href="#SVGID_3_"  overflow="visible"/>
				</clipPath>
				<g clip-path="url(#SVGID_4_)">
					<g>
						<defs>
							<rect id="SVGID_5_" x="62.018" y="27.567" width="13.479" height="14.21"/>
						</defs>
						<clipPath id="SVGID_6_">
							<use xlink:href="#SVGID_5_"  overflow="visible"/>
						</clipPath>
						
							<radialGradient id="SVGID_7_" cx="-304.0286" cy="31.6655" r="0.9992" gradientTransform="matrix(6.9247 0 0 -7.3005 2174.0735 265.8696)" gradientUnits="userSpaceOnUse">
							<stop  offset="0" style="stop-color:#00ABA0"/>
							<stop  offset="0.538" style="stop-color:#00ABA0"/>
							<stop  offset="0.8165" style="stop-color:#124B97"/>
							<stop  offset="0.8521" style="stop-color:#104D99"/>
							<stop  offset="0.8891" style="stop-color:#0B549E"/>
							<stop  offset="0.9267" style="stop-color:#075FA6"/>
							<stop  offset="0.9645" style="stop-color:#026DB2"/>
							<stop  offset="1" style="stop-color:#007FC4"/>
						</radialGradient>
						<rect x="62.018" y="27.567" clip-path="url(#SVGID_6_)" fill="url(#SVGID_7_)" width="13.479" height="14.21"/>
					</g>
				</g>
			</g>
		</g>
		<rect x="35.597" y="37.281" clip-path="url(#SVGID_2_)" fill="#FFFFFF" width="2.669" height="11.563"/>
		<polygon clip-path="url(#SVGID_2_)" fill="#FFFFFF" points="68.975,45.452 66.779,37.28 62.906,37.28 62.906,48.844 
			65.365,48.844 65.365,39.84 67.877,48.844 70.075,48.844 72.586,40.084 72.586,48.844 75.044,48.844 75.044,37.28 71.173,37.28 		
			"/>
		<path clip-path="url(#SVGID_2_)" fill="#FFFFFF" d="M54.653,44.344l1.591-4.772l1.758,4.772H54.653z M57.844,37.28h-3.141
			l-4.291,11.564h2.826l0.837-2.512h4.396l0.838,2.512h2.878L57.844,37.28z"/>
		<polygon clip-path="url(#SVGID_2_)" fill="#FFFFFF" points="98.376,45.329 93.405,37.281 90.579,37.281 90.579,48.844 
			93.038,48.844 93.038,40.608 98.166,48.844 100.835,48.844 100.835,37.281 98.376,37.281 		"/>
		<polygon clip-path="url(#SVGID_2_)" fill="#FFFFFF" points="47.237,45.329 42.264,37.281 39.44,37.281 39.44,48.844 
			41.899,48.844 41.899,40.608 47.027,48.844 49.696,48.844 49.696,37.281 47.237,37.281 		"/>
		<path clip-path="url(#SVGID_2_)" fill="#FFFFFF" d="M27.615,40.205c0.457-0.504,1.116-0.821,1.85-0.821
			c1.198,0,2.199,0.846,2.44,1.972l2.541-0.585c-0.713-2.12-2.717-3.647-5.078-3.647c-2.09,0-3.896,1.201-4.779,2.947
			c-0.045,0.085-0.087,0.174-0.128,0.266c-0.013,0.03-0.027,0.061-0.04,0.09c-0.052,0.127-0.101,0.262-0.146,0.401
			c-0.02,0.057-0.035,0.115-0.053,0.173c-0.029,0.106-0.057,0.214-0.083,0.325c-0.007,0.032-0.016,0.064-0.022,0.097
			c-0.107,0.502-0.168,1.057-0.168,1.641c0,1.322,0.308,2.496,0.784,3.238c0.926,1.604,2.652,2.682,4.635,2.682
			c2.361,0,4.365-1.525,5.078-3.646l-2.541-0.586c-0.241,1.127-1.242,1.971-2.44,1.971c-0.671,0-1.278-0.264-1.728-0.693
			c-0.002-0.002-0.004-0.004-0.005-0.006c-0.634-0.602-1.058-1.705-1.058-2.969c0-1.175,0.367-2.212,0.928-2.835
			C27.607,40.214,27.611,40.209,27.615,40.205"/>
	</g>
</g>
</svg>
