<?xml version="1.0" encoding="utf-8"?>
<!-- Generator: Adobe Illustrator 16.0.0, SVG Export Plug-In . SVG Version: 6.00 Build 0)  -->
<!DOCTYPE svg PUBLIC "-//W3C//DTD SVG 1.1//EN" "http://www.w3.org/Graphics/SVG/1.1/DTD/svg11.dtd">
<svg version="1.1" xmlns="http://www.w3.org/2000/svg" xmlns:xlink="http://www.w3.org/1999/xlink" x="0px" y="0px"
	 width="74.223px" height="74.223px" viewBox="0 0 74.223 74.223" enable-background="new 0 0 74.223 74.223" xml:space="preserve">
<g id="Layer_2_1_">
</g>
<g id="Layer_1">
	<g id="Layer_2">
	</g>
	
		<text transform="matrix(0.9833 -0.1822 0.1822 0.9833 24.0129 13.4294)" fill="#4B51A2" font-family="'AdobeMyungjoStd-Medium-KSCpc-EUC-H'" font-size="3.8499"> </text>
	<path fill="#FFFFFF" d="M51.458,10.343l0.785-0.306c0.152,0.44,0.363,0.771,0.688,0.979c0.349,0.226,0.603,0.174,0.739-0.044
		c0.168-0.261-0.116-0.612-0.396-0.991c-0.334-0.449-0.672-1.047-0.3-1.626c0.402-0.629,1.197-0.743,1.981-0.236
		c0.512,0.324,0.762,0.784,0.913,1.19L55.106,9.6c-0.137-0.334-0.3-0.615-0.563-0.783C54.236,8.618,54,8.659,53.872,8.858
		c-0.164,0.255,0.115,0.568,0.396,0.941c0.351,0.47,0.711,1.027,0.295,1.676c-0.393,0.609-1.188,0.794-2.097,0.21
		C52.001,11.387,51.616,10.849,51.458,10.343"/>
	<path fill="#FFFFFF" d="M55.694,11.229c0.885-1.063,2.156-1.052,3.022-0.335c0.395,0.325,0.569,0.729,0.639,1.122l-0.848,0.212
		c-0.047-0.269-0.134-0.465-0.316-0.616c-0.482-0.397-1.142-0.277-1.642,0.324c-0.494,0.603-0.484,1.264-0.021,1.646
		c0.229,0.188,0.534,0.259,0.834,0.257l-0.127,0.827c-0.521,0.018-1.011-0.186-1.362-0.479
		C54.986,13.457,54.823,12.285,55.694,11.229"/>
	<path fill="#FFFFFF" d="M60.52,12.687l0.611,0.646l-0.479,0.559l0.021,0.021c0.602-0.151,1.12-0.035,1.416,0.273
		c0.157,0.166,0.224,0.288,0.271,0.415l-0.813,0.508c-0.063-0.133-0.131-0.231-0.247-0.354c-0.225-0.235-0.648-0.371-1.245-0.13
		l-1.789,1.702l-0.744-0.782L60.52,12.687z"/>
	<path fill="#FFFFFF" d="M61.155,16.4c1.109-0.825,2.321-0.54,2.94,0.291s0.55,2.075-0.561,2.902
		c-1.101,0.818-2.313,0.531-2.933-0.3C59.987,18.463,60.056,17.22,61.155,16.4 M62.872,18.703c0.629-0.472,0.849-1.029,0.512-1.48
		c-0.336-0.451-0.936-0.398-1.563,0.068c-0.621,0.465-0.838,1.021-0.5,1.472C61.655,19.214,62.249,19.169,62.872,18.703"/>
	<path fill="#FFFFFF" d="M63.29,21.075l4.118-2.35l0.532,0.938l-4.162,2.374c-0.212,0.12-0.225,0.263-0.174,0.354
		c0.021,0.038,0.037,0.064,0.087,0.121l-0.635,0.515c-0.105-0.083-0.237-0.223-0.361-0.438
		C62.323,21.932,62.622,21.456,63.29,21.075"/>
	<path fill="#FFFFFF" d="M64.431,23.2l4.273-2.044l0.466,0.973l-4.32,2.064c-0.221,0.104-0.241,0.247-0.197,0.343
		c0.021,0.04,0.031,0.064,0.077,0.127l-0.669,0.468c-0.103-0.091-0.223-0.238-0.329-0.465C63.407,23.985,63.739,23.532,64.431,23.2"
		/>
	<path fill="#FFFFFF" d="M66.975,36.841l0.651,0.531c-0.31,0.354-0.487,0.7-0.51,1.084c-0.021,0.413,0.146,0.604,0.401,0.622
		c0.313,0.016,0.476-0.405,0.667-0.831c0.229-0.517,0.578-1.104,1.267-1.066c0.744,0.041,1.235,0.674,1.188,1.605
		c-0.032,0.604-0.31,1.05-0.585,1.383l-0.633-0.523c0.225-0.283,0.388-0.563,0.403-0.874c0.021-0.369-0.136-0.555-0.37-0.564
		c-0.305-0.02-0.437,0.384-0.621,0.811c-0.234,0.535-0.542,1.126-1.312,1.085c-0.726-0.039-1.275-0.639-1.219-1.717
		C66.336,37.829,66.613,37.229,66.975,36.841"/>
	<path fill="#FFFFFF" d="M68.295,40.967c1.358,0.243,1.974,1.358,1.773,2.464c-0.089,0.502-0.354,0.854-0.66,1.106l-0.603-0.632
		c0.211-0.177,0.339-0.35,0.381-0.578c0.109-0.619-0.315-1.134-1.089-1.271c-0.765-0.136-1.334,0.198-1.438,0.787
		c-0.054,0.291,0.035,0.592,0.188,0.854l-0.781,0.296c-0.271-0.447-0.338-0.973-0.258-1.42
		C66.009,41.446,66.948,40.727,68.295,40.967"/>
	<path fill="#FFFFFF" d="M69.402,45.893l-0.26,0.852l-0.722-0.146l-0.009,0.028c0.427,0.448,0.58,0.959,0.454,1.368
		c-0.067,0.219-0.144,0.336-0.229,0.438l-0.842-0.459c0.084-0.121,0.141-0.228,0.188-0.391c0.098-0.313,0.006-0.748-0.498-1.149
		l-2.357-0.724l0.314-1.031L69.402,45.893z"/>
	<path fill="#FFFFFF" d="M66.483,48.271c1.266,0.563,1.605,1.762,1.188,2.705c-0.421,0.947-1.539,1.494-2.803,0.935
		c-1.25-0.559-1.595-1.753-1.174-2.699C64.115,48.265,65.233,47.716,66.483,48.271 M65.317,50.895
		c0.719,0.319,1.313,0.235,1.541-0.275c0.229-0.517-0.107-1.015-0.824-1.331c-0.709-0.314-1.3-0.229-1.527,0.282
		C64.278,50.083,64.607,50.578,65.317,50.895"/>
	<path fill="#FFFFFF" d="M63.465,52.425l4.069,2.426l-0.555,0.926l-4.111-2.449c-0.209-0.125-0.342-0.064-0.396,0.021
		c-0.021,0.038-0.037,0.063-0.063,0.135l-0.762-0.299c0.021-0.134,0.077-0.313,0.205-0.531
		C62.244,52.006,62.805,52.031,63.465,52.425"/>
	<path fill="#FFFFFF" d="M62.18,54.465l3.896,2.709l-0.617,0.888l-3.938-2.736c-0.2-0.142-0.334-0.092-0.396-0.007
		c-0.023,0.037-0.042,0.063-0.071,0.133l-0.737-0.354c0.028-0.133,0.1-0.31,0.242-0.517C60.99,53.961,61.548,54.025,62.18,54.465"/>
	<path fill="#FFFFFF" d="M46.853,65.462l-0.294,0.79c-0.435-0.178-0.817-0.238-1.188-0.135c-0.398,0.109-0.53,0.333-0.46,0.582
		c0.084,0.299,0.534,0.316,1.002,0.362c0.561,0.053,1.229,0.193,1.416,0.854c0.2,0.721-0.24,1.391-1.141,1.643
		c-0.585,0.164-1.094,0.045-1.499-0.107l0.292-0.769c0.344,0.119,0.659,0.187,0.958,0.103c0.356-0.103,0.483-0.308,0.42-0.533
		c-0.081-0.292-0.504-0.289-0.968-0.327c-0.584-0.052-1.241-0.151-1.45-0.893c-0.193-0.698,0.195-1.415,1.235-1.707
		C45.712,65.176,46.37,65.244,46.853,65.462"/>
	<path fill="#FFFFFF" d="M43.361,68.058c0.2,1.37-0.666,2.304-1.778,2.466c-0.505,0.074-0.922-0.063-1.262-0.276l0.412-0.771
		c0.229,0.146,0.437,0.213,0.669,0.18c0.623-0.092,0.976-0.655,0.86-1.436c-0.112-0.769-0.609-1.205-1.202-1.118
		c-0.293,0.042-0.552,0.225-0.751,0.446l-0.528-0.649c0.34-0.397,0.813-0.627,1.271-0.689
		C42.184,66.038,43.163,66.703,43.361,68.058"/>
	<path fill="#FFFFFF" d="M39.12,70.668l-0.888,0.038l-0.104-0.729L38.1,69.979c-0.28,0.555-0.71,0.867-1.139,0.888
		c-0.229,0.011-0.363-0.021-0.491-0.066l0.151-0.946c0.143,0.038,0.261,0.058,0.432,0.047c0.324-0.014,0.708-0.244,0.917-0.853
		l-0.107-2.467l1.079-0.048L39.12,70.668z"/>
	<path fill="#FFFFFF" d="M35.833,68.707c-0.151,1.375-1.188,2.063-2.217,1.952c-1.03-0.113-1.893-1.015-1.74-2.39
		c0.147-1.358,1.187-2.052,2.215-1.938C35.121,66.448,35.981,67.346,35.833,68.707 M32.979,68.394
		c-0.086,0.779,0.175,1.321,0.733,1.383c0.56,0.063,0.932-0.408,1.017-1.188c0.085-0.771-0.176-1.31-0.733-1.368
		C33.435,67.156,33.063,67.621,32.979,68.394"/>
	<path fill="#FFFFFF" d="M30.943,67.147l-1.095,4.617l-1.053-0.25l1.105-4.667c0.059-0.238-0.04-0.344-0.14-0.368
		c-0.044-0.01-0.072-0.017-0.148-0.02l0.059-0.816c0.135-0.021,0.324-0.021,0.569,0.037C30.976,65.854,31.122,66.398,30.943,67.147"
		/>
	<path fill="#FFFFFF" d="M28.602,66.563l-1.429,4.521l-1.028-0.325l1.442-4.569c0.074-0.229-0.016-0.345-0.112-0.377
		c-0.042-0.013-0.071-0.021-0.146-0.027l0.114-0.812c0.138-0.011,0.325,0.002,0.564,0.078
		C28.729,65.277,28.833,65.831,28.602,66.563"/>
	<path fill="#FFFFFF" d="M14.728,57.093l-0.84,0.05c-0.013-0.469-0.112-0.846-0.357-1.144c-0.263-0.318-0.517-0.352-0.717-0.188
		c-0.238,0.198-0.076,0.618,0.069,1.063c0.181,0.532,0.32,1.202-0.211,1.64c-0.575,0.478-1.366,0.34-1.959-0.379
		c-0.385-0.468-0.482-0.979-0.504-1.414l0.816-0.042c0.028,0.359,0.1,0.677,0.295,0.917c0.235,0.285,0.475,0.317,0.656,0.168
		c0.233-0.19,0.063-0.577-0.091-1.018c-0.188-0.557-0.362-1.195,0.231-1.688c0.56-0.46,1.371-0.392,2.059,0.441
		C14.53,55.934,14.732,56.563,14.728,57.093"/>
	<path fill="#FFFFFF" d="M10.954,54.894c-1.186,0.716-2.381,0.281-2.963-0.681c-0.267-0.438-0.299-0.876-0.232-1.271l0.87,0.08
		c-0.045,0.271-0.027,0.483,0.096,0.688c0.324,0.538,0.983,0.641,1.654,0.231c0.665-0.398,0.874-1.026,0.563-1.543
		c-0.152-0.253-0.419-0.421-0.701-0.518l0.392-0.738c0.501,0.155,0.895,0.505,1.133,0.898
		C12.357,53.024,12.126,54.185,10.954,54.894"/>
	<path fill="#FFFFFF" d="M6.845,51.929L6.482,51.12l0.64-0.367l-0.014-0.027c-0.614-0.056-1.065-0.34-1.241-0.729
		c-0.095-0.209-0.114-0.349-0.118-0.481l0.936-0.209c0.019,0.147,0.045,0.264,0.114,0.419c0.133,0.297,0.488,0.566,1.132,0.538
		l2.253-1.01l0.44,0.981L6.845,51.929z"/>
	<path fill="#FFFFFF" d="M7.433,48.22c-1.324,0.402-2.366-0.278-2.668-1.27c-0.302-0.992,0.188-2.141,1.51-2.539
		c1.312-0.398,2.354,0.28,2.654,1.271C9.23,46.676,8.743,47.823,7.433,48.22 M6.598,45.473c-0.75,0.229-1.146,0.685-0.981,1.22
		C5.779,47.23,6.36,47.386,7.11,47.16c0.743-0.229,1.134-0.681,0.971-1.218C7.915,45.406,7.341,45.247,6.598,45.473"/>
	<path fill="#FFFFFF" d="M6.958,43.139l-4.646,0.919L2.103,43l4.695-0.933c0.24-0.048,0.297-0.179,0.276-0.277
		c-0.01-0.043-0.016-0.072-0.045-0.146l0.766-0.287c0.075,0.113,0.155,0.286,0.203,0.533C8.146,42.633,7.712,42.99,6.958,43.139"/>
	<path fill="#FFFFFF" d="M6.552,40.757l-4.704,0.566l-0.13-1.071l4.757-0.573c0.241-0.029,0.311-0.156,0.297-0.259
		c-0.006-0.045-0.009-0.073-0.033-0.146l0.784-0.228c0.066,0.117,0.133,0.296,0.163,0.546C7.775,40.341,7.315,40.664,6.552,40.757"
		/>
	<path fill="#FFFFFF" d="M8.789,26.154l-0.421-0.729c0.414-0.221,0.707-0.479,0.862-0.831c0.168-0.379,0.081-0.619-0.154-0.725
		c-0.284-0.126-0.586,0.209-0.919,0.538c-0.396,0.396-0.935,0.821-1.563,0.545c-0.684-0.307-0.916-1.072-0.537-1.926
		c0.246-0.555,0.662-0.869,1.04-1.084L7.5,22.659c-0.312,0.187-0.563,0.389-0.688,0.673c-0.148,0.338-0.071,0.564,0.145,0.663
		c0.275,0.123,0.544-0.204,0.87-0.536c0.41-0.416,0.906-0.858,1.609-0.547c0.663,0.295,0.965,1.053,0.525,2.04
		C9.737,25.459,9.264,25.92,8.789,26.154"/>
	<path fill="#FFFFFF" d="M9.008,21.827c-1.188-0.708-1.364-1.97-0.79-2.935c0.262-0.438,0.634-0.672,1.011-0.8l0.338,0.804
		c-0.258,0.087-0.438,0.203-0.561,0.406c-0.321,0.539-0.104,1.169,0.57,1.57c0.666,0.396,1.315,0.286,1.624-0.229
		c0.149-0.254,0.174-0.563,0.127-0.859l0.835-0.001c0.098,0.515-0.025,1.022-0.263,1.42C11.313,22.188,10.182,22.527,9.008,21.827"
		/>
	<path fill="#FFFFFF" d="M9.694,16.825l0.542-0.703l0.625,0.389l0.02-0.023c-0.241-0.567-0.206-1.102,0.057-1.439
		c0.142-0.182,0.251-0.265,0.369-0.333l0.626,0.727c-0.121,0.085-0.21,0.165-0.313,0.303c-0.199,0.257-0.27,0.696,0.063,1.252
		l1.957,1.509l-0.66,0.854L9.694,16.825z"/>
	<path fill="#FFFFFF" d="M13.261,15.625c-0.987-0.974-0.889-2.211-0.162-2.95c0.728-0.739,1.966-0.86,2.952,0.109
		c0.978,0.961,0.879,2.198,0.152,2.938C15.477,16.464,14.238,16.585,13.261,15.625 M15.274,13.576
		c-0.561-0.553-1.146-0.684-1.541-0.279c-0.396,0.401-0.253,0.986,0.308,1.537c0.556,0.544,1.137,0.67,1.529,0.269
		C15.964,14.702,15.828,14.122,15.274,13.576"/>
	<path fill="#FFFFFF" d="M17.547,12.794l-2.954-3.707l0.846-0.673l2.985,3.748c0.152,0.188,0.296,0.181,0.376,0.113
		c0.035-0.025,0.059-0.046,0.104-0.104l0.607,0.548c-0.066,0.117-0.184,0.271-0.381,0.425
		C18.543,13.617,18.026,13.396,17.547,12.794"/>
	<path fill="#FFFFFF" d="M19.474,11.339l-2.67-3.912l0.891-0.608l2.699,3.956c0.14,0.2,0.28,0.2,0.367,0.146
		c0.035-0.025,0.061-0.042,0.112-0.095l0.563,0.59c-0.074,0.11-0.202,0.254-0.409,0.396C20.406,12.233,19.907,11.974,19.474,11.339"
		/>
</g>
</svg>
