<?xml version="1.0" encoding="utf-8"?>
<!-- Generator: Adobe Illustrator 16.0.0, SVG Export Plug-In . SVG Version: 6.00 Build 0)  -->
<!DOCTYPE svg PUBLIC "-//W3C//DTD SVG 1.1//EN" "http://www.w3.org/Graphics/SVG/1.1/DTD/svg11.dtd">
<svg version="1.1" xmlns="http://www.w3.org/2000/svg" xmlns:xlink="http://www.w3.org/1999/xlink" x="0px" y="0px"
	 width="74.223px" height="74.223px" viewBox="0 0 74.223 74.223" enable-background="new 0 0 74.223 74.223" xml:space="preserve">
<g id="Layer_2">
</g>
<g id="Layer_1">
	
		<text transform="matrix(0.9833 -0.1822 0.1822 0.9833 24.0129 13.4294)" fill="#4B51A2" font-family="'AdobeMyungjoStd-Medium-KSCpc-EUC-H'" font-size="3.8498"> </text>
	<path fill="none" stroke="#FFFFFF" stroke-width="0.25" stroke-miterlimit="10" d="M19.296,47.441l17.814,10.285l17.814-10.285
		V26.869L37.111,16.583L19.296,26.869V47.441z M37.111,57.852l-0.026-0.017L19.188,47.504V26.808l0.026-0.016L37.11,16.459
		l0.027,0.017l17.896,10.332v20.696l-0.027,0.015L37.111,57.852z"/>
	<path fill="none" stroke="#FFFFFF" stroke-width="0.25" stroke-miterlimit="10" d="M23.005,61.587h28.212l14.104-24.431
		L51.217,12.724H23.005L8.9,37.156L23.005,61.587z M51.28,61.695H22.943l-0.015-0.025L8.775,37.156l0.017-0.027l14.151-24.513H51.28
		l0.017,0.024l14.151,24.516l-0.017,0.024L51.28,61.695z"/>
	
		<rect x="37.057" y="12.67" fill="none" stroke="#FFFFFF" stroke-width="0.25" stroke-miterlimit="10" width="0.107" height="48.972"/>
	
		<rect x="12.627" y="37.102" transform="matrix(0.866 0.5 -0.5 0.866 23.5507 -13.5784)" fill="none" stroke="#FFFFFF" stroke-width="0.25" stroke-miterlimit="10" width="48.969" height="0.107"/>
	
		<rect x="37.059" y="12.671" transform="matrix(0.505 0.8631 -0.8631 0.505 50.4385 -13.6408)" fill="none" stroke="#FFFFFF" stroke-width="0.25" stroke-miterlimit="10" width="0.106" height="48.966"/>
	
		<rect x="8.84" y="37.101" transform="matrix(0.5 0.866 -0.866 0.5 50.7334 -13.5623)" fill="none" stroke="#FFFFFF" stroke-width="0.25" stroke-miterlimit="10" width="56.544" height="0.109"/>
	
		<rect x="8.838" y="37.102" fill="none" stroke="#FFFFFF" stroke-width="0.25" stroke-miterlimit="10" width="56.547" height="0.107"/>
	
		<rect x="37.057" y="8.885" transform="matrix(0.8654 0.501 -0.501 0.8654 23.6104 -13.5936)" fill="none" stroke="#FFFFFF" stroke-width="0.25" stroke-miterlimit="10" width="0.107" height="56.541"/>
	<polygon fill="#3722D4" points="54.709,26.854 37.06,16.742 19.451,26.854 19.41,47.177 37.06,57.48 54.709,47.177 	"/>
	<path fill="#FFFFFF" d="M41.51,36.825c-0.252-0.235-0.646-0.225-0.884,0.03l-2.892,3.107v-8.241c0-0.345-0.278-0.625-0.625-0.625
		c-0.345,0-0.625,0.28-0.625,0.625v8.241l-2.89-3.107c-0.235-0.255-0.632-0.269-0.884-0.03c-0.253,0.232-0.269,0.63-0.031,0.883
		l3.973,4.271c0.002,0.004,0.007,0.004,0.009,0.007c0.052,0.057,0.114,0.1,0.186,0.133c0.006,0.003,0.01,0.008,0.016,0.011
		c0.076,0.033,0.16,0.052,0.248,0.052c0.09,0,0.174-0.019,0.249-0.052c0.007-0.003,0.011-0.008,0.017-0.011
		c0.069-0.033,0.133-0.076,0.186-0.133c0.002-0.003,0.007-0.003,0.009-0.007l3.975-4.271C41.778,37.455,41.763,37.06,41.51,36.825"
		/>
	<circle fill="none" stroke="#FFFFFF" stroke-width="0.5" stroke-miterlimit="10" cx="37.111" cy="37.111" r="36.712"/>
</g>
</svg>
