<?xml version="1.0" encoding="utf-8"?>
<!-- Generator: Adobe Illustrator 16.0.0, SVG Export Plug-In . SVG Version: 6.00 Build 0)  -->
<!DOCTYPE svg PUBLIC "-//W3C//DTD SVG 1.1//EN" "http://www.w3.org/Graphics/SVG/1.1/DTD/svg11.dtd">
<svg version="1.1" id="Layer_1" xmlns="http://www.w3.org/2000/svg" xmlns:xlink="http://www.w3.org/1999/xlink" x="0px" y="0px"
	 width="757.854px" height="127.535px" viewBox="0 0 757.854 127.535" enable-background="new 0 0 757.854 127.535"
	 xml:space="preserve">
<path fill="#FFFFFF" d="M743.927,3.024c-2.535,0.677-4.591,2.479-6.167,5.406l-26.527,48.154L684.2,8.263
	c-1.577-2.928-3.718-4.674-6.42-5.238c-2.703-0.563-5.298-0.225-7.771,1.015c-2.815,1.465-4.646,3.407-5.491,5.83
	c-0.845,2.424-0.479,4.983,1.101,7.688l34.299,58.967v39.028c0,3.269,1.067,5.636,3.21,7.097c2.138,1.465,4.673,2.196,7.603,2.196
	s5.462-0.731,7.604-2.196c2.139-1.461,3.21-3.828,3.21-7.097V76.524l34.468-59.138c1.914-3.266,2.337-6.024,1.269-8.278
	c-1.07-2.252-2.9-3.996-5.491-5.236C749.081,2.632,746.462,2.349,743.927,3.024 M580.207,4.968
	c-6.703,2.086-12.363,5.436-16.98,10.053c-4.62,4.621-8.107,10.646-10.476,18.078c-2.365,7.437-3.548,16.504-3.548,27.203v6.928
	c0,10.702,1.183,19.77,3.548,27.202c2.366,7.437,5.854,13.462,10.476,18.078c4.617,4.619,10.333,7.974,17.149,10.054
	c6.813,2.086,14.614,3.125,23.398,3.125c5.856,0,11.631-0.533,17.318-1.604c5.688-1.07,10.785-2.563,15.291-4.479
	c3.604-1.576,6.138-3.547,7.604-5.914c1.462-2.362,2.193-5.686,2.193-9.967V70.269c0-5.293-1.043-8.955-3.126-10.981
	c-2.085-2.027-5.829-3.041-11.233-3.041h-26.02c-2.593,0-4.507,0.901-5.745,2.702c-1.241,1.804-1.856,3.888-1.856,6.252
	c0,2.479,0.617,4.619,1.856,6.42c1.238,1.803,3.152,2.703,5.745,2.703h18.923v28.217c-3.153,1.242-6.278,2.141-9.377,2.703
	c-3.1,0.563-6.729,0.846-10.896,0.846c-6.083,0-11.236-0.646-15.46-1.941c-4.227-1.297-7.661-3.521-10.309-6.676
	c-2.646-3.15-4.591-7.32-5.83-12.504c-1.237-5.18-1.855-11.656-1.855-19.43v-3.549c0-7.771,0.618-14.248,1.855-19.43
	c1.239-5.181,3.185-9.349,5.83-12.504c2.646-3.152,6.024-5.377,10.14-6.674c4.108-1.293,8.979-1.943,14.612-1.943
	c5.183,0,9.771,0.566,13.771,1.691c3.996,1.127,7.629,2.703,10.896,4.729c2.142,1.354,4.364,1.748,6.675,1.185
	c2.31-0.563,4.251-1.97,5.828-4.226c1.577-2.252,2.253-4.672,2.028-7.264c-0.227-2.59-1.634-4.787-4.224-6.59
	c-3.944-2.703-8.762-4.9-14.446-6.59c-5.689-1.689-12.532-2.533-20.529-2.533C594.653,1.843,586.906,2.884,580.207,4.968
	 M463.88,21.778h21.627c7.321,0,12.644,1.438,15.967,4.309c3.321,2.873,4.984,7.127,4.984,12.758v2.195
	c0,5.521-1.748,9.688-5.238,12.504c-3.492,2.816-9.351,4.223-17.572,4.223H463.88V21.778L463.88,21.778z M456.615,3.7
	c-5.406,0-9.152,1.014-11.235,3.041c-2.086,2.027-3.126,5.688-3.126,10.981v97.829c0,3.268,1.069,5.635,3.211,7.096
	c2.138,1.465,4.672,2.197,7.603,2.197s5.464-0.732,7.604-2.197c2.138-1.461,3.21-3.828,3.21-7.096V75.847h19.431h1.858
	c0.676,0,1.294-0.055,1.857-0.17l23.146,44.268c1.463,2.933,3.548,4.563,6.252,4.9c2.703,0.338,5.348-0.113,7.941-1.352
	c2.59-1.238,4.361-3.1,5.319-5.576c0.956-2.479,0.647-5.123-0.929-7.941l-21.289-37.678c6.308-2.59,11.291-6.447,14.953-11.575
	c3.659-5.122,5.491-11.573,5.491-19.346v-3.041c0-10.586-3.438-19.008-10.31-25.26c-6.87-6.25-16.613-9.378-29.229-9.378
	L456.615,3.7L456.615,3.7z M353.889,3.7c-5.404,0-9.15,1.014-11.234,3.041c-2.086,2.027-3.125,5.688-3.125,10.981v92.084
	c0,5.296,1.039,8.955,3.125,10.982c2.084,2.024,5.83,3.041,11.234,3.041h58.798c2.589,0,4.479-0.871,5.66-2.619
	c1.184-1.744,1.774-3.856,1.774-6.336c0-2.365-0.593-4.449-1.774-6.252c-1.183-1.8-3.071-2.703-5.66-2.703h-51.7V71.112h47.141
	c2.476,0,4.308-0.868,5.491-2.616c1.183-1.746,1.771-3.806,1.771-6.168c0-2.365-0.591-4.418-1.771-6.166
	c-1.186-1.746-3.018-2.619-5.491-2.619h-47.141V21.608h50.52c2.59,0,4.477-0.899,5.66-2.703c1.183-1.801,1.771-3.887,1.771-6.252
	c0-2.477-0.591-4.588-1.771-6.336c-1.186-1.744-3.07-2.619-5.66-2.619L353.889,3.7L353.889,3.7z M295.261,4.798
	c-2.027,1.41-3.042,3.633-3.042,6.674v85.494c-1.014-3.828-2.195-7.264-3.548-10.305c-1.353-3.043-2.872-6.084-4.563-9.125
	l-31.935-57.109c-2.142-3.828-4-6.869-5.576-9.123c-1.577-2.252-3.099-3.971-4.562-5.154c-1.465-1.182-2.986-1.94-4.563-2.278
	c-1.577-0.341-3.379-0.509-5.404-0.509c-5.406,0-9.152,1.015-11.235,3.041c-2.087,2.027-3.126,5.689-3.126,10.982v98.674
	c0,3.041,1.014,5.268,3.041,6.676c2.027,1.406,4.335,2.108,6.928,2.108c2.589,0,4.898-0.703,6.929-2.108
	c2.025-1.408,3.041-3.635,3.041-6.676V30.565c1.015,3.83,2.195,7.267,3.548,10.308s2.873,6.082,4.563,9.123l31.936,57.108
	c2.138,3.83,3.996,6.871,5.573,9.123c1.576,2.256,3.1,3.973,4.563,5.153c1.463,1.183,2.982,1.942,4.562,2.281
	c1.576,0.338,3.38,0.506,5.407,0.506c5.406,0,9.15-1.015,11.236-3.041c2.082-2.026,3.125-5.688,3.125-10.981V11.472
	c0-3.041-1.016-5.264-3.041-6.674c-2.027-1.406-4.338-2.111-6.929-2.111C299.595,2.687,297.288,3.392,295.261,4.798 M182.483,3.024
	c-2.535,0.677-4.593,2.479-6.167,5.406l-26.527,48.154L122.754,8.263c-1.578-2.928-3.717-4.674-6.42-5.238
	c-2.704-0.563-5.296-0.225-7.771,1.015c-2.817,1.465-4.647,3.407-5.492,5.83c-0.844,2.424-0.48,4.983,1.099,7.688l34.299,58.967
	v39.028c0,3.269,1.069,5.636,3.21,7.097c2.14,1.465,4.675,2.196,7.604,2.196c2.928,0,5.462-0.731,7.603-2.196
	c2.141-1.461,3.21-3.828,3.21-7.097V76.524l34.47-59.138c1.914-3.266,2.337-6.024,1.267-8.278c-1.071-2.252-2.901-3.996-5.491-5.236
	C187.634,2.632,185.015,2.349,182.483,3.024 M25.094,4.546c-5.405,1.803-9.969,4.252-13.686,7.35
	c-3.717,3.101-6.505,6.732-8.363,10.898c-1.857,4.168-2.788,8.617-2.788,13.348v1.182c0,5.636,0.816,10.392,2.45,14.277
	c1.631,3.887,4.166,7.209,7.604,9.971c3.435,2.762,7.741,5.041,12.925,6.844c5.18,1.803,11.319,3.379,18.417,4.729
	c8.108,1.578,13.995,3.689,17.656,6.336c3.657,2.648,5.49,6.338,5.49,11.066v1.182c0,4.172-1.748,7.635-5.236,10.396
	c-3.493,2.762-9.124,4.139-16.896,4.139c-5.069,0-9.969-0.646-14.7-1.942c-4.729-1.293-9.066-3.066-13.01-5.32
	c-2.592-1.465-5.013-1.914-7.265-1.354c-2.254,0.565-4.168,2.086-5.745,4.563c-1.578,2.365-2.196,4.873-1.858,7.52
	c0.338,2.648,1.858,4.814,4.563,6.504c4.504,2.816,10.053,5.101,16.642,6.845c6.59,1.745,13.375,2.618,20.36,2.618
	c14.755,0,25.905-3.041,33.454-9.123c7.545-6.082,11.318-14.926,11.318-26.524v-1.521c0-9.01-3.041-16.39-9.123-22.135
	c-6.083-5.746-16.165-10.08-30.242-13.011c-5.185-1.014-9.407-2.053-12.674-3.125c-3.269-1.069-5.828-2.252-7.688-3.547
	s-3.155-2.729-3.886-4.312c-0.734-1.576-1.1-3.435-1.1-5.576V35.81c0-1.802,0.479-3.576,1.438-5.324
	c0.956-1.744,2.392-3.32,4.308-4.73c1.914-1.406,4.251-2.533,7.012-3.379s5.998-1.268,9.717-1.268c4.504,0,8.39,0.313,11.657,0.93
	c3.267,0.621,6.7,1.719,10.308,3.295c2.366,1.014,4.618,1.213,6.759,0.592c2.138-0.617,3.886-2.223,5.237-4.816
	c1.352-2.475,1.688-4.955,1.014-7.434c-0.676-2.477-2.254-4.334-4.731-5.576c-8.223-4.166-18.415-6.25-30.58-6.25
	C36.753,1.843,30.502,2.745,25.094,4.546"/>
</svg>
