<?xml version="1.0" encoding="utf-8"?>
<!-- Generator: Adobe Illustrator 16.0.0, SVG Export Plug-In . SVG Version: 6.00 Build 0)  -->
<!DOCTYPE svg PUBLIC "-//W3C//DTD SVG 1.1//EN" "http://www.w3.org/Graphics/SVG/1.1/DTD/svg11.dtd">
<svg version="1.1" id="Layer_1" xmlns="http://www.w3.org/2000/svg" xmlns:xlink="http://www.w3.org/1999/xlink" x="0px" y="0px"
	 width="595.28px" height="841.89px"   xml:space="preserve">
<path fill="#FFFFFF" stroke="#000000" stroke-miterlimit="10" d="M663.484,361.313c-2.535,0.676-4.591,2.479-6.167,5.406
	l-26.527,48.154l-27.034-48.322c-1.577-2.928-3.717-4.674-6.42-5.238c-2.703-0.563-5.296-0.225-7.771,1.014
	c-2.817,1.465-4.647,3.408-5.491,5.83c-0.845,2.424-0.48,4.984,1.099,7.688l34.299,58.967v39.029c0,3.268,1.068,5.635,3.21,7.096
	c2.138,1.465,4.673,2.197,7.603,2.197c2.928,0,5.4 62-0.732,7.604-2.197c2.139-1.461,3.21-3.828,3.21-7.096v-39.029l34.468-59.137
	c1.914-3.266,2.337-6.025,1.267-8.279c-1.07-2.252-2.9-3.996-5.491-5.236C668.638,360.92,666.019,360.637,663.484,361.313
	 M499.764,363.256c-6.703,2.086-12.363,5.436-16.98,10.053c-4.62,4.621-8.109,10.645-10.476,18.078
	c-2.365,7.436-3.548,16.504-3.548,27.203v6.928c0,10.703,1.183,19.768,3.548,27.203c2.366,7.434,5.855,13.461,10.476,18.078
	c4.617,4.619,10.333,7.971,17.149,10.053c6.813,2.084,14.614,3.125,23.4,3.125c5.856,0,11.629-0.535,17.318-1.604
	c5.687-1.07,10.785-2.563,15.291-4.479c3.604-1.576,6.138-3.547,7.604-5.914c1.462-2.363,2.195-5.686,2.195-9.967v-33.455
	c0-5.293-1.043-8.955-3.126-10.982c-2.085-2.027-5.829-3.041-11.235-3.041h-26.02c-2.593,0-4.507,0.902-5.745,2.703
	c-1.241,1.803-1.858,3.887-1.858,6.252c0,2.479,0.617,4.619,1.858,6.42c1.238,1.803,3.152,2.703,5.745,2.703h18.923v28.217
	c-3.155,1.242-6.28,2.141-9.377,2.703c-3.1,0.564-6.731,0.846-10.897,0.846c-6.083,0-11.236-0.648-15.46-1.943
	c-4.225-1.295-7.661-3.52-10.307-6.674c-2.647-3.152-4.591-7.322-5.83-12.504c-1.239-5.18-1.857-11.658-1.857-19.43v-3.549
	c0-7.771,0.618-14.248,1.857-19.43c1.239-5.18,3.183-9.348,5.83-12.504c2.646-3.152,6.024-5.377,10.138-6.674
	c4.11-1.293,8.98-1.943,14.614-1.943c5.181,0,9.771,0.566,13.771,1.691c3.996,1.127,7.629,2.703,10.896,4.729
	c2.14,1.354,4.364,1.748,6.674,1.184c2.309-0.563,4.251-1.969,5.829-4.225c1.577-2.252,2.252-4.672,2.028-7.264
	c-0.227-2.59-1.634-4.787-4.224-6.59c-3.944-2.703-8.761-4.9-14.446-6.59c-5.689-1.689-12.532-2.533-20.529-2.533
	C514.209,360.131,506.463,361.172,499.764,363.256 M383.437,380.066h21.627c7.321,0,12.643,1.438,15.967,4.309
	c3.321,2.873,4.984,7.127,4.984,12.758v2.195c0,5.521-1.748,9.689-5.238,12.504c-3.492,2.816-9.351,4.223-17.572,4.223h-19.768
	V380.066z M376.171,361.988c-5.406,0-9.152,1.014-11.235,3.041c-2.086,2.027-3.126,5.689-3.126,10.982v97.828
	c0,3.268,1.069,5.635,3.211,7.096c2.138,1.465,4.672,2.197,7.603,2.197c2.929,0,5.462-0.732,7.604-2.197
	c2.138-1.461,3.21-3.828,3.21-7.096v-39.705h19.431h1.858c0.676,0,1.294-0.055,1.858-0.17l23.147,44.268
	c1.463,2.932,3.548,4.563,6.252,4.9c2.703,0.338,5.348-0.113,7.941-1.352c2.59-1.238,4.363-3.098,5.321-5.576
	c0.956-2.477,0.647-5.123-0.929-7.941l-21.289-37.678c6.307-2.59,11.291-6.447,14.953-11.574c3.659-5.123,5.491-11.574,5.491-19.346
	v-3.041c0-10.586-3.438-19.008-10.308-25.26c-6.871-6.25-16.615-9.377-29.229-9.377H376.171z M273.446,361.988
	c-5.406,0-9.152,1.014-11.236,3.041c-2.086,2.027-3.125,5.689-3.125,10.982v92.084c0,5.295,1.039,8.955,3.125,10.982
	c2.084,2.027,5.83,3.041,11.236,3.041h58.798c2.589,0,4.478-0.871,5.66-2.619c1.182-1.744,1.774-3.857,1.774-6.336
	c0-2.365-0.593-4.449-1.774-6.252c-1.183-1.799-3.071-2.703-5.66-2.703h-51.702v-34.807h47.141c2.476,0,4.308-0.869,5.491-2.617
	c1.183-1.746,1.773-3.803,1.773-6.168s-0.591-4.418-1.773-6.166c-1.184-1.746-3.016-2.619-5.491-2.619h-47.141v-31.934h50.52
	c2.59,0,4.477-0.9,5.66-2.703c1.183-1.801,1.773-3.887,1.773-6.252c0-2.477-0.591-4.588-1.773-6.336
	c-1.184-1.744-3.07-2.619-5.66-2.619H273.446z M214.818,363.086c-2.028,1.41-3.042,3.633-3.042,6.674v85.494
	c-1.014-3.828-2.196-7.264-3.548-10.305c-1.353-3.043-2.872-6.084-4.562-9.125l-31.934-57.109c-2.142-3.828-4-6.869-5.576-9.123
	c-1.579-2.252-3.099-3.971-4.562-5.154c-1.465-1.182-2.986-1.941-4.563-2.279c-1.579-0.34-3.379-0.508-5.406-0.508
	c-5.406,0-9.152,1.014-11.235,3.041c-2.087,2.027-3.126,5.689-3.126,10.982v98.674c0,3.041,1.014,5.266,3.041,6.674
	s4.335,2.111,6.928,2.111c2.589,0,4.898-0.703,6.927-2.111c2.027-1.408,3.041-3.633,3.041-6.674v-85.494
	c1.015,3.83,2.197,7.266,3.548,10.307c1.353,3.041,2.873,6.082,4.563,9.123l31.934,57.109c2.138,3.83,3.997,6.871,5.575,9.123
	c1.576,2.254,3.098,3.971,4.563,5.154c1.463,1.182,2.983,1.943,4.562,2.281c1.576,0.338,3.379,0.506,5.407,0.506
	c5.406,0,9.15-1.014,11.236-3.041c2.082-2.027,3.125-5.688,3.125-10.982V369.76c0-3.041-1.014-5.264-3.041-6.674
	c-2.027-1.406-4.338-2.111-6.928-2.111C219.152,360.975,216.845,361.68,214.818,363.086 M102.039,361.313
	c-2.535,0.676-4.591,2.479-6.167,5.406l-26.527,48.154l-27.034-48.322c-1.578-2.928-3.717-4.674-6.42-5.238
	c-2.704-0.563-5.296-0.225-7.772,1.014c-2.817,1.465-4.647,3.408-5.492,5.83c-0.844,2.424-0.48,4.984,1.099,7.688l34.299,58.967
	v39.029c0,3.268,1.069,5.635,3.21,7.096c2.138,1.465,4.673,2.197,7.603,2.197c2.928,0,5.462-0.732,7.603-2.197
	c2.139-1.461,3.21-3.828,3.21-7.096v-39.029l34.468-59.137c1.914-3.266,2.337-6.025,1.267-8.279
	c-1.071-2.252-2.901-3.996-5.491-5.236C107.191,360.92,104.572,360.637,102.039,361.313 M-55.349,362.834
	c-5.407,1.803-9.969,4.252-13.686,7.35c-3.717,3.1-6.505,6.732-8.363,10.898c-1.859,4.168-2.788,8.617-2.788,13.348v1.182
	c0,5.635,0.816,10.391,2.45,14.277c1.631,3.885,4.166,7.209,7.603,9.969c3.435,2.762,7.743,5.041,12.925,6.844
	c5.18,1.803,11.321,3.379,18.417,4.73c8.11,1.578,13.995,3.689,17.656,6.336c3.659,2.648,5.492,6.336,5.492,11.066v1.182
	c0,4.17-1.748,7.633-5.238,10.393c-3.493,2.762-9.124,4.139-16.896,4.139c-5.069,0-9.969-0.646-14.7-1.943
	c-4.731-1.293-9.068-3.066-13.01-5.32c-2.592-1.465-5.013-1.914-7.265-1.354c-2.254,0.566-4.168,2.086-5.745,4.563
	c-1.578,2.365-2.196,4.873-1.858,7.52c0.338,2.648,1.858,4.814,4.562,6.504c4.504,2.816,10.053,5.098,16.642,6.842
	c6.59,1.746,13.375,2.619,20.36,2.619c14.755,0,25.906-3.041,33.454-9.123c7.545-6.082,11.32-14.924,11.32-26.525v-1.521
	c0-9.01-3.041-16.389-9.123-22.135c-6.083-5.744-16.165-10.078-30.244-13.01c-5.183-1.014-9.407-2.053-12.672-3.125
	c-3.269-1.07-5.829-2.252-7.688-3.547c-1.858-1.295-3.155-2.73-3.886-4.311c-0.734-1.576-1.098-3.434-1.098-5.576v-1.012
	c0-1.801,0.478-3.576,1.436-5.324c0.956-1.744,2.392-3.32,4.308-4.73c1.914-1.406,4.251-2.533,7.012-3.379
	c2.759-0.846,5.998-1.268,9.715-1.268c4.504,0,8.39,0.313,11.659,0.93c3.265,0.621,6.7,1.719,10.306,3.295
	c2.366,1.014,4.618,1.213,6.759,0.592c2.138-0.617,3.886-2.223,5.237-4.816c1.352-2.475,1.69-4.955,1.014-7.434
	c-0.676-2.477-2.254-4.334-4.731-5.576c-8.223-4.166-18.416-6.25-30.581-6.25C-43.69,360.131-49.941,361.033-55.349,362.834"/>
</svg>
