<?xml version="1.0" encoding="utf-8"?>
<!-- Generator: Adobe Illustrator 16.0.0, SVG Export Plug-In . SVG Version: 6.00 Build 0)  -->
<!DOCTYPE svg PUBLIC "-//W3C//DTD SVG 1.1//EN" "http://www.w3.org/Graphics/SVG/1.1/DTD/svg11.dtd">
<svg version="1.1" id="Layer_1" xmlns="http://www.w3.org/2000/svg" xmlns:xlink="http://www.w3.org/1999/xlink" x="0px" y="0px"
	 width="595.28px" height="841.89px" viewBox="0 0 595.28 841.89" enable-background="new 0 0 595.28 841.89" xml:space="preserve">
<circle fill="none" stroke="#FFFFFF" cx="298.933" cy="422.479" r="16.429"/>
<path fill="#FFFFFF" d="M296.33,426.389v-6.393l5.858,3.121L296.33,426.389z M307.054,419.34c-0.32-1.307-0.919-1.807-2.021-1.988
	c-0.634-0.096-3.682-0.219-6.101-0.219c-2.42,0-5.467,0.123-6.1,0.219c-1.103,0.182-1.703,0.686-2.021,1.988
	c-0.107,0.436-0.256,2.838-0.256,3.752v0.201c0,0.916,0.148,3.316,0.256,3.754c0.317,1.303,0.918,1.807,2.021,1.986
	c0.633,0.096,3.684,0.217,6.105,0.217l-0.011,0.002c2.422,0,5.47-0.123,6.105-0.219c1.102-0.18,1.7-0.684,2.021-1.986
	c0.107-0.438,0.254-2.838,0.254-3.754v-0.201C307.308,422.178,307.161,419.775,307.054,419.34"/>
</svg>
